{
copyright = "Copyright (c) 2015, Cadson Demak (info@cadsondemak.com)";
customParameters = (
{
name = vendorID;
value = CDK;
},
{
name = description;
value = "Copyright (c) 2015, Cadson Demak (info@cadsondemak.com)";
},
{
name = license;

glyphs = (
{
glyphname = A;
lastChange = "2015-07-19 09:31:22 +0000";
layers = (
{
layerId = "4CE4ED08-6AC3-4BDD-8925-679D298B3381";
name = Bold;
paths = (
{
closed = 1;
nodes = (
"161 61 OFFCURVE",
"178 126 OFFCURVE",
"195 188 CURVE",
"428 188 LINE",
"445 125 OFFCURVE",
"461 61 OFFCURVE",
"477 0 CURVE",
"593 8 LINE",
"540 207 OFFCURVE",
"466 443 OFFCURVE",
"398 618 CURVE",
"226 618 LINE",
"158 443 OFFCURVE",
"84 207 OFFCURVE",
"31 8 CURVE",
"147 0 LINE"
);
},
{
closed = 1;
nodes = (
"249 374 OFFCURVE",
"275 455 OFFCURVE",
"297 516 CURVE",
"328 516 LINE",
"349 455 OFFCURVE",
"374 374 OFFCURVE",
"401 285 CURVE",
"223 285 LINE"
);
}
);
width = 624;
}
);
leftKerningGroup = A;
rightKerningGroup = A;
unicode = 0041;
},
{
glyphname = Aacute;
lastChange = "2015-07-19 07:30:04 +0000";
layers = (
{
components = (
{
name = A;
}
);
layerId = "4CE4ED08-6AC3-4BDD-8925-679D298B3381";
name = Bold;
paths = (
{
closed = 1;
nodes = (
"475 832 LINE",
"350 844 LINE",
"267 692 LINE",
"346 678 LINE"
);
}
);
width = 624;
}
);
leftKerningGroup = A;
note = Aacute;
rightKerningGroup = A;
unicode = 00C1;
},
{
glyphname = Abreve;
lastChange = "2015-07-19 07:30:04 +0000";
layers = (
{
components = (
{
name = A;
}
);
layerId = "4CE4ED08-6AC3-4BDD-8925-679D298B3381";
name = Bold;
paths = (
{
closed = 1;
nodes = (
"406 678 OFFCURVE",
"449 723 OFFCURVE",
"457 802 CURVE",
"361 817 LINE",
"359 782 OFFCURVE",
"349 762 OFFCURVE",
"311 762 CURVE SMOOTH",
"273 762 OFFCURVE",
"263 782 OFFCURVE",
"261 817 CURVE",
"165 802 LINE",
"173 723 OFFCURVE",
"216 678 OFFCURVE",
"311 678 CURVE SMOOTH"
);
}
);
width = 624;
}
);
leftKerningGroup = A;
note = Abreve;
rightKerningGroup = A;
unicode = 0102;
},
{
glyphname = Abreveacute;
lastChange = "2015-07-19 07:30:04 +0000";
layers = (
{
layerId = "4CE4ED08-6AC3-4BDD-8925-679D298B3381";
name = Bold;
paths = (
{
closed = 1;
nodes = (
"161 61 OFFCURVE",
"178 126 OFFCURVE",
"195 188 CURVE",
"428 188 LINE",
"445 125 OFFCURVE",
"461 61 OFFCURVE",
"477 0 CURVE",
"593 8 LINE",
"540 207 OFFCURVE",
"466 443 OFFCURVE",
"398 618 CURVE",
"226 618 LINE",
"158 443 OFFCURVE",
"84 207 OFFCURVE",
"31 8 CURVE",
"147 0 LINE"
);
},
{
closed = 1;
nodes = (
"249 374 OFFCURVE",
"275 455 OFFCURVE",
"297 516 CURVE",
"328 516 LINE",
"349 455 OFFCURVE",
"374 374 OFFCURVE",
"401 285 CURVE",
"223 285 LINE"
);
},
{
closed = 1;
nodes = (
"399 678 OFFCURVE",
"442 719 OFFCURVE",
"450 791 CURVE",
"363 805 LINE",
"361 772 OFFCURVE",
"352 753 OFFCURVE",
"311 753 CURVE SMOOTH",
"270 753 OFFCURVE",
"261 772 OFFCURVE",
"259 805 CURVE",
"172 791 LINE",
"179 719 OFFCURVE",
"224 678 OFFCURVE",
"311 678 CURVE SMOOTH"
);
},
{
closed = 1;
nodes = (
"432 940 LINE",
"336 956 LINE",
"275 845 LINE",
"339 830 LINE"
);
}
);
width = 624;
}
);
leftKerningGroup = A;
note = Abreveacute;
rightKerningGroup = A;
unicode = 1EAE;
},
{
glyphname = Abrevedotbelow;
lastChange = "2015-07-19 07:30:04 +0000";
layers = (
{
layerId = "4CE4ED08-6AC3-4BDD-8925-679D298B3381";
name = Bold;
paths = (
{
closed = 1;
nodes = (
"161 61 OFFCURVE",
"178 126 OFFCURVE",
"195 188 CURVE",
"428 188 LINE",
"445 125 OFFCURVE",
"461 61 OFFCURVE",
"477 0 CURVE",
"593 8 LINE",
"540 207 OFFCURVE",
"466 443 OFFCURVE",
"398 618 CURVE",
"226 618 LINE",
"158 443 OFFCURVE",
"84 207 OFFCURVE",
"31 8 CURVE",
"147 0 LINE"
);
},
{
closed = 1;
nodes = (
"355 -181 OFFCURVE",
"381 -157 OFFCURVE",
"381 -118 CURVE SMOOTH",
"381 -75 OFFCURVE",
"355 -52 OFFCURVE",
"312 -52 CURVE SMOOTH",
"269 -52 OFFCURVE",
"244 -75 OFFCURVE",
"244 -118 CURVE SMOOTH",
"244 -157 OFFCURVE",
"269 -181 OFFCURVE",
"312 -181 CURVE SMOOTH"
);
},
{
closed = 1;
nodes = (
"249 374 OFFCURVE",
"275 455 OFFCURVE",
"297 516 CURVE",
"328 516 LINE",
"349 455 OFFCURVE",
"374 374 OFFCURVE",
"401 285 CURVE",
"223 285 LINE"
);
},
{
closed = 1;
nodes = (
"406 678 OFFCURVE",
"449 723 OFFCURVE",
"457 802 CURVE",
"361 817 LINE",
"359 782 OFFCURVE",
"349 762 OFFCURVE",
"311 762 CURVE SMOOTH",
"273 762 OFFCURVE",
"263 782 OFFCURVE",
"261 817 CURVE",
"165 802 LINE",
"173 723 OFFCURVE",
"216 678 OFFCURVE",
"311 678 CURVE SMOOTH"
);
}
);
width = 624;
}
);
leftKerningGroup = A;
note = Abrevedotbelow;
rightKerningGroup = A;
unicode = 1EB6;
},
{
glyphname = Abrevegrave;
lastChange = "2015-07-19 07:30:04 +0000";
layers = (
{
layerId = "4CE4ED08-6AC3-4BDD-8925-679D298B3381";
name = Bold;
paths = (
{
closed = 1;
nodes = (
"161 61 OFFCURVE",
"178 126 OFFCURVE",
"195 188 CURVE",
"428 188 LINE",
"445 125 OFFCURVE",
"461 61 OFFCURVE",
"477 0 CURVE",
"593 8 LINE",
"540 207 OFFCURVE",
"466 443 OFFCURVE",
"398 618 CURVE",
"226 618 LINE",
"158 443 OFFCURVE",
"84 207 OFFCURVE",
"31 8 CURVE",
"147 0 LINE"
);
},
{
closed = 1;
nodes = (
"249 374 OFFCURVE",
"275 455 OFFCURVE",
"297 516 CURVE",
"328 516 LINE",
"349 455 OFFCURVE",
"374 374 OFFCURVE",
"401 285 CURVE",
"223 285 LINE"
);
},
{
closed = 1;
nodes = (
"399 678 OFFCURVE",
"443 719 OFFCURVE",
"450 791 CURVE",
"363 805 LINE",
"361 772 OFFCURVE",
"352 753 OFFCURVE",
"311 753 CURVE SMOOTH",
"270 753 OFFCURVE",
"261 772 OFFCURVE",
"259 805 CURVE",
"172 791 LINE",
"180 719 OFFCURVE",
"224 678 OFFCURVE",
"311 678 CURVE SMOOTH"
);
},
{
closed = 1;
nodes = (
"350 845 LINE",
"289 956 LINE",
"193 940 LINE",
"285 830 LINE"
);
}
);
width = 624;
}
);
leftKerningGroup = A;
note = Abrevegrave;
rightKerningGroup = A;
unicode = 1EB0;
},
{
glyphname = Abrevehookabove;
lastChange = "2015-07-19 07:30:04 +0000";
layers = (
{
layerId = "4CE4ED08-6AC3-4BDD-8925-679D298B3381";
name = Bold;
paths = (
{
closed = 1;
nodes = (
"161 61 OFFCURVE",
"178 126 OFFCURVE",
"195 188 CURVE",
"428 188 LINE",
"445 125 OFFCURVE",
"461 61 OFFCURVE",
"477 0 CURVE",
"593 8 LINE",
"540 207 OFFCURVE",
"466 443 OFFCURVE",
"398 618 CURVE",
"226 618 LINE",
"158 443 OFFCURVE",
"84 207 OFFCURVE",
"31 8 CURVE",
"147 0 LINE"
);
},
{
closed = 1;
nodes = (
"249 374 OFFCURVE",
"275 455 OFFCURVE",
"297 516 CURVE",
"328 516 LINE",
"349 455 OFFCURVE",
"374 374 OFFCURVE",
"401 285 CURVE",
"223 285 LINE"
);
},
{
closed = 1;
nodes = (
"399 678 OFFCURVE",
"443 719 OFFCURVE",
"450 791 CURVE",
"363 805 LINE",
"361 772 OFFCURVE",
"352 753 OFFCURVE",
"311 753 CURVE SMOOTH",
"270 753 OFFCURVE",
"261 772 OFFCURVE",
"259 805 CURVE",
"172 791 LINE",
"180 719 OFFCURVE",
"224 678 OFFCURVE",
"311 678 CURVE SMOOTH"
);
},
{
closed = 1;
nodes = (
"338 821 LINE",
"338 855 LINE",
"378 857 OFFCURVE",
"397 877 OFFCURVE",
"397 914 CURVE SMOOTH",
"397 954 OFFCURVE",
"373 975 OFFCURVE",
"323 975 CURVE SMOOTH",
"297 975 OFFCURVE",
"276 971 OFFCURVE",
"253 961 CURVE",
"267 915 LINE",
"280 920 OFFCURVE",
"295 923 OFFCURVE",
"307 923 CURVE SMOOTH",
"323 923 OFFCURVE",
"331 918 OFFCURVE",
"331 908 CURVE SMOOTH",
"331 896 OFFCURVE",
"318 892 OFFCURVE",
"275 892 CURVE",
"275 857 LINE",
"285 821 LINE"
);
}
);
width = 624;
}
);
leftKerningGroup = A;
note = Abrevehookabove;
rightKerningGroup = A;
unicode = 1EB2;
},
{
glyphname = Abrevetilde;
lastChange = "2015-07-19 07:30:04 +0000";
layers = (
{
layerId = "4CE4ED08-6AC3-4BDD-8925-679D298B3381";
name = Bold;
paths = (
{
closed = 1;
nodes = (
"161 61 OFFCURVE",
"178 126 OFFCURVE",
"195 188 CURVE",
"428 188 LINE",
"445 125 OFFCURVE",
"461 61 OFFCURVE",
"477 0 CURVE",
"593 8 LINE",
"540 207 OFFCURVE",
"466 443 OFFCURVE",
"398 618 CURVE",
"226 618 LINE",
"158 443 OFFCURVE",
"84 207 OFFCURVE",
"31 8 CURVE",
"147 0 LINE"
);
},
{
closed = 1;
nodes = (
"249 374 OFFCURVE",
"275 455 OFFCURVE",
"297 516 CURVE",
"328 516 LINE",
"349 455 OFFCURVE",
"374 374 OFFCURVE",
"401 285 CURVE",
"223 285 LINE"
);
},
{
closed = 1;
nodes = (
"399 678 OFFCURVE",
"443 719 OFFCURVE",
"450 791 CURVE",
"363 805 LINE",
"361 772 OFFCURVE",
"352 753 OFFCURVE",
"311 753 CURVE SMOOTH",
"270 753 OFFCURVE",
"261 772 OFFCURVE",
"259 805 CURVE",
"172 791 LINE",
"180 719 OFFCURVE",
"224 678 OFFCURVE",
"311 678 CURVE SMOOTH"
);
},
{
closed = 1;
nodes = (
"242 865 OFFCURVE",
"249 881 OFFCURVE",
"271 881 CURVE SMOOTH",
"301 881 OFFCURVE",
"327 849 OFFCURVE",
"366 849 CURVE SMOOTH",
"414 849 OFFCURVE",
"436 879 OFFCURVE",
"438 935 CURVE",
"385 952 LINE",
"383 930 OFFCURVE",
"376 915 OFFCURVE",
"354 915 CURVE SMOOTH",
"329 915 OFFCURVE",
"298 947 OFFCURVE",
"260 947 CURVE SMOOTH",
"211 947 OFFCURVE",
"189 916 OFFCURVE",
"187 860 CURVE",
"240 845 LINE"
);
}
);
width = 624;
}
);
leftKerningGroup = A;
note = Abrevetilde;
rightKerningGroup = A;
unicode = 1EB4;
},
{
glyphname = Acaron;
lastChange = "2015-07-19 07:30:04 +0000";
layers = (
{
layerId = "4CE4ED08-6AC3-4BDD-8925-679D298B3381";
name = Bold;
paths = (
{
closed = 1;
nodes = (
"161 61 OFFCURVE",
"178 126 OFFCURVE",
"195 188 CURVE",
"428 188 LINE",
"445 125 OFFCURVE",
"461 61 OFFCURVE",
"477 0 CURVE",
"593 8 LINE",
"540 207 OFFCURVE",
"466 443 OFFCURVE",
"398 618 CURVE",
"226 618 LINE",
"158 443 OFFCURVE",
"84 207 OFFCURVE",
"31 8 CURVE",
"147 0 LINE"
);
},
{
closed = 1;
nodes = (
"249 374 OFFCURVE",
"275 455 OFFCURVE",
"297 516 CURVE",
"328 516 LINE",
"349 455 OFFCURVE",
"374 374 OFFCURVE",
"401 285 CURVE",
"223 285 LINE"
);
},
{
closed = 1;
nodes = (
"359 684 LINE",
"456 821 LINE",
"392 833 LINE",
"315 764 LINE",
"309 764 LINE",
"230 833 LINE",
"167 821 LINE",
"265 684 LINE"
);
}
);
width = 624;
}
);
leftKerningGroup = A;
note = Acaron;
rightKerningGroup = A;
unicode = 01CD;
},
{
glyphname = Acircumflex;
lastChange = "2015-07-19 07:30:04 +0000";
layers = (
{
components = (
{
name = A;
}
);
layerId = "4CE4ED08-6AC3-4BDD-8925-679D298B3381";
name = Bold;
paths = (
{
closed = 1;
nodes = (
"309 747 LINE",
"315 747 LINE",
"392 677 LINE",
"456 690 LINE",
"359 827 LINE",
"265 827 LINE",
"167 690 LINE",
"230 677 LINE"
);
}
);
width = 624;
}
);
leftKerningGroup = A;
note = Acircumflex;
rightKerningGroup = A;
unicode = 00C2;
},
{
glyphname = Acircumflexacute;
lastChange = "2015-07-19 07:30:04 +0000";
layers = (
{
layerId = "4CE4ED08-6AC3-4BDD-8925-679D298B3381";
name = Bold;
paths = (
{
closed = 1;
nodes = (
"161 61 OFFCURVE",
"178 126 OFFCURVE",
"195 188 CURVE",
"428 188 LINE",
"445 125 OFFCURVE",
"461 61 OFFCURVE",
"477 0 CURVE",
"593 8 LINE",
"540 207 OFFCURVE",
"466 443 OFFCURVE",
"398 618 CURVE",
"226 618 LINE",
"158 443 OFFCURVE",
"84 207 OFFCURVE",
"31 8 CURVE",
"147 0 LINE"
);
},
{
closed = 1;
nodes = (
"249 374 OFFCURVE",
"275 455 OFFCURVE",
"297 516 CURVE",
"328 516 LINE",
"349 455 OFFCURVE",
"374 374 OFFCURVE",
"401 285 CURVE",
"223 285 LINE"
);
},
{
closed = 1;
nodes = (
"307 747 LINE",
"313 747 LINE",
"389 677 LINE",
"454 690 LINE",
"357 825 LINE",
"263 825 LINE",
"165 690 LINE",
"228 677 LINE"
);
},
{
closed = 1;
nodes = (
"590 877 LINE",
"491 893 LINE",
"430 781 LINE",
"498 766 LINE"
);
}
);
width = 624;
}
);
leftKerningGroup = A;
note = Acircumflexacute;
rightKerningGroup = A;
unicode = 1EA4;
},
{
glyphname = Acircumflexdotbelow;
lastChange = "2015-07-19 07:30:04 +0000";
layers = (
{
layerId = "4CE4ED08-6AC3-4BDD-8925-679D298B3381";
name = Bold;
paths = (
{
closed = 1;
nodes = (
"161 61 OFFCURVE",
"178 126 OFFCURVE",
"195 188 CURVE",
"428 188 LINE",
"445 125 OFFCURVE",
"461 61 OFFCURVE",
"477 0 CURVE",
"593 8 LINE",
"540 207 OFFCURVE",
"466 443 OFFCURVE",
"398 618 CURVE",
"226 618 LINE",
"158 443 OFFCURVE",
"84 207 OFFCURVE",
"31 8 CURVE",
"147 0 LINE"
);
},
{
closed = 1;
nodes = (
"354 -181 OFFCURVE",
"380 -157 OFFCURVE",
"380 -118 CURVE SMOOTH",
"380 -75 OFFCURVE",
"354 -52 OFFCURVE",
"311 -52 CURVE SMOOTH",
"268 -52 OFFCURVE",
"243 -75 OFFCURVE",
"243 -118 CURVE SMOOTH",
"243 -157 OFFCURVE",
"268 -181 OFFCURVE",
"311 -181 CURVE SMOOTH"
);
},
{
closed = 1;
nodes = (
"249 374 OFFCURVE",
"275 455 OFFCURVE",
"297 516 CURVE",
"328 516 LINE",
"349 455 OFFCURVE",
"374 374 OFFCURVE",
"401 285 CURVE",
"223 285 LINE"
);
},
{
closed = 1;
nodes = (
"309 746 LINE",
"315 746 LINE",
"392 677 LINE",
"456 689 LINE",
"359 826 LINE",
"265 826 LINE",
"167 689 LINE",
"230 677 LINE"
);
}
);
width = 624;
}
);
leftKerningGroup = A;
note = Acircumflexdotbelow;
rightKerningGroup = A;
unicode = 1EAC;
},
{
glyphname = Acircumflexgrave;
lastChange = "2015-07-19 07:30:04 +0000";
layers = (
{
layerId = "4CE4ED08-6AC3-4BDD-8925-679D298B3381";
name = Bold;
paths = (
{
closed = 1;
nodes = (
"161 61 OFFCURVE",
"178 126 OFFCURVE",
"195 188 CURVE",
"428 188 LINE",
"445 125 OFFCURVE",
"461 61 OFFCURVE",
"477 0 CURVE",
"593 8 LINE",
"540 207 OFFCURVE",
"466 443 OFFCURVE",
"398 618 CURVE",
"226 618 LINE",
"158 443 OFFCURVE",
"84 207 OFFCURVE",
"31 8 CURVE",
"147 0 LINE"
);
},
{
closed = 1;
nodes = (
"249 374 OFFCURVE",
"275 455 OFFCURVE",
"297 516 CURVE",
"328 516 LINE",
"349 455 OFFCURVE",
"374 374 OFFCURVE",
"401 285 CURVE",
"223 285 LINE"
);
},
{
closed = 1;
nodes = (
"191 781 LINE",
"130 893 LINE",
"31 877 LINE",
"123 766 LINE"
);
},
{
closed = 1;
nodes = (
"307 747 LINE",
"313 747 LINE",
"392 677 LINE",
"455 690 LINE",
"357 825 LINE",
"263 825 LINE",
"166 690 LINE",
"231 677 LINE"
);
}
);
width = 624;
}
);
leftKerningGroup = A;
note = Acircumflexgrave;
rightKerningGroup = A;
unicode = 1EA6;
},
{
glyphname = Acircumflexhookabove;
lastChange = "2015-07-19 07:30:04 +0000";
layers = (
{
layerId = "4CE4ED08-6AC3-4BDD-8925-679D298B3381";
name = Bold;
paths = (
{
closed = 1;
nodes = (
"161 61 OFFCURVE",
"178 126 OFFCURVE",
"195 188 CURVE",
"428 188 LINE",
"445 125 OFFCURVE",
"461 61 OFFCURVE",
"477 0 CURVE",
"593 8 LINE",
"540 207 OFFCURVE",
"466 443 OFFCURVE",
"398 618 CURVE",
"226 618 LINE",
"158 443 OFFCURVE",
"84 207 OFFCURVE",
"31 8 CURVE",
"147 0 LINE"
);
},
{
closed = 1;
nodes = (
"249 374 OFFCURVE",
"275 455 OFFCURVE",
"297 516 CURVE",
"328 516 LINE",
"349 455 OFFCURVE",
"374 374 OFFCURVE",
"401 285 CURVE",
"223 285 LINE"
);
},
{
closed = 1;
nodes = (
"310 747 LINE",
"316 747 LINE",
"393 677 LINE",
"457 690 LINE",
"360 825 LINE",
"266 825 LINE",
"168 690 LINE",
"232 677 LINE"
);
},
{
closed = 1;
nodes = (
"490 784 LINE",
"490 820 LINE",
"530 821 OFFCURVE",
"550 843 OFFCURVE",
"550 879 CURVE SMOOTH",
"550 920 OFFCURVE",
"526 942 OFFCURVE",
"475 942 CURVE SMOOTH",
"449 942 OFFCURVE",
"428 937 OFFCURVE",
"405 928 CURVE",
"419 880 LINE",
"432 885 OFFCURVE",
"447 888 OFFCURVE",
"459 888 CURVE SMOOTH",
"475 888 OFFCURVE",
"483 884 OFFCURVE",
"483 874 CURVE SMOOTH",
"483 861 OFFCURVE",
"470 858 OFFCURVE",
"427 858 CURVE",
"427 822 LINE",
"437 784 LINE"
);
}
);
width = 624;
}
);
leftKerningGroup = A;
note = Acircumflexhookabove;
rightKerningGroup = A;
unicode = 1EA8;
},
{
glyphname = Acircumflextilde;
lastChange = "2015-07-19 07:30:04 +0000";
layers = (
{
layerId = "4CE4ED08-6AC3-4BDD-8925-679D298B3381";
name = Bold;
paths = (
{
closed = 1;
nodes = (
"161 61 OFFCURVE",
"178 126 OFFCURVE",
"195 188 CURVE",
"428 188 LINE",
"445 125 OFFCURVE",
"461 61 OFFCURVE",
"477 0 CURVE",
"593 8 LINE",
"540 207 OFFCURVE",
"466 443 OFFCURVE",
"398 618 CURVE",
"226 618 LINE",
"158 443 OFFCURVE",
"84 207 OFFCURVE",
"31 8 CURVE",
"147 0 LINE"
);
},
{
closed = 1;
nodes = (
"249 374 OFFCURVE",
"275 455 OFFCURVE",
"297 516 CURVE",
"328 516 LINE",
"349 455 OFFCURVE",
"374 374 OFFCURVE",
"401 285 CURVE",
"223 285 LINE"
);
},
{
closed = 1;
nodes = (
"309 746 LINE",
"315 746 LINE",
"392 677 LINE",
"456 689 LINE",
"359 825 LINE",
"265 825 LINE",
"167 689 LINE",
"231 677 LINE"
);
},
{
closed = 1;
nodes = (
"242 885 OFFCURVE",
"249 901 OFFCURVE",
"271 901 CURVE SMOOTH",
"301 901 OFFCURVE",
"327 869 OFFCURVE",
"366 869 CURVE SMOOTH",
"414 869 OFFCURVE",
"436 899 OFFCURVE",
"438 955 CURVE",
"385 972 LINE",
"383 950 OFFCURVE",
"376 935 OFFCURVE",
"354 935 CURVE SMOOTH",
"329 935 OFFCURVE",
"298 967 OFFCURVE",
"260 967 CURVE SMOOTH",
"211 967 OFFCURVE",
"189 936 OFFCURVE",
"187 880 CURVE",
"240 865 LINE"
);
}
);
width = 624;
}
);
leftKerningGroup = A;
note = Acircumflextilde;
rightKerningGroup = A;
unicode = 1EAA;
},
{
glyphname = Adieresis;
lastChange = "2015-07-19 07:30:04 +0000";
layers = (
{
components = (
{
name = A;
}
);
layerId = "4CE4ED08-6AC3-4BDD-8925-679D298B3381";
name = Bold;
paths = (
{
closed = 1;
nodes = (
"430 681 OFFCURVE",
"450 701 OFFCURVE",
"450 734 CURVE SMOOTH",
"450 769 OFFCURVE",
"430 788 OFFCURVE",
"394 788 CURVE SMOOTH",
"358 788 OFFCURVE",
"337 769 OFFCURVE",
"337 734 CURVE SMOOTH",
"337 701 OFFCURVE",
"358 681 OFFCURVE",
"394 681 CURVE SMOOTH"
);
},
{
closed = 1;
nodes = (
"264 681 OFFCURVE",
"285 701 OFFCURVE",
"285 734 CURVE SMOOTH",
"285 769 OFFCURVE",
"264 788 OFFCURVE",
"228 788 CURVE SMOOTH",
"193 788 OFFCURVE",
"172 769 OFFCURVE",
"172 734 CURVE SMOOTH",
"172 701 OFFCURVE",
"193 681 OFFCURVE",
"228 681 CURVE SMOOTH"
);
}
);
width = 624;
}
);
leftKerningGroup = A;
note = Adieresis;
rightKerningGroup = A;
unicode = 00C4;
},
{
glyphname = Adotbelow;
lastChange = "2015-07-19 07:30:04 +0000";
layers = (
{
layerId = "4CE4ED08-6AC3-4BDD-8925-679D298B3381";
name = Bold;
paths = (
{
closed = 1;
nodes = (
"161 61 OFFCURVE",
"178 126 OFFCURVE",
"195 188 CURVE",
"428 188 LINE",
"445 125 OFFCURVE",
"461 61 OFFCURVE",
"477 0 CURVE",
"593 8 LINE",
"540 207 OFFCURVE",
"466 443 OFFCURVE",
"398 618 CURVE",
"226 618 LINE",
"158 443 OFFCURVE",
"84 207 OFFCURVE",
"31 8 CURVE",
"147 0 LINE"
);
},
{
closed = 1;
nodes = (
"354 -183 OFFCURVE",
"380 -159 OFFCURVE",
"380 -120 CURVE SMOOTH",
"380 -77 OFFCURVE",
"354 -53 OFFCURVE",
"311 -53 CURVE SMOOTH",
"268 -53 OFFCURVE",
"243 -77 OFFCURVE",
"243 -120 CURVE SMOOTH",
"243 -159 OFFCURVE",
"268 -183 OFFCURVE",
"311 -183 CURVE SMOOTH"
);
},
{
closed = 1;
nodes = (
"249 374 OFFCURVE",
"275 455 OFFCURVE",
"297 516 CURVE",
"328 516 LINE",
"349 455 OFFCURVE",
"374 374 OFFCURVE",
"401 285 CURVE",
"223 285 LINE"
);
}
);
width = 624;
}
);
leftKerningGroup = A;
note = Adotbelow;
rightKerningGroup = A;
unicode = 1EA0;
},
{
glyphname = Agrave;
lastChange = "2015-07-19 07:30:04 +0000";
layers = (
{
components = (
{
name = A;
}
);
layerId = "4CE4ED08-6AC3-4BDD-8925-679D298B3381";
name = Bold;
paths = (
{
closed = 1;
nodes = (
"364 691 LINE",
"280 840 LINE",
"149 826 LINE",
"277 677 LINE"
);
}
);
width = 624;
}
);
leftKerningGroup = A;
note = Agrave;
rightKerningGroup = A;
unicode = 00C0;
},
{
glyphname = Ahookabove;
lastChange = "2015-07-19 07:30:04 +0000";
layers = (
{
layerId = "4CE4ED08-6AC3-4BDD-8925-679D298B3381";
name = Bold;
paths = (
{
closed = 1;
nodes = (
"161 61 OFFCURVE",
"178 126 OFFCURVE",
"195 188 CURVE",
"428 188 LINE",
"445 125 OFFCURVE",
"461 61 OFFCURVE",
"477 0 CURVE",
"593 8 LINE",
"540 207 OFFCURVE",
"466 443 OFFCURVE",
"398 618 CURVE",
"226 618 LINE",
"158 443 OFFCURVE",
"84 207 OFFCURVE",
"31 8 CURVE",
"147 0 LINE"
);
},
{
closed = 1;
nodes = (
"249 374 OFFCURVE",
"275 455 OFFCURVE",
"297 516 CURVE",
"328 516 LINE",
"349 455 OFFCURVE",
"374 374 OFFCURVE",
"401 285 CURVE",
"223 285 LINE"
);
},
{
closed = 1;
nodes = (
"346 685 LINE",
"346 730 LINE",
"403 732 OFFCURVE",
"440 757 OFFCURVE",
"440 812 CURVE SMOOTH",
"440 863 OFFCURVE",
"404 898 OFFCURVE",
"333 898 CURVE SMOOTH",
"299 898 OFFCURVE",
"267 893 OFFCURVE",
"232 878 CURVE",
"254 819 LINE",
"273 826 OFFCURVE",
"296 830 OFFCURVE",
"314 830 CURVE SMOOTH",
"344 830 OFFCURVE",
"355 825 OFFCURVE",
"355 806 CURVE SMOOTH",
"355 781 OFFCURVE",
"326 780 OFFCURVE",
"265 780 CURVE",
"265 738 LINE",
"281 685 LINE"
);
}
);
width = 624;
}
);
leftKerningGroup = A;
note = Ahookabove;
rightKerningGroup = A;
unicode = 1EA2;
},
{
glyphname = Amacron;
lastChange = "2015-07-19 07:30:04 +0000";
layers = (
{
components = (
{
name = A;
}
);
layerId = "4CE4ED08-6AC3-4BDD-8925-679D298B3381";
name = Bold;
paths = (
{
closed = 1;
nodes = (
"457 684 LINE",
"457 770 LINE",
"166 770 LINE",
"166 684 LINE"
);
}
);
width = 624;
}
);
leftKerningGroup = A;
note = Amacron;
rightKerningGroup = A;
unicode = 0100;
},
{
glyphname = Aogonek;
lastChange = "2015-07-19 07:30:04 +0000";
layers = (
{
layerId = "4CE4ED08-6AC3-4BDD-8925-679D298B3381";
name = Bold;
paths = (
{
closed = 1;
nodes = (
"552 -168 OFFCURVE",
"578 -163 OFFCURVE",
"596 -154 CURVE",
"579 -83 LINE",
"565 -88 OFFCURVE",
"553 -89 OFFCURVE",
"540 -89 CURVE SMOOTH",
"526 -89 OFFCURVE",
"513 -88 OFFCURVE",
"503 -85 CURVE",
"501 -79 OFFCURVE",
"500 -73 OFFCURVE",
"500 -65 CURVE SMOOTH",
"500 -37 OFFCURVE",
"513 -18 OFFCURVE",
"555 5 CURVE",
"593 8 LINE",
"540 207 OFFCURVE",
"466 443 OFFCURVE",
"398 618 CURVE",
"226 618 LINE",
"158 443 OFFCURVE",
"84 207 OFFCURVE",
"31 8 CURVE",
"147 0 LINE",
"161 61 OFFCURVE",
"178 126 OFFCURVE",
"195 188 CURVE",
"428 188 LINE",
"442 129 OFFCURVE",
"457 69 OFFCURVE",
"474 10 CURVE",
"431 -12 OFFCURVE",
"404 -39 OFFCURVE",
"404 -84 CURVE SMOOTH",
"404 -139 OFFCURVE",
"445 -168 OFFCURVE",
"521 -168 CURVE SMOOTH"
);
},
{
closed = 1;
nodes = (
"249 374 OFFCURVE",
"275 455 OFFCURVE",
"297 516 CURVE",
"328 516 LINE",
"349 455 OFFCURVE",
"374 374 OFFCURVE",
"401 285 CURVE",
"223 285 LINE"
);
}
);
width = 627;
}
);
leftKerningGroup = A;
note = Aogonek;
rightKerningGroup = A;
unicode = 0104;
},
{
glyphname = Aring;
lastChange = "2015-07-19 07:30:04 +0000";
layers = (
{
components = (
{
name = A;
}
);
layerId = "4CE4ED08-6AC3-4BDD-8925-679D298B3381";
name = Bold;
paths = (
{
closed = 1;
nodes = (
"386 680 OFFCURVE",
"436 722 OFFCURVE",
"436 780 CURVE SMOOTH",
"436 842 OFFCURVE",
"394 883 OFFCURVE",
"321 883 CURVE SMOOTH",
"229 883 OFFCURVE",
"186 833 OFFCURVE",
"186 778 CURVE SMOOTH",
"186 718 OFFCURVE",
"227 680 OFFCURVE",
"301 680 CURVE SMOOTH"
);
},
{
closed = 1;
nodes = (
"279 742 OFFCURVE",
"262 758 OFFCURVE",
"262 780 CURVE SMOOTH",
"262 793 OFFCURVE",
"263 804 OFFCURVE",
"267 816 CURVE",
"280 820 OFFCURVE",
"295 821 OFFCURVE",
"315 821 CURVE SMOOTH",
"346 821 OFFCURVE",
"361 801 OFFCURVE",
"361 776 CURVE SMOOTH",
"361 766 OFFCURVE",
"359 756 OFFCURVE",
"357 747 CURVE",
"344 743 OFFCURVE",
"328 742 OFFCURVE",
"308 742 CURVE SMOOTH"
);
}
);
width = 624;
}
);
leftKerningGroup = A;
note = Aring;
rightKerningGroup = A;
unicode = 00C5;
},
{
glyphname = Aringacute;
lastChange = "2015-07-19 07:30:04 +0000";
layers = (
{
components = (
{
name = A;
}
);
layerId = "4CE4ED08-6AC3-4BDD-8925-679D298B3381";
name = Bold;
paths = (
{
closed = 1;
nodes = (
"385 672 OFFCURVE",
"435 714 OFFCURVE",
"435 773 CURVE SMOOTH",
"435 835 OFFCURVE",
"393 876 OFFCURVE",
"320 876 CURVE SMOOTH",
"228 876 OFFCURVE",
"185 825 OFFCURVE",
"185 770 CURVE SMOOTH",
"185 710 OFFCURVE",
"226 672 OFFCURVE",
"300 672 CURVE SMOOTH"
);
},
{
closed = 1;
nodes = (
"277 735 OFFCURVE",
"260 751 OFFCURVE",
"260 773 CURVE SMOOTH",
"260 785 OFFCURVE",
"261 796 OFFCURVE",
"265 809 CURVE",
"278 812 OFFCURVE",
"293 813 OFFCURVE",
"313 813 CURVE SMOOTH",
"344 813 OFFCURVE",
"359 794 OFFCURVE",
"359 769 CURVE SMOOTH",
"359 759 OFFCURVE",
"357 749 OFFCURVE",
"355 740 CURVE",
"342 736 OFFCURVE",
"326 735 OFFCURVE",
"306 735 CURVE SMOOTH"
);
},
{
closed = 1;
nodes = (
"462 1075 LINE",
"337 1088 LINE",
"254 935 LINE",
"333 921 LINE"
);
}
);
width = 624;
}
);
leftKerningGroup = A;
note = Aringacute;
rightKerningGroup = A;
unicode = 01FA;
},
{
glyphname = Atilde;
lastChange = "2015-07-19 07:30:04 +0000";
layers = (
{
components = (
{
name = A;
}
);
layerId = "4CE4ED08-6AC3-4BDD-8925-679D298B3381";
name = Bold;
paths = (
{
closed = 1;
nodes = (
"221 702 OFFCURVE",
"229 722 OFFCURVE",
"255 722 CURVE SMOOTH",
"290 722 OFFCURVE",
"321 681 OFFCURVE",
"368 681 CURVE SMOOTH",
"430 681 OFFCURVE",
"454 721 OFFCURVE",
"457 793 CURVE",
"388 814 LINE",
"385 787 OFFCURVE",
"378 767 OFFCURVE",
"351 767 CURVE SMOOTH",
"322 767 OFFCURVE",
"286 808 OFFCURVE",
"241 808 CURVE SMOOTH",
"177 808 OFFCURVE",
"153 768 OFFCURVE",
"150 696 CURVE",
"219 675 LINE"
);
}
);
width = 624;
}
);
leftKerningGroup = A;
note = Atilde;
rightKerningGroup = A;
unicode = 00C3;
},
{
glyphname = AE;
lastChange = "2015-07-19 06:14:33 +0000";
layers = (
{
layerId = "4CE4ED08-6AC3-4BDD-8925-679D298B3381";
name = Bold;
paths = (
{
closed = 1;
nodes = (
"769 -10 OFFCURVE",
"836 -3 OFFCURVE",
"887 11 CURVE",
"868 108 LINE",
"815 96 OFFCURVE",
"754 90 OFFCURVE",
"693 90 CURVE SMOOTH",
"646 90 OFFCURVE",
"608 93 OFFCURVE",
"567 100 CURVE",
"567 259 LINE",
"841 259 LINE",
"841 355 LINE",
"567 355 LINE",
"567 517 LINE",
"878 517 LINE",
"878 618 LINE",
"327 618 LINE",
"217 426 OFFCURVE",
"108 221 OFFCURVE",
"14 26 CURVE",
"118 -2 LINE",
"149 60 OFFCURVE",
"181 125 OFFCURVE",
"213 188 CURVE",
"457 188 LINE",
"457 103 LINE SMOOTH",
"457 13 OFFCURVE",
"557 -10 OFFCURVE",
"689 -10 CURVE SMOOTH"
);
},
{
closed = 1;
nodes = (
"308 370 OFFCURVE",
"350 448 OFFCURVE",
"388 513 CURVE",
"457 513 LINE",
"457 287 LINE",
"264 287 LINE"
);
}
);
width = 942;
}
);
note = AE;
unicode = 00C6;
},
{
glyphname = AEacute;
lastChange = "2015-07-19 06:14:35 +0000";
layers = (
{
layerId = "4CE4ED08-6AC3-4BDD-8925-679D298B3381";
name = Bold;
paths = (
{
closed = 1;
nodes = (
"769 -10 OFFCURVE",
"836 -3 OFFCURVE",
"887 11 CURVE",
"868 108 LINE",
"815 96 OFFCURVE",
"754 90 OFFCURVE",
"693 90 CURVE SMOOTH",
"646 90 OFFCURVE",
"608 93 OFFCURVE",
"567 100 CURVE",
"567 259 LINE",
"841 259 LINE",
"841 355 LINE",
"567 355 LINE",
"567 517 LINE",
"878 517 LINE",
"878 618 LINE",
"327 618 LINE",
"217 426 OFFCURVE",
"108 221 OFFCURVE",
"14 26 CURVE",
"118 -2 LINE",
"149 60 OFFCURVE",
"181 125 OFFCURVE",
"213 188 CURVE",
"457 188 LINE",
"457 103 LINE SMOOTH",
"457 13 OFFCURVE",
"557 -10 OFFCURVE",
"689 -10 CURVE SMOOTH"
);
},
{
closed = 1;
nodes = (
"308 370 OFFCURVE",
"350 448 OFFCURVE",
"388 513 CURVE",
"457 513 LINE",
"457 287 LINE",
"264 287 LINE"
);
},
{
closed = 1;
nodes = (
"706 831 LINE",
"581 844 LINE",
"498 691 LINE",
"577 677 LINE"
);
}
);
width = 942;
}
);
note = AEacute;
unicode = 01FC;
},
{
glyphname = B;
lastChange = "2015-07-19 04:35:37 +0000";
layers = (
{
layerId = "4CE4ED08-6AC3-4BDD-8925-679D298B3381";
name = Bold;
paths = (
{
closed = 1;
nodes = (
"263 0 LINE SMOOTH",
"461 0 OFFCURVE",
"521 60 OFFCURVE",
"521 174 CURVE SMOOTH",
"521 241 OFFCURVE",
"488 288 OFFCURVE",
"408 311 CURVE",
"408 317 LINE",
"466 348 OFFCURVE",
"491 389 OFFCURVE",
"491 450 CURVE SMOOTH",
"491 572 OFFCURVE",
"408 626 OFFCURVE",
"251 626 CURVE SMOOTH",
"184 626 OFFCURVE",
"126 616 OFFCURVE",
"71 599 CURVE",
"71 0 LINE"
);
},
{
closed = 1;
nodes = (
"180 260 LINE",
"302 260 LINE SMOOTH",
"380 260 OFFCURVE",
"412 230 OFFCURVE",
"412 177 CURVE SMOOTH",
"412 118 OFFCURVE",
"378 95 OFFCURVE",
"261 95 CURVE SMOOTH",
"180 95 LINE"
);
},
{
closed = 1;
nodes = (
"180 523 LINE",
"202 528 OFFCURVE",
"225 531 OFFCURVE",
"251 531 CURVE SMOOTH",
"342 531 OFFCURVE",
"382 510 OFFCURVE",
"382 442 CURVE SMOOTH",
"382 407 OFFCURVE",
"370 379 OFFCURVE",
"346 354 CURVE",
"180 354 LINE"
);
}
);
width = 562;
}
);
note = B;
unicode = 0042;
},
{
glyphname = C;
lastChange = "2015-07-19 04:35:36 +0000";
layers = (
{
layerId = "4CE4ED08-6AC3-4BDD-8925-679D298B3381";
name = Bold;
paths = (
{
closed = 1;
nodes = (
"427 -9 OFFCURVE",
"502 14 OFFCURVE",
"552 53 CURVE",
"506 138 LINE",
"466 110 OFFCURVE",
"404 93 OFFCURVE",
"336 93 CURVE SMOOTH",
"208 93 OFFCURVE",
"160 154 OFFCURVE",
"160 296 CURVE SMOOTH",
"160 377 OFFCURVE",
"174 453 OFFCURVE",
"202 513 CURVE",
"243 522 OFFCURVE",
"279 526 OFFCURVE",
"317 526 CURVE SMOOTH",
"356 526 OFFCURVE",
"392 523 OFFCURVE",
"417 517 CURVE",
"427 440 LINE",
"511 440 LINE",
"519 464 OFFCURVE",
"524 502 OFFCURVE",
"524 534 CURVE SMOOTH",
"524 584 LINE",
"484 608 OFFCURVE",
"407 628 OFFCURVE",
"323 628 CURVE SMOOTH",
"136 628 OFFCURVE",
"50 487 OFFCURVE",
"50 290 CURVE SMOOTH",
"50 93 OFFCURVE",
"143 -9 OFFCURVE",
"331 -9 CURVE SMOOTH"
);
}
);
width = 590;
}
);
note = C;
unicode = 0043;
},
{
glyphname = Cacute;
lastChange = "2015-07-19 04:35:37 +0000";
layers = (
{
layerId = "4CE4ED08-6AC3-4BDD-8925-679D298B3381";
name = Bold;
paths = (
{
closed = 1;
nodes = (
"427 -9 OFFCURVE",
"502 14 OFFCURVE",
"552 53 CURVE",
"506 138 LINE",
"466 110 OFFCURVE",
"404 93 OFFCURVE",
"336 93 CURVE SMOOTH",
"208 93 OFFCURVE",
"160 154 OFFCURVE",
"160 296 CURVE SMOOTH",
"160 377 OFFCURVE",
"174 453 OFFCURVE",
"202 513 CURVE",
"243 522 OFFCURVE",
"279 526 OFFCURVE",
"317 526 CURVE SMOOTH",
"356 526 OFFCURVE",
"392 523 OFFCURVE",
"417 517 CURVE",
"427 440 LINE",
"511 440 LINE",
"519 464 OFFCURVE",
"524 502 OFFCURVE",
"524 534 CURVE SMOOTH",
"524 584 LINE",
"484 608 OFFCURVE",
"407 628 OFFCURVE",
"323 628 CURVE SMOOTH",
"136 628 OFFCURVE",
"50 487 OFFCURVE",
"50 290 CURVE SMOOTH",
"50 93 OFFCURVE",
"143 -9 OFFCURVE",
"331 -9 CURVE SMOOTH"
);
},
{
closed = 1;
nodes = (
"483 832 LINE",
"358 844 LINE",
"275 692 LINE",
"354 678 LINE"
);
}
);
width = 590;
}
);
note = Cacute;
unicode = 0106;
},
{
glyphname = Ccaron;
lastChange = "2015-07-19 06:21:58 +0000";
layers = (
{
layerId = "4CE4ED08-6AC3-4BDD-8925-679D298B3381";
name = Bold;
paths = (
{
closed = 1;
nodes = (
"427 -9 OFFCURVE",
"502 14 OFFCURVE",
"552 53 CURVE",
"506 138 LINE",
"466 110 OFFCURVE",
"404 93 OFFCURVE",
"336 93 CURVE SMOOTH",
"208 93 OFFCURVE",
"160 154 OFFCURVE",
"160 296 CURVE SMOOTH",
"160 377 OFFCURVE",
"174 453 OFFCURVE",
"202 513 CURVE",
"243 522 OFFCURVE",
"279 526 OFFCURVE",
"317 526 CURVE SMOOTH",
"356 526 OFFCURVE",
"392 523 OFFCURVE",
"417 517 CURVE",
"427 440 LINE",
"511 440 LINE",
"519 464 OFFCURVE",
"524 502 OFFCURVE",
"524 534 CURVE SMOOTH",
"524 584 LINE",
"484 608 OFFCURVE",
"407 628 OFFCURVE",
"323 628 CURVE SMOOTH",
"136 628 OFFCURVE",
"50 487 OFFCURVE",
"50 290 CURVE SMOOTH",
"50 93 OFFCURVE",
"143 -9 OFFCURVE",
"331 -9 CURVE SMOOTH"
);
},
{
closed = 1;
nodes = (
"370 684 LINE",
"467 821 LINE",
"403 833 LINE",
"326 764 LINE",
"320 764 LINE",
"241 833 LINE",
"178 821 LINE",
"276 684 LINE"
);
}
);
width = 590;
}
);
note = Ccaron;
unicode = 010C;
},
{
glyphname = Ccedilla;
lastChange = "2015-07-19 04:35:36 +0000";
layers = (
{
layerId = "4CE4ED08-6AC3-4BDD-8925-679D298B3381";
name = Bold;
paths = (
{
closed = 1;
nodes = (
"401 -229 OFFCURVE",
"438 -193 OFFCURVE",
"438 -130 CURVE SMOOTH",
"438 -78 OFFCURVE",
"412 -45 OFFCURVE",
"357 -45 CURVE SMOOTH",
"341 -45 OFFCURVE",
"329 -47 OFFCURVE",
"318 -52 CURVE",
"349 -9 LINE",
"368 -8 OFFCURVE",
"385 -7 OFFCURVE",
"402 -4 CURVE SMOOTH",
"463 5 OFFCURVE",
"515 24 OFFCURVE",
"552 53 CURVE",
"506 138 LINE",
"466 110 OFFCURVE",
"404 93 OFFCURVE",
"336 93 CURVE SMOOTH",
"208 93 OFFCURVE",
"160 154 OFFCURVE",
"160 296 CURVE SMOOTH",
"160 377 OFFCURVE",
"174 453 OFFCURVE",
"202 513 CURVE",
"243 522 OFFCURVE",
"279 526 OFFCURVE",
"317 526 CURVE SMOOTH",
"356 526 OFFCURVE",
"392 523 OFFCURVE",
"417 517 CURVE",
"427 440 LINE",
"511 440 LINE",
"519 464 OFFCURVE",
"524 502 OFFCURVE",
"524 534 CURVE SMOOTH",
"524 584 LINE",
"484 608 OFFCURVE",
"407 628 OFFCURVE",
"323 628 CURVE SMOOTH",
"136 628 OFFCURVE",
"50 487 OFFCURVE",
"50 290 CURVE SMOOTH",
"50 115 OFFCURVE",
"122 15 OFFCURVE",
"270 -4 CURVE",
"215 -68 LINE",
"261 -115 LINE",
"271 -110 OFFCURVE",
"287 -107 OFFCURVE",
"302 -107 CURVE SMOOTH",
"329 -107 OFFCURVE",
"345 -114 OFFCURVE",
"345 -133 CURVE SMOOTH",
"345 -142 OFFCURVE",
"344 -148 OFFCURVE",
"341 -155 CURVE",
"328 -158 OFFCURVE",
"317 -158 OFFCURVE",
"300 -158 CURVE SMOOTH",
"279 -158 OFFCURVE",
"253 -154 OFFCURVE",
"234 -146 CURVE",
"212 -210 LINE",
"244 -225 OFFCURVE",
"279 -229 OFFCURVE",
"314 -229 CURVE SMOOTH"
);
}
);
width = 590;
}
);
note = Ccedilla;
unicode = 00C7;
},
{
glyphname = Ccircumflex;
lastChange = "2015-07-19 04:35:37 +0000";
layers = (
{
layerId = "4CE4ED08-6AC3-4BDD-8925-679D298B3381";
name = Bold;
paths = (
{
closed = 1;
nodes = (
"427 -9 OFFCURVE",
"502 14 OFFCURVE",
"552 53 CURVE",
"506 138 LINE",
"466 110 OFFCURVE",
"404 93 OFFCURVE",
"336 93 CURVE SMOOTH",
"208 93 OFFCURVE",
"160 154 OFFCURVE",
"160 296 CURVE SMOOTH",
"160 377 OFFCURVE",
"174 453 OFFCURVE",
"202 513 CURVE",
"243 522 OFFCURVE",
"279 526 OFFCURVE",
"317 526 CURVE SMOOTH",
"356 526 OFFCURVE",
"392 523 OFFCURVE",
"417 517 CURVE",
"427 440 LINE",
"511 440 LINE",
"519 464 OFFCURVE",
"524 502 OFFCURVE",
"524 534 CURVE SMOOTH",
"524 584 LINE",
"484 608 OFFCURVE",
"407 628 OFFCURVE",
"323 628 CURVE SMOOTH",
"136 628 OFFCURVE",
"50 487 OFFCURVE",
"50 290 CURVE SMOOTH",
"50 93 OFFCURVE",
"143 -9 OFFCURVE",
"331 -9 CURVE SMOOTH"
);
},
{
closed = 1;
nodes = (
"326 746 LINE",
"332 746 LINE",
"409 677 LINE",
"473 689 LINE",
"376 826 LINE",
"282 826 LINE",
"184 689 LINE",
"247 677 LINE"
);
}
);
width = 590;
}
);
note = Ccircumflex;
unicode = 0108;
},
{
glyphname = Cdotaccent;
lastChange = "2015-07-19 04:35:37 +0000";
layers = (
{
layerId = "4CE4ED08-6AC3-4BDD-8925-679D298B3381";
name = Bold;
paths = (
{
closed = 1;
nodes = (
"427 -9 OFFCURVE",
"502 14 OFFCURVE",
"552 53 CURVE",
"506 138 LINE",
"466 110 OFFCURVE",
"404 93 OFFCURVE",
"336 93 CURVE SMOOTH",
"208 93 OFFCURVE",
"160 154 OFFCURVE",
"160 296 CURVE SMOOTH",
"160 377 OFFCURVE",
"174 453 OFFCURVE",
"202 513 CURVE",
"243 522 OFFCURVE",
"279 526 OFFCURVE",
"317 526 CURVE SMOOTH",
"356 526 OFFCURVE",
"392 523 OFFCURVE",
"417 517 CURVE",
"427 440 LINE",
"511 440 LINE",
"519 464 OFFCURVE",
"524 502 OFFCURVE",
"524 534 CURVE SMOOTH",
"524 584 LINE",
"484 608 OFFCURVE",
"407 628 OFFCURVE",
"323 628 CURVE SMOOTH",
"136 628 OFFCURVE",
"50 487 OFFCURVE",
"50 290 CURVE SMOOTH",
"50 93 OFFCURVE",
"143 -9 OFFCURVE",
"331 -9 CURVE SMOOTH"
);
},
{
closed = 1;
nodes = (
"368 681 OFFCURVE",
"394 705 OFFCURVE",
"394 745 CURVE SMOOTH",
"394 787 OFFCURVE",
"368 811 OFFCURVE",
"325 811 CURVE SMOOTH",
"282 811 OFFCURVE",
"257 787 OFFCURVE",
"257 745 CURVE SMOOTH",
"257 705 OFFCURVE",
"282 681 OFFCURVE",
"325 681 CURVE SMOOTH"
);
}
);
width = 590;
}
);
note = Cdotaccent;
unicode = 010A;
},
{
glyphname = D;
lastChange = "2015-07-19 04:35:37 +0000";
layers = (
{
layerId = "4CE4ED08-6AC3-4BDD-8925-679D298B3381";
name = Bold;
paths = (
{
closed = 1;
nodes = (
"227 0 LINE SMOOTH",
"495 0 OFFCURVE",
"560 122 OFFCURVE",
"560 318 CURVE SMOOTH",
"560 510 OFFCURVE",
"485 628 OFFCURVE",
"263 628 CURVE SMOOTH",
"197 628 OFFCURVE",
"126 620 OFFCURVE",
"71 606 CURVE",
"71 0 LINE"
);
},
{
closed = 1;
nodes = (
"180 521 LINE",
"210 525 OFFCURVE",
"235 527 OFFCURVE",
"265 527 CURVE SMOOTH",
"406 527 OFFCURVE",
"450 461 OFFCURVE",
"450 307 CURVE SMOOTH",
"450 236 OFFCURVE",
"439 167 OFFCURVE",
"421 122 CURVE",
"369 107 OFFCURVE",
"310 101 OFFCURVE",
"236 101 CURVE SMOOTH",
"180 101 LINE"
);
}
);
width = 603;
}
);
note = D;
unicode = 0044;
},
{
glyphname = Eth;
lastChange = "2015-07-19 04:35:37 +0000";
layers = (
{
layerId = "4CE4ED08-6AC3-4BDD-8925-679D298B3381";
name = Bold;
paths = (
{
closed = 1;
nodes = (
"287 0 LINE SMOOTH",
"555 0 OFFCURVE",
"621 122 OFFCURVE",
"621 318 CURVE SMOOTH",
"621 510 OFFCURVE",
"545 628 OFFCURVE",
"323 628 CURVE SMOOTH",
"257 628 OFFCURVE",
"187 620 OFFCURVE",
"131 606 CURVE",
"131 366 LINE",
"53 366 LINE",
"53 278 LINE",
"131 278 LINE",
"131 0 LINE"
);
},
{
closed = 1;
nodes = (
"240 278 LINE",
"332 278 LINE",
"332 366 LINE",
"240 366 LINE",
"240 521 LINE",
"270 525 OFFCURVE",
"295 527 OFFCURVE",
"325 527 CURVE SMOOTH",
"466 527 OFFCURVE",
"510 461 OFFCURVE",
"510 307 CURVE SMOOTH",
"510 236 OFFCURVE",
"499 167 OFFCURVE",
"481 122 CURVE",
"429 107 OFFCURVE",
"370 101 OFFCURVE",
"296 101 CURVE SMOOTH",
"240 101 LINE"
);
}
);
width = 663;
}
);
note = Eth;
unicode = 00D0;
},
{
glyphname = Dcaron;
lastChange = "2015-07-19 04:35:37 +0000";
layers = (
{
layerId = "4CE4ED08-6AC3-4BDD-8925-679D298B3381";
name = Bold;
paths = (
{
closed = 1;
nodes = (
"227 0 LINE SMOOTH",
"495 0 OFFCURVE",
"560 122 OFFCURVE",
"560 318 CURVE SMOOTH",
"560 510 OFFCURVE",
"485 628 OFFCURVE",
"263 628 CURVE SMOOTH",
"197 628 OFFCURVE",
"126 620 OFFCURVE",
"71 606 CURVE",
"71 0 LINE"
);
},
{
closed = 1;
nodes = (
"180 521 LINE",
"210 525 OFFCURVE",
"235 527 OFFCURVE",
"265 527 CURVE SMOOTH",
"406 527 OFFCURVE",
"450 461 OFFCURVE",
"450 307 CURVE SMOOTH",
"450 236 OFFCURVE",
"439 167 OFFCURVE",
"421 122 CURVE",
"369 107 OFFCURVE",
"310 101 OFFCURVE",
"236 101 CURVE SMOOTH",
"180 101 LINE"
);
},
{
closed = 1;
nodes = (
"343 684 LINE",
"440 821 LINE",
"376 833 LINE",
"299 764 LINE",
"293 764 LINE",
"214 833 LINE",
"151 821 LINE",
"249 684 LINE"
);
}
);
width = 603;
}
);
note = Dcaron;
unicode = 010E;
},
{
glyphname = Dcroat;
lastChange = "2015-07-19 04:35:37 +0000";
layers = (
{
layerId = "4CE4ED08-6AC3-4BDD-8925-679D298B3381";
name = Bold;
paths = (
{
closed = 1;
nodes = (
"278 0 LINE SMOOTH",
"546 0 OFFCURVE",
"611 122 OFFCURVE",
"611 318 CURVE SMOOTH",
"611 510 OFFCURVE",
"536 628 OFFCURVE",
"314 628 CURVE SMOOTH",
"248 628 OFFCURVE",
"177 620 OFFCURVE",
"122 606 CURVE",
"122 354 LINE",
"41 354 LINE",
"41 256 LINE",
"122 256 LINE",
"122 0 LINE"
);
},
{
closed = 1;
nodes = (
"231 256 LINE",
"328 256 LINE",
"328 354 LINE",
"231 354 LINE",
"231 521 LINE",
"261 525 OFFCURVE",
"286 527 OFFCURVE",
"316 527 CURVE SMOOTH",
"457 527 OFFCURVE",
"501 461 OFFCURVE",
"501 307 CURVE SMOOTH",
"501 236 OFFCURVE",
"490 167 OFFCURVE",
"472 122 CURVE",
"420 107 OFFCURVE",
"361 101 OFFCURVE",
"287 101 CURVE SMOOTH",
"231 101 LINE"
);
}
);
width = 654;
}
);
note = Dcroat;
unicode = 0110;
},
{
glyphname = Ddotbelow;
lastChange = "2015-07-19 04:35:37 +0000";
layers = (
{
layerId = "4CE4ED08-6AC3-4BDD-8925-679D298B3381";
name = Bold;
paths = (
{
closed = 1;
nodes = (
"227 0 LINE SMOOTH",
"495 0 OFFCURVE",
"560 122 OFFCURVE",
"560 318 CURVE SMOOTH",
"560 510 OFFCURVE",
"485 628 OFFCURVE",
"263 628 CURVE SMOOTH",
"197 628 OFFCURVE",
"126 620 OFFCURVE",
"71 606 CURVE",
"71 0 LINE"
);
},
{
closed = 1;
nodes = (
"341 -181 OFFCURVE",
"367 -157 OFFCURVE",
"367 -118 CURVE SMOOTH",
"367 -75 OFFCURVE",
"341 -52 OFFCURVE",
"298 -52 CURVE SMOOTH",
"255 -52 OFFCURVE",
"230 -75 OFFCURVE",
"230 -118 CURVE SMOOTH",
"230 -157 OFFCURVE",
"255 -181 OFFCURVE",
"298 -181 CURVE SMOOTH"
);
},
{
closed = 1;
nodes = (
"180 521 LINE",
"210 525 OFFCURVE",
"235 527 OFFCURVE",
"265 527 CURVE SMOOTH",
"406 527 OFFCURVE",
"450 461 OFFCURVE",
"450 307 CURVE SMOOTH",
"450 236 OFFCURVE",
"439 167 OFFCURVE",
"421 122 CURVE",
"369 107 OFFCURVE",
"310 101 OFFCURVE",
"236 101 CURVE SMOOTH",
"180 101 LINE"
);
}
);
width = 603;
}
);
note = Ddotbelow;
unicode = 1E0C;
},
{
glyphname = Dlinebelow;
lastChange = "2015-07-19 06:22:22 +0000";
layers = (
{
layerId = "4CE4ED08-6AC3-4BDD-8925-679D298B3381";
name = Bold;
paths = (
{
closed = 1;
nodes = (
"228 0 LINE SMOOTH",
"496 0 OFFCURVE",
"561 122 OFFCURVE",
"561 318 CURVE SMOOTH",
"561 510 OFFCURVE",
"486 628 OFFCURVE",
"264 628 CURVE SMOOTH",
"198 628 OFFCURVE",
"127 620 OFFCURVE",
"72 606 CURVE",
"72 0 LINE"
);
},
{
closed = 1;
nodes = (
"401 -145 LINE",
"401 -55 LINE",
"71 -55 LINE",
"71 -145 LINE"
);
},
{
closed = 1;
nodes = (
"181 521 LINE",
"211 525 OFFCURVE",
"236 527 OFFCURVE",
"266 527 CURVE SMOOTH",
"407 527 OFFCURVE",
"451 461 OFFCURVE",
"451 307 CURVE SMOOTH",
"451 236 OFFCURVE",
"440 167 OFFCURVE",
"422 122 CURVE",
"370 107 OFFCURVE",
"311 101 OFFCURVE",
"237 101 CURVE SMOOTH",
"181 101 LINE"
);
}
);
width = 604;
}
);
note = Dlinebelow;
unicode = 1E0E;
},
{
glyphname = E;
lastChange = "2015-07-19 06:22:46 +0000";
layers = (
{
layerId = "4CE4ED08-6AC3-4BDD-8925-679D298B3381";
name = Bold;
paths = (
{
closed = 1;
nodes = (
"383 -9 OFFCURVE",
"449 -2 OFFCURVE",
"500 13 CURVE",
"481 110 LINE",
"429 97 OFFCURVE",
"367 91 OFFCURVE",
"306 91 CURVE SMOOTH",
"260 91 OFFCURVE",
"222 94 OFFCURVE",
"180 101 CURVE",
"180 259 LINE",
"454 259 LINE",
"454 355 LINE",
"180 355 LINE",
"180 517 LINE",
"492 517 LINE",
"492 618 LINE",
"71 618 LINE",
"71 104 LINE SMOOTH",
"71 14 OFFCURVE",
"170 -9 OFFCURVE",
"303 -9 CURVE SMOOTH"
);
}
);
width = 555;
}
);
note = E;
unicode = 0045;
},
{
glyphname = Eacute;
lastChange = "2015-07-19 04:35:37 +0000";
layers = (
{
layerId = "4CE4ED08-6AC3-4BDD-8925-679D298B3381";
name = Bold;
paths = (
{
closed = 1;
nodes = (
"383 -9 OFFCURVE",
"449 -2 OFFCURVE",
"500 13 CURVE",
"481 110 LINE",
"429 97 OFFCURVE",
"367 91 OFFCURVE",
"306 91 CURVE SMOOTH",
"260 91 OFFCURVE",
"222 94 OFFCURVE",
"180 101 CURVE",
"180 259 LINE",
"454 259 LINE",
"454 355 LINE",
"180 355 LINE",
"180 517 LINE",
"492 517 LINE",
"492 618 LINE",
"71 618 LINE",
"71 104 LINE SMOOTH",
"71 14 OFFCURVE",
"170 -9 OFFCURVE",
"303 -9 CURVE SMOOTH"
);
},
{
closed = 1;
nodes = (
"434 831 LINE",
"309 844 LINE",
"226 692 LINE",
"305 678 LINE"
);
}
);
width = 555;
}
);
note = Eacute;
unicode = 00C9;
},
{
glyphname = Ebreve;
lastChange = "2015-07-19 04:35:38 +0000";
layers = (
{
layerId = "4CE4ED08-6AC3-4BDD-8925-679D298B3381";
name = Bold;
paths = (
{
closed = 1;
nodes = (
"383 -9 OFFCURVE",
"449 -2 OFFCURVE",
"500 13 CURVE",
"481 110 LINE",
"429 97 OFFCURVE",
"367 91 OFFCURVE",
"306 91 CURVE SMOOTH",
"260 91 OFFCURVE",
"222 94 OFFCURVE",
"180 101 CURVE",
"180 259 LINE",
"454 259 LINE",
"454 355 LINE",
"180 355 LINE",
"180 517 LINE",
"492 517 LINE",
"492 618 LINE",
"71 618 LINE",
"71 104 LINE SMOOTH",
"71 14 OFFCURVE",
"170 -9 OFFCURVE",
"303 -9 CURVE SMOOTH"
);
},
{
closed = 1;
nodes = (
"388 681 OFFCURVE",
"431 726 OFFCURVE",
"439 805 CURVE",
"343 820 LINE",
"341 785 OFFCURVE",
"331 765 OFFCURVE",
"293 765 CURVE SMOOTH",
"255 765 OFFCURVE",
"245 785 OFFCURVE",
"243 820 CURVE",
"147 805 LINE",
"155 726 OFFCURVE",
"198 681 OFFCURVE",
"293 681 CURVE SMOOTH"
);
}
);
width = 555;
}
);
note = Ebreve;
unicode = 0114;
},
{
glyphname = Ecaron;
lastChange = "2015-07-19 04:35:37 +0000";
layers = (
{
layerId = "4CE4ED08-6AC3-4BDD-8925-679D298B3381";
name = Bold;
paths = (
{
closed = 1;
nodes = (
"383 -9 OFFCURVE",
"449 -2 OFFCURVE",
"500 13 CURVE",
"481 110 LINE",
"429 97 OFFCURVE",
"367 91 OFFCURVE",
"306 91 CURVE SMOOTH",
"260 91 OFFCURVE",
"222 94 OFFCURVE",
"180 101 CURVE",
"180 259 LINE",
"454 259 LINE",
"454 355 LINE",
"180 355 LINE",
"180 517 LINE",
"492 517 LINE",
"492 618 LINE",
"71 618 LINE",
"71 104 LINE SMOOTH",
"71 14 OFFCURVE",
"170 -9 OFFCURVE",
"303 -9 CURVE SMOOTH"
);
},
{
closed = 1;
nodes = (
"339 684 LINE",
"436 821 LINE",
"372 833 LINE",
"295 764 LINE",
"289 764 LINE",
"210 833 LINE",
"147 821 LINE",
"245 684 LINE"
);
}
);
width = 555;
}
);
note = Ecaron;
unicode = 011A;
},
{
glyphname = Ecircumflex;
lastChange = "2015-07-19 04:35:37 +0000";
layers = (
{
layerId = "4CE4ED08-6AC3-4BDD-8925-679D298B3381";
name = Bold;
paths = (
{
closed = 1;
nodes = (
"383 -9 OFFCURVE",
"449 -2 OFFCURVE",
"500 13 CURVE",
"481 110 LINE",
"429 97 OFFCURVE",
"367 91 OFFCURVE",
"306 91 CURVE SMOOTH",
"260 91 OFFCURVE",
"222 94 OFFCURVE",
"180 101 CURVE",
"180 259 LINE",
"454 259 LINE",
"454 355 LINE",
"180 355 LINE",
"180 517 LINE",
"492 517 LINE",
"492 618 LINE",
"71 618 LINE",
"71 104 LINE SMOOTH",
"71 14 OFFCURVE",
"170 -9 OFFCURVE",
"303 -9 CURVE SMOOTH"
);
},
{
closed = 1;
nodes = (
"277 746 LINE",
"283 746 LINE",
"360 677 LINE",
"424 689 LINE",
"327 826 LINE",
"233 826 LINE",
"135 689 LINE",
"198 677 LINE"
);
}
);
width = 555;
}
);
note = Ecircumflex;
unicode = 00CA;
},
{
glyphname = Ecircumflexacute;
lastChange = "2015-07-19 06:23:54 +0000";
layers = (
{
layerId = "4CE4ED08-6AC3-4BDD-8925-679D298B3381";
name = Bold;
paths = (
{
closed = 1;
nodes = (
"383 -9 OFFCURVE",
"449 -2 OFFCURVE",
"500 13 CURVE",
"481 110 LINE",
"429 97 OFFCURVE",
"367 91 OFFCURVE",
"306 91 CURVE SMOOTH",
"260 91 OFFCURVE",
"222 94 OFFCURVE",
"180 101 CURVE",
"180 259 LINE",
"454 259 LINE",
"454 355 LINE",
"180 355 LINE",
"180 517 LINE",
"492 517 LINE",
"492 618 LINE",
"71 618 LINE",
"71 104 LINE SMOOTH",
"71 14 OFFCURVE",
"170 -9 OFFCURVE",
"303 -9 CURVE SMOOTH"
);
},
{
closed = 1;
nodes = (
"279 747 LINE",
"285 747 LINE",
"361 677 LINE",
"426 690 LINE",
"329 825 LINE",
"235 825 LINE",
"137 690 LINE",
"200 677 LINE"
);
},
{
closed = 1;
nodes = (
"562 877 LINE",
"463 893 LINE",
"402 781 LINE",
"470 766 LINE"
);
}
);
width = 554;
}
);
note = Ecircumflexacute;
unicode = 1EBE;
},
{
glyphname = Ecircumflexdotbelow;
lastChange = "2015-07-19 06:24:03 +0000";
layers = (
{
layerId = "4CE4ED08-6AC3-4BDD-8925-679D298B3381";
name = Bold;
paths = (
{
closed = 1;
nodes = (
"383 -9 OFFCURVE",
"449 -2 OFFCURVE",
"500 13 CURVE",
"481 110 LINE",
"429 97 OFFCURVE",
"367 91 OFFCURVE",
"306 91 CURVE SMOOTH",
"260 91 OFFCURVE",
"222 94 OFFCURVE",
"180 101 CURVE",
"180 259 LINE",
"454 259 LINE",
"454 355 LINE",
"180 355 LINE",
"180 517 LINE",
"492 517 LINE",
"492 618 LINE",
"71 618 LINE",
"71 104 LINE SMOOTH",
"71 14 OFFCURVE",
"170 -9 OFFCURVE",
"303 -9 CURVE SMOOTH"
);
},
{
closed = 1;
nodes = (
"338 -183 OFFCURVE",
"364 -159 OFFCURVE",
"364 -120 CURVE SMOOTH",
"364 -77 OFFCURVE",
"338 -53 OFFCURVE",
"295 -53 CURVE SMOOTH",
"252 -53 OFFCURVE",
"227 -77 OFFCURVE",
"227 -120 CURVE SMOOTH",
"227 -159 OFFCURVE",
"252 -183 OFFCURVE",
"295 -183 CURVE SMOOTH"
);
},
{
closed = 1;
nodes = (
"291 747 LINE",
"297 747 LINE",
"374 677 LINE",
"438 690 LINE",
"341 827 LINE",
"247 827 LINE",
"149 690 LINE",
"212 677 LINE"
);
}
);
width = 555;
}
);
note = Ecircumflexdotbelow;
unicode = 1EC6;
},
{
glyphname = Ecircumflexgrave;
lastChange = "2015-07-19 06:24:28 +0000";
layers = (
{
layerId = "4CE4ED08-6AC3-4BDD-8925-679D298B3381";
name = Bold;
paths = (
{
closed = 1;
nodes = (
"170 781 LINE",
"109 893 LINE",
"10 877 LINE",
"102 766 LINE"
);
},
{
closed = 1;
nodes = (
"287 747 LINE",
"293 747 LINE",
"372 677 LINE",
"435 690 LINE",
"337 825 LINE",
"243 825 LINE",
"146 690 LINE",
"211 677 LINE"
);
},
{
closed = 1;
nodes = (
"383 -9 OFFCURVE",
"449 -2 OFFCURVE",
"500 13 CURVE",
"481 110 LINE",
"429 97 OFFCURVE",
"367 91 OFFCURVE",
"306 91 CURVE SMOOTH",
"260 91 OFFCURVE",
"222 94 OFFCURVE",
"180 101 CURVE",
"180 259 LINE",
"454 259 LINE",
"454 355 LINE",
"180 355 LINE",
"180 517 LINE",
"492 517 LINE",
"492 618 LINE",
"71 618 LINE",
"71 104 LINE SMOOTH",
"71 14 OFFCURVE",
"170 -9 OFFCURVE",
"303 -9 CURVE SMOOTH"
);
}
);
width = 555;
}
);
note = Ecircumflexgrave;
unicode = 1EC0;
},
{
glyphname = Ecircumflexhookabove;
lastChange = "2015-07-19 06:24:43 +0000";
layers = (
{
layerId = "4CE4ED08-6AC3-4BDD-8925-679D298B3381";
name = Bold;
paths = (
{
closed = 1;
nodes = (
"383 -9 OFFCURVE",
"449 -2 OFFCURVE",
"500 13 CURVE",
"481 110 LINE",
"429 97 OFFCURVE",
"367 91 OFFCURVE",
"306 91 CURVE SMOOTH",
"260 91 OFFCURVE",
"222 94 OFFCURVE",
"180 101 CURVE",
"180 259 LINE",
"454 259 LINE",
"454 355 LINE",
"180 355 LINE",
"180 517 LINE",
"492 517 LINE",
"492 618 LINE",
"71 618 LINE",
"71 104 LINE SMOOTH",
"71 14 OFFCURVE",
"170 -9 OFFCURVE",
"303 -9 CURVE SMOOTH"
);
},
{
closed = 1;
nodes = (
"281 746 LINE",
"287 746 LINE",
"364 676 LINE",
"428 689 LINE",
"331 824 LINE",
"237 824 LINE",
"139 689 LINE",
"203 676 LINE"
);
},
{
closed = 1;
nodes = (
"462 783 LINE",
"462 819 LINE",
"502 820 OFFCURVE",
"522 842 OFFCURVE",
"522 878 CURVE SMOOTH",
"522 919 OFFCURVE",
"498 941 OFFCURVE",
"447 941 CURVE SMOOTH",
"421 941 OFFCURVE",
"400 936 OFFCURVE",
"377 927 CURVE",
"391 879 LINE",
"404 884 OFFCURVE",
"419 887 OFFCURVE",
"431 887 CURVE SMOOTH",
"447 887 OFFCURVE",
"455 883 OFFCURVE",
"455 873 CURVE SMOOTH",
"455 860 OFFCURVE",
"442 857 OFFCURVE",
"399 857 CURVE",
"399 821 LINE",
"409 783 LINE"
);
}
);
width = 556;
}
);
note = Ecircumflexhookabove;
unicode = 1EC2;
},
{
glyphname = Ecircumflextilde;
lastChange = "2015-07-19 04:35:37 +0000";
layers = (
{
layerId = "4CE4ED08-6AC3-4BDD-8925-679D298B3381";
name = Bold;
paths = (
{
closed = 1;
nodes = (
"383 -9 OFFCURVE",
"449 -2 OFFCURVE",
"500 13 CURVE",
"481 110 LINE",
"429 97 OFFCURVE",
"367 91 OFFCURVE",
"306 91 CURVE SMOOTH",
"260 91 OFFCURVE",
"222 94 OFFCURVE",
"180 101 CURVE",
"180 259 LINE",
"454 259 LINE",
"454 355 LINE",
"180 355 LINE",
"180 517 LINE",
"492 517 LINE",
"492 618 LINE",
"71 618 LINE",
"71 104 LINE SMOOTH",
"71 14 OFFCURVE",
"170 -9 OFFCURVE",
"303 -9 CURVE SMOOTH"
);
},
{
closed = 1;
nodes = (
"279 746 LINE",
"285 746 LINE",
"362 677 LINE",
"426 689 LINE",
"329 825 LINE",
"235 825 LINE",
"137 689 LINE",
"201 677 LINE"
);
},
{
closed = 1;
nodes = (
"213 885 OFFCURVE",
"220 901 OFFCURVE",
"242 901 CURVE SMOOTH",
"272 901 OFFCURVE",
"298 869 OFFCURVE",
"337 869 CURVE SMOOTH",
"385 869 OFFCURVE",
"407 899 OFFCURVE",
"409 955 CURVE",
"356 972 LINE",
"354 950 OFFCURVE",
"347 935 OFFCURVE",
"325 935 CURVE SMOOTH",
"300 935 OFFCURVE",
"269 967 OFFCURVE",
"231 967 CURVE SMOOTH",
"182 967 OFFCURVE",
"160 936 OFFCURVE",
"158 880 CURVE",
"211 865 LINE"
);
}
);
width = 555;
}
);
note = Ecircumflextilde;
unicode = 1EC4;
},
{
glyphname = Edieresis;
lastChange = "2015-07-19 04:35:37 +0000";
layers = (
{
layerId = "4CE4ED08-6AC3-4BDD-8925-679D298B3381";
name = Bold;
paths = (
{
closed = 1;
nodes = (
"383 -9 OFFCURVE",
"449 -2 OFFCURVE",
"500 13 CURVE",
"481 110 LINE",
"429 97 OFFCURVE",
"367 91 OFFCURVE",
"306 91 CURVE SMOOTH",
"260 91 OFFCURVE",
"222 94 OFFCURVE",
"180 101 CURVE",
"180 259 LINE",
"454 259 LINE",
"454 355 LINE",
"180 355 LINE",
"180 517 LINE",
"492 517 LINE",
"492 618 LINE",
"71 618 LINE",
"71 104 LINE SMOOTH",
"71 14 OFFCURVE",
"170 -9 OFFCURVE",
"303 -9 CURVE SMOOTH"
);
},
{
closed = 1;
nodes = (
"239 681 OFFCURVE",
"260 701 OFFCURVE",
"260 734 CURVE SMOOTH",
"260 769 OFFCURVE",
"239 788 OFFCURVE",
"203 788 CURVE SMOOTH",
"168 788 OFFCURVE",
"147 769 OFFCURVE",
"147 734 CURVE SMOOTH",
"147 701 OFFCURVE",
"168 681 OFFCURVE",
"203 681 CURVE SMOOTH"
);
},
{
closed = 1;
nodes = (
"405 681 OFFCURVE",
"425 701 OFFCURVE",
"425 734 CURVE SMOOTH",
"425 769 OFFCURVE",
"405 788 OFFCURVE",
"369 788 CURVE SMOOTH",
"333 788 OFFCURVE",
"312 769 OFFCURVE",
"312 734 CURVE SMOOTH",
"312 701 OFFCURVE",
"333 681 OFFCURVE",
"369 681 CURVE SMOOTH"
);
}
);
width = 555;
}
);
note = Edieresis;
unicode = 00CB;
},
{
glyphname = Edotaccent;
lastChange = "2015-07-19 04:35:37 +0000";
layers = (
{
layerId = "4CE4ED08-6AC3-4BDD-8925-679D298B3381";
name = Bold;
paths = (
{
closed = 1;
nodes = (
"383 -9 OFFCURVE",
"449 -2 OFFCURVE",
"500 13 CURVE",
"481 110 LINE",
"429 97 OFFCURVE",
"367 91 OFFCURVE",
"306 91 CURVE SMOOTH",
"260 91 OFFCURVE",
"222 94 OFFCURVE",
"180 101 CURVE",
"180 259 LINE",
"454 259 LINE",
"454 355 LINE",
"180 355 LINE",
"180 517 LINE",
"492 517 LINE",
"492 618 LINE",
"71 618 LINE",
"71 104 LINE SMOOTH",
"71 14 OFFCURVE",
"170 -9 OFFCURVE",
"303 -9 CURVE SMOOTH"
);
},
{
closed = 1;
nodes = (
"333 681 OFFCURVE",
"359 705 OFFCURVE",
"359 744 CURVE SMOOTH",
"359 787 OFFCURVE",
"333 810 OFFCURVE",
"290 810 CURVE SMOOTH",
"247 810 OFFCURVE",
"222 787 OFFCURVE",
"222 744 CURVE SMOOTH",
"222 705 OFFCURVE",
"247 681 OFFCURVE",
"290 681 CURVE SMOOTH"
);
}
);
width = 555;
}
);
note = Edotaccent;
unicode = 0116;
},
{
glyphname = Edotbelow;
lastChange = "2015-07-19 04:35:38 +0000";
layers = (
{
layerId = "4CE4ED08-6AC3-4BDD-8925-679D298B3381";
name = Bold;
paths = (
{
closed = 1;
nodes = (
"383 -9 OFFCURVE",
"449 -2 OFFCURVE",
"500 13 CURVE",
"481 110 LINE",
"429 97 OFFCURVE",
"367 91 OFFCURVE",
"306 91 CURVE SMOOTH",
"260 91 OFFCURVE",
"222 94 OFFCURVE",
"180 101 CURVE",
"180 259 LINE",
"454 259 LINE",
"454 355 LINE",
"180 355 LINE",
"180 517 LINE",
"492 517 LINE",
"492 618 LINE",
"71 618 LINE",
"71 104 LINE SMOOTH",
"71 14 OFFCURVE",
"170 -9 OFFCURVE",
"303 -9 CURVE SMOOTH"
);
},
{
closed = 1;
nodes = (
"339 -184 OFFCURVE",
"365 -160 OFFCURVE",
"365 -120 CURVE SMOOTH",
"365 -78 OFFCURVE",
"339 -54 OFFCURVE",
"296 -54 CURVE SMOOTH",
"253 -54 OFFCURVE",
"228 -78 OFFCURVE",
"228 -120 CURVE SMOOTH",
"228 -160 OFFCURVE",
"253 -184 OFFCURVE",
"296 -184 CURVE SMOOTH"
);
}
);
width = 555;
}
);
note = Edotbelow;
unicode = 1EB8;
},
{
glyphname = Egrave;
lastChange = "2015-07-19 04:35:37 +0000";
layers = (
{
layerId = "4CE4ED08-6AC3-4BDD-8925-679D298B3381";
name = Bold;
paths = (
{
closed = 1;
nodes = (
"383 -9 OFFCURVE",
"449 -2 OFFCURVE",
"500 13 CURVE",
"481 110 LINE",
"429 97 OFFCURVE",
"367 91 OFFCURVE",
"306 91 CURVE SMOOTH",
"260 91 OFFCURVE",
"222 94 OFFCURVE",
"180 101 CURVE",
"180 259 LINE",
"454 259 LINE",
"454 355 LINE",
"180 355 LINE",
"180 517 LINE",
"492 517 LINE",
"492 618 LINE",
"71 618 LINE",
"71 104 LINE SMOOTH",
"71 14 OFFCURVE",
"170 -9 OFFCURVE",
"303 -9 CURVE SMOOTH"
);
},
{
closed = 1;
nodes = (
"359 692 LINE",
"275 841 LINE",
"144 827 LINE",
"272 678 LINE"
);
}
);
width = 555;
}
);
note = Egrave;
unicode = 00C8;
},
{
glyphname = Ehookabove;
lastChange = "2015-07-19 04:35:37 +0000";
layers = (
{
layerId = "4CE4ED08-6AC3-4BDD-8925-679D298B3381";
name = Bold;
paths = (
{
closed = 1;
nodes = (
"383 -9 OFFCURVE",
"449 -2 OFFCURVE",
"500 13 CURVE",
"481 110 LINE",
"429 97 OFFCURVE",
"367 91 OFFCURVE",
"306 91 CURVE SMOOTH",
"260 91 OFFCURVE",
"222 94 OFFCURVE",
"180 101 CURVE",
"180 259 LINE",
"454 259 LINE",
"454 355 LINE",
"180 355 LINE",
"180 517 LINE",
"492 517 LINE",
"492 618 LINE",
"71 618 LINE",
"71 104 LINE SMOOTH",
"71 14 OFFCURVE",
"170 -9 OFFCURVE",
"303 -9 CURVE SMOOTH"
);
},
{
closed = 1;
nodes = (
"318 684 LINE",
"318 729 LINE",
"375 732 OFFCURVE",
"412 756 OFFCURVE",
"412 811 CURVE SMOOTH",
"412 862 OFFCURVE",
"376 898 OFFCURVE",
"305 898 CURVE SMOOTH",
"271 898 OFFCURVE",
"239 892 OFFCURVE",
"204 877 CURVE",
"226 819 LINE",
"245 825 OFFCURVE",
"268 829 OFFCURVE",
"286 829 CURVE SMOOTH",
"316 829 OFFCURVE",
"327 824 OFFCURVE",
"327 805 CURVE SMOOTH",
"327 781 OFFCURVE",
"298 780 OFFCURVE",
"237 780 CURVE",
"237 737 LINE",
"253 684 LINE"
);
}
);
width = 555;
}
);
note = Ehookabove;
unicode = 1EBA;
},
{
glyphname = Emacron;
lastChange = "2015-07-19 04:35:37 +0000";
layers = (
{
layerId = "4CE4ED08-6AC3-4BDD-8925-679D298B3381";
name = Bold;
paths = (
{
closed = 1;
nodes = (
"383 -9 OFFCURVE",
"449 -2 OFFCURVE",
"500 13 CURVE",
"481 110 LINE",
"429 97 OFFCURVE",
"367 91 OFFCURVE",
"306 91 CURVE SMOOTH",
"260 91 OFFCURVE",
"222 94 OFFCURVE",
"180 101 CURVE",
"180 259 LINE",
"454 259 LINE",
"454 355 LINE",
"180 355 LINE",
"180 517 LINE",
"492 517 LINE",
"492 618 LINE",
"71 618 LINE",
"71 104 LINE SMOOTH",
"71 14 OFFCURVE",
"170 -9 OFFCURVE",
"303 -9 CURVE SMOOTH"
);
},
{
closed = 1;
nodes = (
"430 685 LINE",
"430 770 LINE",
"139 770 LINE",
"139 685 LINE"
);
}
);
width = 555;
}
);
note = Emacron;
unicode = 0112;
},
{
glyphname = Eogonek;
lastChange = "2015-07-19 04:35:36 +0000";
layers = (
{
layerId = "4CE4ED08-6AC3-4BDD-8925-679D298B3381";
name = Bold;
paths = (
{
closed = 1;
nodes = (
"484 -166 OFFCURVE",
"509 -160 OFFCURVE",
"528 -152 CURVE",
"511 -81 LINE",
"497 -85 OFFCURVE",
"485 -87 OFFCURVE",
"471 -87 CURVE SMOOTH",
"457 -87 OFFCURVE",
"445 -86 OFFCURVE",
"435 -83 CURVE",
"433 -77 OFFCURVE",
"432 -70 OFFCURVE",
"432 -63 CURVE SMOOTH",
"432 -38 OFFCURVE",
"440 -19 OFFCURVE",
"474 2 CURVE",
"483 5 OFFCURVE",
"495 9 OFFCURVE",
"501 11 CURVE",
"481 110 LINE",
"429 97 OFFCURVE",
"367 91 OFFCURVE",
"306 91 CURVE SMOOTH",
"260 91 OFFCURVE",
"222 94 OFFCURVE",
"180 101 CURVE",
"180 259 LINE",
"454 259 LINE",
"454 355 LINE",
"180 355 LINE",
"180 517 LINE",
"492 517 LINE",
"492 618 LINE",
"71 618 LINE",
"71 104 LINE SMOOTH",
"71 14 OFFCURVE",
"170 -9 OFFCURVE",
"303 -9 CURVE SMOOTH",
"328 -9 OFFCURVE",
"352 -8 OFFCURVE",
"375 -6 CURVE",
"350 -25 OFFCURVE",
"336 -49 OFFCURVE",
"336 -82 CURVE SMOOTH",
"336 -137 OFFCURVE",
"377 -166 OFFCURVE",
"453 -166 CURVE SMOOTH"
);
}
);
width = 555;
}
);
note = Eogonek;
unicode = 0118;
},
{
glyphname = Etilde;
lastChange = "2015-07-19 04:35:38 +0000";
layers = (
{
layerId = "4CE4ED08-6AC3-4BDD-8925-679D298B3381";
name = Bold;
paths = (
{
closed = 1;
nodes = (
"383 -9 OFFCURVE",
"449 -2 OFFCURVE",
"500 13 CURVE",
"481 110 LINE",
"429 97 OFFCURVE",
"367 91 OFFCURVE",
"306 91 CURVE SMOOTH",
"260 91 OFFCURVE",
"222 94 OFFCURVE",
"180 101 CURVE",
"180 259 LINE",
"454 259 LINE",
"454 355 LINE",
"180 355 LINE",
"180 517 LINE",
"492 517 LINE",
"492 618 LINE",
"71 618 LINE",
"71 104 LINE SMOOTH",
"71 14 OFFCURVE",
"170 -9 OFFCURVE",
"303 -9 CURVE SMOOTH"
);
},
{
closed = 1;
nodes = (
"201 699 OFFCURVE",
"209 719 OFFCURVE",
"235 719 CURVE SMOOTH",
"270 719 OFFCURVE",
"301 678 OFFCURVE",
"348 678 CURVE SMOOTH",
"410 678 OFFCURVE",
"434 718 OFFCURVE",
"437 790 CURVE",
"368 811 LINE",
"365 784 OFFCURVE",
"358 764 OFFCURVE",
"331 764 CURVE SMOOTH",
"302 764 OFFCURVE",
"266 805 OFFCURVE",
"221 805 CURVE SMOOTH",
"157 805 OFFCURVE",
"133 765 OFFCURVE",
"130 693 CURVE",
"199 672 LINE"
);
}
);
width = 555;
}
);
note = Etilde;
unicode = 1EBC;
},
{
glyphname = F;
lastChange = "2015-07-19 09:10:06 +0000";
layers = (
{
layerId = "4CE4ED08-6AC3-4BDD-8925-679D298B3381";
name = Bold;
paths = (
{
closed = 1;
nodes = (
"181 0 LINE",
"181 254 LINE",
"446 254 LINE",
"446 352 LINE",
"181 352 LINE",
"181 517 LINE",
"497 517 LINE",
"497 618 LINE",
"71 618 LINE",
"71 0 LINE"
);
}
);
width = 517;
}
);
note = F;
unicode = 0046;
},
{
glyphname = G;
lastChange = "2015-07-19 04:35:36 +0000";
layers = (
{
layerId = "4CE4ED08-6AC3-4BDD-8925-679D298B3381";
name = Bold;
paths = (
{
closed = 1;
nodes = (
"466 -9 OFFCURVE",
"561 48 OFFCURVE",
"561 134 CURVE SMOOTH",
"561 297 LINE",
"507 341 LINE",
"312 341 LINE",
"312 247 LINE",
"452 247 LINE",
"452 102 LINE",
"420 95 OFFCURVE",
"391 92 OFFCURVE",
"345 92 CURVE SMOOTH",
"216 92 OFFCURVE",
"160 151 OFFCURVE",
"160 296 CURVE SMOOTH",
"160 376 OFFCURVE",
"178 453 OFFCURVE",
"206 514 CURVE",
"248 523 OFFCURVE",
"291 526 OFFCURVE",
"329 526 CURVE SMOOTH",
"376 526 OFFCURVE",
"418 523 OFFCURVE",
"443 517 CURVE",
"453 442 LINE",
"537 442 LINE",
"545 466 OFFCURVE",
"550 502 OFFCURVE",
"550 534 CURVE SMOOTH",
"550 584 LINE",
"509 608 OFFCURVE",
"431 628 OFFCURVE",
"341 628 CURVE SMOOTH",
"142 628 OFFCURVE",
"50 492 OFFCURVE",
"50 290 CURVE SMOOTH",
"50 93 OFFCURVE",
"147 -9 OFFCURVE",
"332 -9 CURVE SMOOTH"
);
}
);
width = 615;
}
);
note = G;
unicode = 0047;
},
{
glyphname = Gbreve;
lastChange = "2015-07-19 06:25:15 +0000";
layers = (
{
layerId = "4CE4ED08-6AC3-4BDD-8925-679D298B3381";
name = Bold;
paths = (
{
closed = 1;
nodes = (
"466 -9 OFFCURVE",
"561 48 OFFCURVE",
"561 134 CURVE SMOOTH",
"561 297 LINE",
"507 341 LINE",
"312 341 LINE",
"312 247 LINE",
"452 247 LINE",
"452 102 LINE",
"420 95 OFFCURVE",
"391 92 OFFCURVE",
"345 92 CURVE SMOOTH",
"216 92 OFFCURVE",
"160 151 OFFCURVE",
"160 296 CURVE SMOOTH",
"160 376 OFFCURVE",
"178 453 OFFCURVE",
"206 514 CURVE",
"248 523 OFFCURVE",
"291 526 OFFCURVE",
"329 526 CURVE SMOOTH",
"376 526 OFFCURVE",
"418 523 OFFCURVE",
"443 517 CURVE",
"453 442 LINE",
"537 442 LINE",
"545 466 OFFCURVE",
"550 502 OFFCURVE",
"550 534 CURVE SMOOTH",
"550 584 LINE",
"509 608 OFFCURVE",
"431 628 OFFCURVE",
"341 628 CURVE SMOOTH",
"142 628 OFFCURVE",
"50 492 OFFCURVE",
"50 290 CURVE SMOOTH",
"50 93 OFFCURVE",
"147 -9 OFFCURVE",
"332 -9 CURVE SMOOTH"
);
},
{
closed = 1;
nodes = (
"432 681 OFFCURVE",
"475 726 OFFCURVE",
"483 805 CURVE",
"387 820 LINE",
"385 785 OFFCURVE",
"375 765 OFFCURVE",
"337 765 CURVE SMOOTH",
"299 765 OFFCURVE",
"289 785 OFFCURVE",
"287 820 CURVE",
"191 805 LINE",
"199 726 OFFCURVE",
"242 681 OFFCURVE",
"337 681 CURVE SMOOTH"
);
}
);
width = 615;
}
);
note = Gbreve;
unicode = 011E;
},
{
glyphname = Gcaron;
lastChange = "2015-07-19 06:25:09 +0000";
layers = (
{
layerId = "4CE4ED08-6AC3-4BDD-8925-679D298B3381";
name = Bold;
paths = (
{
closed = 1;
nodes = (
"466 -9 OFFCURVE",
"561 48 OFFCURVE",
"561 134 CURVE SMOOTH",
"561 297 LINE",
"507 341 LINE",
"312 341 LINE",
"312 247 LINE",
"452 247 LINE",
"452 102 LINE",
"420 95 OFFCURVE",
"391 92 OFFCURVE",
"345 92 CURVE SMOOTH",
"216 92 OFFCURVE",
"160 151 OFFCURVE",
"160 296 CURVE SMOOTH",
"160 376 OFFCURVE",
"178 453 OFFCURVE",
"206 514 CURVE",
"248 523 OFFCURVE",
"291 526 OFFCURVE",
"329 526 CURVE SMOOTH",
"376 526 OFFCURVE",
"418 523 OFFCURVE",
"443 517 CURVE",
"453 442 LINE",
"537 442 LINE",
"545 466 OFFCURVE",
"550 502 OFFCURVE",
"550 534 CURVE SMOOTH",
"550 584 LINE",
"509 608 OFFCURVE",
"431 628 OFFCURVE",
"341 628 CURVE SMOOTH",
"142 628 OFFCURVE",
"50 492 OFFCURVE",
"50 290 CURVE SMOOTH",
"50 93 OFFCURVE",
"147 -9 OFFCURVE",
"332 -9 CURVE SMOOTH"
);
},
{
closed = 1;
nodes = (
"384 684 LINE",
"481 821 LINE",
"417 833 LINE",
"340 764 LINE",
"334 764 LINE",
"255 833 LINE",
"192 821 LINE",
"290 684 LINE"
);
}
);
width = 615;
}
);
note = Gcaron;
unicode = 01E6;
},
{
glyphname = Gcircumflex;
lastChange = "2015-07-19 06:25:06 +0000";
layers = (
{
layerId = "4CE4ED08-6AC3-4BDD-8925-679D298B3381";
name = Bold;
paths = (
{
closed = 1;
nodes = (
"466 -9 OFFCURVE",
"561 48 OFFCURVE",
"561 134 CURVE SMOOTH",
"561 297 LINE",
"507 341 LINE",
"312 341 LINE",
"312 247 LINE",
"452 247 LINE",
"452 102 LINE",
"420 95 OFFCURVE",
"391 92 OFFCURVE",
"345 92 CURVE SMOOTH",
"216 92 OFFCURVE",
"160 151 OFFCURVE",
"160 296 CURVE SMOOTH",
"160 376 OFFCURVE",
"178 453 OFFCURVE",
"206 514 CURVE",
"248 523 OFFCURVE",
"291 526 OFFCURVE",
"329 526 CURVE SMOOTH",
"376 526 OFFCURVE",
"418 523 OFFCURVE",
"443 517 CURVE",
"453 442 LINE",
"537 442 LINE",
"545 466 OFFCURVE",
"550 502 OFFCURVE",
"550 534 CURVE SMOOTH",
"550 584 LINE",
"509 608 OFFCURVE",
"431 628 OFFCURVE",
"341 628 CURVE SMOOTH",
"142 628 OFFCURVE",
"50 492 OFFCURVE",
"50 290 CURVE SMOOTH",
"50 93 OFFCURVE",
"147 -9 OFFCURVE",
"332 -9 CURVE SMOOTH"
);
},
{
closed = 1;
nodes = (
"338 746 LINE",
"344 746 LINE",
"421 677 LINE",
"485 689 LINE",
"388 826 LINE",
"294 826 LINE",
"196 689 LINE",
"259 677 LINE"
);
}
);
width = 615;
}
);
note = Gcircumflex;
unicode = 011C;
},
{
glyphname = Gcommaaccent;
lastChange = "2015-07-19 06:25:23 +0000";
layers = (
{
layerId = "4CE4ED08-6AC3-4BDD-8925-679D298B3381";
name = Bold;
paths = (
{
closed = 1;
nodes = (
"466 -9 OFFCURVE",
"561 48 OFFCURVE",
"561 134 CURVE SMOOTH",
"561 297 LINE",
"507 341 LINE",
"312 341 LINE",
"312 247 LINE",
"452 247 LINE",
"452 102 LINE",
"420 95 OFFCURVE",
"391 92 OFFCURVE",
"345 92 CURVE SMOOTH",
"216 92 OFFCURVE",
"160 151 OFFCURVE",
"160 296 CURVE SMOOTH",
"160 376 OFFCURVE",
"178 453 OFFCURVE",
"206 514 CURVE",
"248 523 OFFCURVE",
"291 526 OFFCURVE",
"329 526 CURVE SMOOTH",
"376 526 OFFCURVE",
"418 523 OFFCURVE",
"443 517 CURVE",
"453 442 LINE",
"537 442 LINE",
"545 466 OFFCURVE",
"550 502 OFFCURVE",
"550 534 CURVE SMOOTH",
"550 584 LINE",
"509 608 OFFCURVE",
"431 628 OFFCURVE",
"341 628 CURVE SMOOTH",
"142 628 OFFCURVE",
"50 492 OFFCURVE",
"50 290 CURVE SMOOTH",
"50 93 OFFCURVE",
"147 -9 OFFCURVE",
"332 -9 CURVE SMOOTH"
);
},
{
closed = 1;
nodes = (
"389 -226 OFFCURVE",
"410 -179 OFFCURVE",
"410 -136 CURVE SMOOTH",
"410 -84 OFFCURVE",
"386 -58 OFFCURVE",
"333 -58 CURVE SMOOTH",
"312 -58 OFFCURVE",
"288 -63 OFFCURVE",
"270 -69 CURVE",
"270 -143 LINE",
"323 -143 LINE",
"322 -178 OFFCURVE",
"311 -209 OFFCURVE",
"291 -245 CURVE",
"358 -260 LINE"
);
}
);
width = 615;
}
);
note = Gcommaaccent;
unicode = 0122;
},
{
glyphname = Gdotaccent;
lastChange = "2015-07-19 04:35:38 +0000";
layers = (
{
layerId = "4CE4ED08-6AC3-4BDD-8925-679D298B3381";
name = Bold;
paths = (
{
closed = 1;
nodes = (
"466 -9 OFFCURVE",
"561 48 OFFCURVE",
"561 134 CURVE SMOOTH",
"561 297 LINE",
"507 341 LINE",
"312 341 LINE",
"312 247 LINE",
"452 247 LINE",
"452 102 LINE",
"420 95 OFFCURVE",
"391 92 OFFCURVE",
"345 92 CURVE SMOOTH",
"216 92 OFFCURVE",
"160 151 OFFCURVE",
"160 296 CURVE SMOOTH",
"160 376 OFFCURVE",
"178 453 OFFCURVE",
"206 514 CURVE",
"248 523 OFFCURVE",
"291 526 OFFCURVE",
"329 526 CURVE SMOOTH",
"376 526 OFFCURVE",
"418 523 OFFCURVE",
"443 517 CURVE",
"453 442 LINE",
"537 442 LINE",
"545 466 OFFCURVE",
"550 502 OFFCURVE",
"550 534 CURVE SMOOTH",
"550 584 LINE",
"509 608 OFFCURVE",
"431 628 OFFCURVE",
"341 628 CURVE SMOOTH",
"142 628 OFFCURVE",
"50 492 OFFCURVE",
"50 290 CURVE SMOOTH",
"50 93 OFFCURVE",
"147 -9 OFFCURVE",
"332 -9 CURVE SMOOTH"
);
},
{
closed = 1;
nodes = (
"372 681 OFFCURVE",
"398 705 OFFCURVE",
"398 745 CURVE SMOOTH",
"398 787 OFFCURVE",
"372 811 OFFCURVE",
"329 811 CURVE SMOOTH",
"286 811 OFFCURVE",
"261 787 OFFCURVE",
"261 745 CURVE SMOOTH",
"261 705 OFFCURVE",
"286 681 OFFCURVE",
"329 681 CURVE SMOOTH"
);
}
);
width = 615;
}
);
note = Gdotaccent;
unicode = 0120;
},
{
glyphname = Gmacron;
lastChange = "2015-07-19 04:35:37 +0000";
layers = (
{
layerId = "4CE4ED08-6AC3-4BDD-8925-679D298B3381";
name = Bold;
paths = (
{
closed = 1;
nodes = (
"466 -9 OFFCURVE",
"561 48 OFFCURVE",
"561 134 CURVE SMOOTH",
"561 297 LINE",
"507 341 LINE",
"312 341 LINE",
"312 247 LINE",
"452 247 LINE",
"452 102 LINE",
"420 95 OFFCURVE",
"391 92 OFFCURVE",
"345 92 CURVE SMOOTH",
"216 92 OFFCURVE",
"160 151 OFFCURVE",
"160 296 CURVE SMOOTH",
"160 376 OFFCURVE",
"178 453 OFFCURVE",
"206 514 CURVE",
"248 523 OFFCURVE",
"291 526 OFFCURVE",
"329 526 CURVE SMOOTH",
"376 526 OFFCURVE",
"418 523 OFFCURVE",
"443 517 CURVE",
"453 442 LINE",
"537 442 LINE",
"545 466 OFFCURVE",
"550 502 OFFCURVE",
"550 534 CURVE SMOOTH",
"550 584 LINE",
"509 608 OFFCURVE",
"431 628 OFFCURVE",
"341 628 CURVE SMOOTH",
"142 628 OFFCURVE",
"50 492 OFFCURVE",
"50 290 CURVE SMOOTH",
"50 93 OFFCURVE",
"147 -9 OFFCURVE",
"332 -9 CURVE SMOOTH"
);
},
{
closed = 1;
nodes = (
"485 684 LINE",
"485 780 LINE",
"154 780 LINE",
"154 684 LINE"
);
}
);
width = 615;
}
);
note = Gmacron;
unicode = 1E20;
},
{
glyphname = H;
lastChange = "2015-07-19 06:25:39 +0000";
layers = (
{
layerId = "4CE4ED08-6AC3-4BDD-8925-679D298B3381";
name = Bold;
paths = (
{
closed = 1;
nodes = (
"180 0 LINE",
"180 248 LINE",
"435 248 LINE",
"435 0 LINE",
"545 0 LINE",
"545 618 LINE",
"435 618 LINE",
"435 350 LINE",
"180 350 LINE",
"180 618 LINE",
"70 618 LINE",
"70 0 LINE"
);
}
);
width = 615;
}
);
note = H;
unicode = 0048;
},
{
glyphname = Hbar;
lastChange = "2015-07-19 04:35:37 +0000";
layers = (
{
layerId = "4CE4ED08-6AC3-4BDD-8925-679D298B3381";
name = Bold;
paths = (
{
closed = 1;
nodes = (
"218 0 LINE",
"218 248 LINE",
"474 248 LINE",
"474 0 LINE",
"584 0 LINE",
"584 428 LINE",
"648 428 LINE",
"648 514 LINE",
"584 514 LINE",
"584 618 LINE",
"474 618 LINE",
"474 514 LINE",
"218 514 LINE",
"218 618 LINE",
"108 618 LINE",
"108 514 LINE",
"46 514 LINE",
"46 428 LINE",
"108 428 LINE",
"108 0 LINE"
);
},
{
closed = 1;
nodes = (
"219 428 LINE",
"474 428 LINE",
"474 350 LINE",
"219 350 LINE"
);
}
);
width = 694;
}
);
note = Hbar;
unicode = 0126;
},
{
glyphname = Hbrevebelow;
lastChange = "2015-07-19 06:25:47 +0000";
layers = (
{
layerId = "4CE4ED08-6AC3-4BDD-8925-679D298B3381";
name = Bold;
paths = (
{
closed = 1;
nodes = (
"180 0 LINE",
"180 248 LINE",
"435 248 LINE",
"435 0 LINE",
"545 0 LINE",
"545 618 LINE",
"435 618 LINE",
"435 350 LINE",
"180 350 LINE",
"180 618 LINE",
"70 618 LINE",
"70 0 LINE"
);
},
{
closed = 1;
nodes = (
"403 -193 OFFCURVE",
"446 -148 OFFCURVE",
"454 -69 CURVE",
"358 -55 LINE",
"356 -89 OFFCURVE",
"346 -109 OFFCURVE",
"308 -109 CURVE SMOOTH",
"270 -109 OFFCURVE",
"260 -89 OFFCURVE",
"258 -55 CURVE",
"162 -69 LINE",
"170 -148 OFFCURVE",
"213 -193 OFFCURVE",
"308 -193 CURVE SMOOTH"
);
}
);
width = 615;
}
);
note = Hbrevebelow;
unicode = 1E2A;
},
{
glyphname = Hcircumflex;
lastChange = "2015-07-19 06:25:54 +0000";
layers = (
{
layerId = "4CE4ED08-6AC3-4BDD-8925-679D298B3381";
name = Bold;
paths = (
{
closed = 1;
nodes = (
"180 0 LINE",
"180 248 LINE",
"435 248 LINE",
"435 0 LINE",
"545 0 LINE",
"545 618 LINE",
"435 618 LINE",
"435 350 LINE",
"180 350 LINE",
"180 618 LINE",
"70 618 LINE",
"70 0 LINE"
);
},
{
closed = 1;
nodes = (
"305 746 LINE",
"311 746 LINE",
"388 677 LINE",
"452 689 LINE",
"355 826 LINE",
"261 826 LINE",
"163 689 LINE",
"226 677 LINE"
);
}
);
width = 615;
}
);
note = Hcircumflex;
unicode = 0124;
},
{
glyphname = Hdotbelow;
lastChange = "2015-07-19 06:26:06 +0000";
layers = (
{
layerId = "4CE4ED08-6AC3-4BDD-8925-679D298B3381";
name = Bold;
paths = (
{
closed = 1;
nodes = (
"180 0 LINE",
"180 248 LINE",
"435 248 LINE",
"435 0 LINE",
"545 0 LINE",
"545 618 LINE",
"435 618 LINE",
"435 350 LINE",
"180 350 LINE",
"180 618 LINE",
"70 618 LINE",
"70 0 LINE"
);
},
{
closed = 1;
nodes = (
"351 -181 OFFCURVE",
"377 -157 OFFCURVE",
"377 -118 CURVE SMOOTH",
"377 -75 OFFCURVE",
"351 -52 OFFCURVE",
"308 -52 CURVE SMOOTH",
"265 -52 OFFCURVE",
"240 -75 OFFCURVE",
"240 -118 CURVE SMOOTH",
"240 -157 OFFCURVE",
"265 -181 OFFCURVE",
"308 -181 CURVE SMOOTH"
);
}
);
width = 615;
}
);
note = Hdotbelow;
unicode = 1E24;
},
{
glyphname = I;
lastChange = "2015-07-19 04:35:36 +0000";
layers = (
{
layerId = "4CE4ED08-6AC3-4BDD-8925-679D298B3381";
name = Bold;
paths = (
{
closed = 1;
nodes = (
"184 0 LINE",
"184 618 LINE",
"74 618 LINE",
"74 0 LINE"
);
}
);
width = 258;
}
);
note = I;
unicode = 0049;
},
{
glyphname = IJ;
lastChange = "2015-07-19 04:35:37 +0000";
layers = (
{
layerId = "4CE4ED08-6AC3-4BDD-8925-679D298B3381";
name = Bold;
paths = (
{
closed = 1;
nodes = (
"577 -9 OFFCURVE",
"641 50 OFFCURVE",
"641 156 CURVE SMOOTH",
"641 618 LINE",
"531 618 LINE",
"531 167 LINE SMOOTH",
"531 143 OFFCURVE",
"529 123 OFFCURVE",
"525 107 CURVE",
"505 98 OFFCURVE",
"478 92 OFFCURVE",
"438 92 CURVE SMOOTH",
"393 92 OFFCURVE",
"350 102 OFFCURVE",
"315 115 CURVE",
"290 21 LINE",
"330 2 OFFCURVE",
"389 -9 OFFCURVE",
"443 -9 CURVE SMOOTH"
);
},
{
closed = 1;
nodes = (
"184 0 LINE",
"184 618 LINE",
"74 618 LINE",
"74 0 LINE"
);
}
);
width = 710;
}
);
note = IJ;
unicode = 0132;
},
{
glyphname = Iacute;
lastChange = "2015-07-19 06:26:29 +0000";
layers = (
{
layerId = "4CE4ED08-6AC3-4BDD-8925-679D298B3381";
name = Bold;
paths = (
{
closed = 1;
nodes = (
"184 0 LINE",
"184 618 LINE",
"74 618 LINE",
"74 0 LINE"
);
},
{
closed = 1;
nodes = (
"290 832 LINE",
"165 844 LINE",
"82 692 LINE",
"161 678 LINE"
);
}
);
width = 258;
}
);
note = Iacute;
unicode = 00CD;
},
{
glyphname = Ibreve;
lastChange = "2015-07-19 06:26:43 +0000";
layers = (
{
layerId = "4CE4ED08-6AC3-4BDD-8925-679D298B3381";
name = Bold;
paths = (
{
closed = 1;
nodes = (
"184 0 LINE",
"184 618 LINE",
"74 618 LINE",
"74 0 LINE"
);
},
{
closed = 1;
nodes = (
"224 681 OFFCURVE",
"267 726 OFFCURVE",
"275 805 CURVE",
"179 820 LINE",
"177 785 OFFCURVE",
"167 765 OFFCURVE",
"129 765 CURVE SMOOTH",
"90 765 OFFCURVE",
"81 785 OFFCURVE",
"78 820 CURVE",
"-17 805 LINE",
"-9 726 OFFCURVE",
"34 681 OFFCURVE",
"129 681 CURVE SMOOTH"
);
}
);
width = 258;
}
);
note = Ibreve;
unicode = 012C;
},
{
glyphname = Icaron;
lastChange = "2015-07-19 06:26:58 +0000";
layers = (
{
layerId = "4CE4ED08-6AC3-4BDD-8925-679D298B3381";
name = Bold;
paths = (
{
closed = 1;
nodes = (
"184 0 LINE",
"184 618 LINE",
"74 618 LINE",
"74 0 LINE"
);
},
{
closed = 1;
nodes = (
"176 684 LINE",
"274 821 LINE",
"209 833 LINE",
"132 764 LINE",
"127 764 LINE",
"47 833 LINE",
"-16 821 LINE",
"83 684 LINE"
);
}
);
width = 258;
}
);
note = Icaron;
unicode = 01CF;
},
{
glyphname = Icircumflex;
lastChange = "2015-07-19 06:27:11 +0000";
layers = (
{
layerId = "4CE4ED08-6AC3-4BDD-8925-679D298B3381";
name = Bold;
paths = (
{
closed = 1;
nodes = (
"184 0 LINE",
"184 618 LINE",
"74 618 LINE",
"74 0 LINE"
);
},
{
closed = 1;
nodes = (
"126 747 LINE",
"132 747 LINE",
"208 677 LINE",
"273 690 LINE",
"175 827 LINE",
"82 827 LINE",
"-16 690 LINE",
"46 677 LINE"
);
}
);
width = 258;
}
);
note = Icircumflex;
unicode = 00CE;
},
{
glyphname = Idieresis;
lastChange = "2015-07-19 06:27:21 +0000";
layers = (
{
layerId = "4CE4ED08-6AC3-4BDD-8925-679D298B3381";
name = Bold;
paths = (
{
closed = 1;
nodes = (
"184 0 LINE",
"184 618 LINE",
"74 618 LINE",
"74 0 LINE"
);
},
{
closed = 1;
nodes = (
"82 681 OFFCURVE",
"103 701 OFFCURVE",
"103 734 CURVE SMOOTH",
"103 769 OFFCURVE",
"82 788 OFFCURVE",
"47 788 CURVE SMOOTH",
"12 788 OFFCURVE",
"-10 769 OFFCURVE",
"-10 734 CURVE SMOOTH",
"-10 701 OFFCURVE",
"12 681 OFFCURVE",
"47 681 CURVE SMOOTH"
);
},
{
closed = 1;
nodes = (
"248 681 OFFCURVE",
"268 701 OFFCURVE",
"268 734 CURVE SMOOTH",
"268 769 OFFCURVE",
"248 788 OFFCURVE",
"212 788 CURVE SMOOTH",
"176 788 OFFCURVE",
"155 769 OFFCURVE",
"155 734 CURVE SMOOTH",
"155 701 OFFCURVE",
"176 681 OFFCURVE",
"212 681 CURVE SMOOTH"
);
}
);
width = 258;
}
);
note = Idieresis;
unicode = 00CF;
},
{
glyphname = Idotaccent;
lastChange = "2015-07-19 04:35:37 +0000";
layers = (
{
layerId = "4CE4ED08-6AC3-4BDD-8925-679D298B3381";
name = Bold;
paths = (
{
closed = 1;
nodes = (
"184 0 LINE",
"184 618 LINE",
"74 618 LINE",
"74 0 LINE"
);
},
{
closed = 1;
nodes = (
"172 668 OFFCURVE",
"198 692 OFFCURVE",
"198 732 CURVE SMOOTH",
"198 774 OFFCURVE",
"172 798 OFFCURVE",
"129 798 CURVE SMOOTH",
"86 798 OFFCURVE",
"61 774 OFFCURVE",
"61 732 CURVE SMOOTH",
"61 692 OFFCURVE",
"86 668 OFFCURVE",
"129 668 CURVE SMOOTH"
);
}
);
width = 259;
}
);
note = Idotaccent;
unicode = 0130;
},
{
glyphname = Idotbelow;
lastChange = "2015-07-19 06:27:38 +0000";
layers = (
{
layerId = "4CE4ED08-6AC3-4BDD-8925-679D298B3381";
name = Bold;
paths = (
{
closed = 1;
nodes = (
"195 0 LINE",
"195 618 LINE",
"85 618 LINE",
"85 0 LINE"
);
},
{
closed = 1;
nodes = (
"183 -183 OFFCURVE",
"209 -159 OFFCURVE",
"209 -120 CURVE SMOOTH",
"209 -77 OFFCURVE",
"183 -53 OFFCURVE",
"140 -53 CURVE SMOOTH",
"97 -53 OFFCURVE",
"72 -77 OFFCURVE",
"72 -120 CURVE SMOOTH",
"72 -159 OFFCURVE",
"97 -183 OFFCURVE",
"140 -183 CURVE SMOOTH"
);
}
);
width = 280;
}
);
note = Idotbelow;
unicode = 1ECA;
},
{
glyphname = Igrave;
lastChange = "2015-07-19 06:27:50 +0000";
layers = (
{
layerId = "4CE4ED08-6AC3-4BDD-8925-679D298B3381";
name = Bold;
paths = (
{
closed = 1;
nodes = (
"184 0 LINE",
"184 618 LINE",
"74 618 LINE",
"74 0 LINE"
);
},
{
closed = 1;
nodes = (
"184 692 LINE",
"100 841 LINE",
"-31 827 LINE",
"97 678 LINE"
);
}
);
width = 258;
}
);
note = Igrave;
unicode = 00CC;
},
{
glyphname = Ihookabove;
lastChange = "2015-07-19 06:28:03 +0000";
layers = (
{
layerId = "4CE4ED08-6AC3-4BDD-8925-679D298B3381";
name = Bold;
paths = (
{
closed = 1;
nodes = (
"200 0 LINE",
"200 618 LINE",
"90 618 LINE",
"90 0 LINE"
);
},
{
closed = 1;
nodes = (
"177 680 LINE",
"177 725 LINE",
"234 727 OFFCURVE",
"271 752 OFFCURVE",
"271 807 CURVE SMOOTH",
"271 858 OFFCURVE",
"235 893 OFFCURVE",
"164 893 CURVE SMOOTH",
"130 893 OFFCURVE",
"98 888 OFFCURVE",
"63 873 CURVE",
"85 814 LINE",
"104 821 OFFCURVE",
"127 825 OFFCURVE",
"145 825 CURVE SMOOTH",
"175 825 OFFCURVE",
"186 820 OFFCURVE",
"186 801 CURVE SMOOTH",
"186 777 OFFCURVE",
"157 775 OFFCURVE",
"96 775 CURVE",
"96 733 LINE",
"112 680 LINE"
);
}
);
width = 290;
}
);
note = Ihookabove;
unicode = 1EC8;
},
{
glyphname = Imacron;
lastChange = "2015-07-19 06:28:26 +0000";
layers = (
{
layerId = "4CE4ED08-6AC3-4BDD-8925-679D298B3381";
name = Bold;
paths = (
{
closed = 1;
nodes = (
"210 0 LINE",
"210 618 LINE",
"100 618 LINE",
"100 0 LINE"
);
},
{
closed = 1;
nodes = (
"321 684 LINE",
"321 780 LINE",
"-10 780 LINE",
"-10 684 LINE"
);
}
);
width = 310;
}
);
note = Imacron;
unicode = 012A;
},
{
glyphname = Iogonek;
lastChange = "2015-07-19 06:28:39 +0000";
layers = (
{
layerId = "4CE4ED08-6AC3-4BDD-8925-679D298B3381";
name = Bold;
paths = (
{
closed = 1;
nodes = (
"185 3 LINE",
"185 618 LINE",
"75 618 LINE",
"75 3 LINE"
);
},
{
closed = 1;
nodes = (
"179 -175 OFFCURVE",
"204 -169 OFFCURVE",
"223 -161 CURVE",
"205 -90 LINE",
"192 -94 OFFCURVE",
"179 -95 OFFCURVE",
"166 -95 CURVE SMOOTH",
"152 -95 OFFCURVE",
"140 -94 OFFCURVE",
"130 -91 CURVE",
"128 -85 OFFCURVE",
"127 -79 OFFCURVE",
"127 -71 CURVE SMOOTH",
"127 -38 OFFCURVE",
"144 -18 OFFCURVE",
"184 3 CURVE",
"105 17 LINE",
"63 -11 OFFCURVE",
"31 -40 OFFCURVE",
"31 -91 CURVE SMOOTH",
"31 -145 OFFCURVE",
"71 -175 OFFCURVE",
"147 -175 CURVE SMOOTH"
);
}
);
width = 260;
}
);
note = Iogonek;
unicode = 012E;
},
{
glyphname = Itilde;
lastChange = "2015-07-19 06:41:44 +0000";
layers = (
{
layerId = "4CE4ED08-6AC3-4BDD-8925-679D298B3381";
name = Bold;
paths = (
{
closed = 1;
nodes = (
"184 0 LINE",
"184 618 LINE",
"74 618 LINE",
"74 0 LINE"
);
},
{
closed = 1;
nodes = (
"47 700 OFFCURVE",
"55 720 OFFCURVE",
"81 720 CURVE SMOOTH",
"116 720 OFFCURVE",
"147 679 OFFCURVE",
"194 679 CURVE SMOOTH",
"256 679 OFFCURVE",
"280 719 OFFCURVE",
"283 791 CURVE",
"213 811 LINE",
"211 785 OFFCURVE",
"204 765 OFFCURVE",
"177 765 CURVE SMOOTH",
"148 765 OFFCURVE",
"112 806 OFFCURVE",
"67 806 CURVE SMOOTH",
"3 806 OFFCURVE",
"-21 766 OFFCURVE",
"-24 694 CURVE",
"45 673 LINE"
);
}
);
width = 258;
}
);
note = Itilde;
unicode = 0128;
},
{
glyphname = J;
lastChange = "2015-07-19 04:35:36 +0000";
layers = (
{
layerId = "4CE4ED08-6AC3-4BDD-8925-679D298B3381";
name = Bold;
paths = (
{
closed = 1;
nodes = (
"313 -9 OFFCURVE",
"377 50 OFFCURVE",
"377 156 CURVE SMOOTH",
"377 618 LINE",
"267 618 LINE",
"267 167 LINE SMOOTH",
"267 143 OFFCURVE",
"265 123 OFFCURVE",
"261 107 CURVE",
"241 98 OFFCURVE",
"214 92 OFFCURVE",
"174 92 CURVE SMOOTH",
"129 92 OFFCURVE",
"86 102 OFFCURVE",
"51 115 CURVE",
"26 21 LINE",
"66 2 OFFCURVE",
"125 -9 OFFCURVE",
"179 -9 CURVE SMOOTH"
);
}
);
width = 446;
}
);
note = J;
unicode = 004A;
},
{
glyphname = Jcircumflex;
lastChange = "2015-07-19 04:35:38 +0000";
layers = (
{
layerId = "4CE4ED08-6AC3-4BDD-8925-679D298B3381";
name = Bold;
paths = (
{
closed = 1;
nodes = (
"313 -9 OFFCURVE",
"377 50 OFFCURVE",
"377 156 CURVE SMOOTH",
"377 618 LINE",
"267 618 LINE",
"267 167 LINE SMOOTH",
"267 143 OFFCURVE",
"265 123 OFFCURVE",
"261 107 CURVE",
"241 98 OFFCURVE",
"214 92 OFFCURVE",
"174 92 CURVE SMOOTH",
"129 92 OFFCURVE",
"86 102 OFFCURVE",
"51 115 CURVE",
"26 21 LINE",
"66 2 OFFCURVE",
"125 -9 OFFCURVE",
"179 -9 CURVE SMOOTH"
);
},
{
closed = 1;
nodes = (
"309 746 LINE",
"315 746 LINE",
"392 677 LINE",
"456 689 LINE",
"359 826 LINE",
"265 826 LINE",
"167 689 LINE",
"230 677 LINE"
);
}
);
width = 446;
}
);
note = Jcircumflex;
unicode = 0134;
},
{
glyphname = K;
lastChange = "2015-07-19 04:35:36 +0000";
layers = (
{
layerId = "4CE4ED08-6AC3-4BDD-8925-679D298B3381";
name = Bold;
paths = (
{
closed = 1;
nodes = (
"544 -7 OFFCURVE",
"565 -3 OFFCURVE",
"584 2 CURVE",
"584 64 LINE",
"536 73 LINE",
"451 236 LINE SMOOTH",
"428 280 OFFCURVE",
"412 300 OFFCURVE",
"362 315 CURVE",
"362 321 LINE",
"418 339 OFFCURVE",
"438 364 OFFCURVE",
"460 413 CURVE SMOOTH",
"486 471 OFFCURVE",
"511 529 OFFCURVE",
"537 587 CURVE",
"431 624 LINE",
"404 559 OFFCURVE",
"377 496 OFFCURVE",
"350 431 CURVE SMOOTH",
"333 392 OFFCURVE",
"309 367 OFFCURVE",
"243 367 CURVE SMOOTH",
"181 367 LINE",
"181 618 LINE",
"71 618 LINE",
"71 0 LINE",
"181 0 LINE",
"181 267 LINE",
"249 267 LINE SMOOTH",
"312 267 OFFCURVE",
"332 244 OFFCURVE",
"352 199 CURVE SMOOTH",
"421 45 LINE SMOOTH",
"438 9 OFFCURVE",
"464 -7 OFFCURVE",
"510 -7 CURVE SMOOTH"
);
}
);
width = 613;
}
);
note = K;
unicode = 004B;
},
{
glyphname = Kcommaaccent;
lastChange = "2015-07-19 04:35:37 +0000";
layers = (
{
layerId = "4CE4ED08-6AC3-4BDD-8925-679D298B3381";
name = Bold;
paths = (
{
closed = 1;
nodes = (
"544 -7 OFFCURVE",
"565 -3 OFFCURVE",
"584 2 CURVE",
"584 64 LINE",
"536 73 LINE",
"451 236 LINE SMOOTH",
"428 280 OFFCURVE",
"412 300 OFFCURVE",
"362 315 CURVE",
"362 321 LINE",
"418 339 OFFCURVE",
"438 364 OFFCURVE",
"460 413 CURVE SMOOTH",
"486 471 OFFCURVE",
"511 529 OFFCURVE",
"537 587 CURVE",
"431 624 LINE",
"404 559 OFFCURVE",
"377 496 OFFCURVE",
"350 431 CURVE SMOOTH",
"333 392 OFFCURVE",
"309 367 OFFCURVE",
"243 367 CURVE SMOOTH",
"181 367 LINE",
"181 618 LINE",
"71 618 LINE",
"71 0 LINE",
"181 0 LINE",
"181 267 LINE",
"249 267 LINE SMOOTH",
"312 267 OFFCURVE",
"332 244 OFFCURVE",
"352 199 CURVE SMOOTH",
"421 45 LINE SMOOTH",
"438 9 OFFCURVE",
"464 -7 OFFCURVE",
"510 -7 CURVE SMOOTH"
);
},
{
closed = 1;
nodes = (
"366 -222 OFFCURVE",
"387 -175 OFFCURVE",
"387 -132 CURVE SMOOTH",
"387 -80 OFFCURVE",
"363 -55 OFFCURVE",
"310 -55 CURVE SMOOTH",
"289 -55 OFFCURVE",
"265 -59 OFFCURVE",
"247 -66 CURVE",
"247 -139 LINE",
"300 -139 LINE",
"299 -174 OFFCURVE",
"288 -205 OFFCURVE",
"268 -241 CURVE",
"335 -256 LINE"
);
}
);
width = 613;
}
);
note = Kcommaaccent;
unicode = 0136;
},
{
glyphname = L;
lastChange = "2015-07-19 07:33:06 +0000";
layers = (
{
layerId = "4CE4ED08-6AC3-4BDD-8925-679D298B3381";
name = Bold;
paths = (
{
closed = 1;
nodes = (
"454 0 LINE",
"454 102 LINE",
"181 102 LINE",
"181 618 LINE",
"71 618 LINE",
"71 0 LINE"
);
}
);
width = 474;
}
);
note = L;
rightKerningGroup = L;
unicode = 004C;
},
{
glyphname = Lacute;
lastChange = "2015-07-19 07:33:06 +0000";
layers = (
{
layerId = "4CE4ED08-6AC3-4BDD-8925-679D298B3381";
name = Bold;
paths = (
{
closed = 1;
nodes = (
"454 0 LINE",
"454 102 LINE",
"181 102 LINE",
"181 618 LINE",
"71 618 LINE",
"71 0 LINE"
);
},
{
closed = 1;
nodes = (
"292 830 LINE",
"167 843 LINE",
"84 691 LINE",
"163 677 LINE"
);
}
);
width = 474;
}
);
note = Lacute;
rightKerningGroup = L;
unicode = 0139;
},
{
glyphname = Lcaron;
lastChange = "2015-07-19 07:33:06 +0000";
layers = (
{
layerId = "4CE4ED08-6AC3-4BDD-8925-679D298B3381";
name = Bold;
paths = (
{
closed = 1;
nodes = (
"454 0 LINE",
"454 102 LINE",
"181 102 LINE",
"181 618 LINE",
"71 618 LINE",
"71 0 LINE"
);
},
{
closed = 1;
nodes = (
"380 455 OFFCURVE",
"401 502 OFFCURVE",
"401 545 CURVE SMOOTH",
"401 597 OFFCURVE",
"377 622 OFFCURVE",
"324 622 CURVE SMOOTH",
"303 622 OFFCURVE",
"279 618 OFFCURVE",
"261 611 CURVE",
"261 538 LINE",
"314 538 LINE",
"313 503 OFFCURVE",
"302 471 OFFCURVE",
"282 436 CURVE",
"349 421 LINE"
);
}
);
width = 474;
}
);
note = Lcaron;
rightKerningGroup = L;
unicode = 013D;
},
{
glyphname = Lcommaaccent;
lastChange = "2015-07-19 07:33:06 +0000";
layers = (
{
layerId = "4CE4ED08-6AC3-4BDD-8925-679D298B3381";
name = Bold;
paths = (
{
closed = 1;
nodes = (
"454 0 LINE",
"454 102 LINE",
"181 102 LINE",
"181 618 LINE",
"71 618 LINE",
"71 0 LINE"
);
},
{
closed = 1;
nodes = (
"327 -222 OFFCURVE",
"348 -175 OFFCURVE",
"348 -132 CURVE SMOOTH",
"348 -80 OFFCURVE",
"324 -55 OFFCURVE",
"271 -55 CURVE SMOOTH",
"250 -55 OFFCURVE",
"226 -59 OFFCURVE",
"208 -66 CURVE",
"208 -139 LINE",
"261 -139 LINE",
"260 -174 OFFCURVE",
"249 -205 OFFCURVE",
"229 -241 CURVE",
"296 -256 LINE"
);
}
);
width = 474;
}
);
note = Lcommaaccent;
rightKerningGroup = L;
unicode = 013B;
},
{
glyphname = Ldot;
lastChange = "2015-07-19 07:33:06 +0000";
layers = (
{
layerId = "4CE4ED08-6AC3-4BDD-8925-679D298B3381";
name = Bold;
paths = (
{
closed = 1;
nodes = (
"454 0 LINE",
"454 102 LINE",
"181 102 LINE",
"181 618 LINE",
"71 618 LINE",
"71 0 LINE"
);
},
{
closed = 1;
nodes = (
"363 230 OFFCURVE",
"391 256 OFFCURVE",
"391 293 CURVE SMOOTH",
"391 329 OFFCURVE",
"362 356 OFFCURVE",
"326 356 CURVE SMOOTH",
"289 356 OFFCURVE",
"261 329 OFFCURVE",
"261 293 CURVE SMOOTH",
"261 256 OFFCURVE",
"289 230 OFFCURVE",
"326 230 CURVE SMOOTH"
);
}
);
width = 474;
}
);
note = Ldot;
rightKerningGroup = L;
unicode = 013F;
},
{
glyphname = Ldotbelow;
lastChange = "2015-07-19 07:33:06 +0000";
layers = (
{
layerId = "4CE4ED08-6AC3-4BDD-8925-679D298B3381";
name = Bold;
paths = (
{
closed = 1;
nodes = (
"454 0 LINE",
"454 102 LINE",
"181 102 LINE",
"181 618 LINE",
"71 618 LINE",
"71 0 LINE"
);
},
{
closed = 1;
nodes = (
"315 -181 OFFCURVE",
"341 -157 OFFCURVE",
"341 -118 CURVE SMOOTH",
"341 -75 OFFCURVE",
"315 -52 OFFCURVE",
"272 -52 CURVE SMOOTH",
"229 -52 OFFCURVE",
"204 -75 OFFCURVE",
"204 -118 CURVE SMOOTH",
"204 -157 OFFCURVE",
"229 -181 OFFCURVE",
"272 -181 CURVE SMOOTH"
);
}
);
width = 474;
}
);
note = Ldotbelow;
rightKerningGroup = L;
unicode = 1E36;
},
{
glyphname = Ldotbelowmacron;
lastChange = "2015-07-19 07:33:06 +0000";
layers = (
{
layerId = "4CE4ED08-6AC3-4BDD-8925-679D298B3381";
name = Bold;
paths = (
{
closed = 1;
nodes = (
"454 0 LINE",
"454 102 LINE",
"181 102 LINE",
"181 618 LINE",
"71 618 LINE",
"71 0 LINE"
);
},
{
closed = 1;
nodes = (
"293 684 LINE",
"293 780 LINE",
"-38 780 LINE",
"-38 684 LINE"
);
},
{
closed = 1;
nodes = (
"315 -181 OFFCURVE",
"341 -157 OFFCURVE",
"341 -118 CURVE SMOOTH",
"341 -75 OFFCURVE",
"315 -52 OFFCURVE",
"272 -52 CURVE SMOOTH",
"229 -52 OFFCURVE",
"204 -75 OFFCURVE",
"204 -118 CURVE SMOOTH",
"204 -157 OFFCURVE",
"229 -181 OFFCURVE",
"272 -181 CURVE SMOOTH"
);
}
);
width = 474;
}
);
note = Ldotbelowmacron;
rightKerningGroup = L;
unicode = 1E38;
},
{
glyphname = Llinebelow;
lastChange = "2015-07-19 07:33:06 +0000";
layers = (
{
layerId = "4CE4ED08-6AC3-4BDD-8925-679D298B3381";
name = Bold;
paths = (
{
closed = 1;
nodes = (
"454 0 LINE",
"454 102 LINE",
"181 102 LINE",
"181 618 LINE",
"71 618 LINE",
"71 0 LINE"
);
},
{
closed = 1;
nodes = (
"404 -145 LINE",
"404 -55 LINE",
"71 -55 LINE",
"71 -145 LINE"
);
}
);
width = 474;
}
);
note = Llinebelow;
rightKerningGroup = L;
unicode = 1E3A;
},
{
glyphname = Lslash;
lastChange = "2015-07-19 07:33:06 +0000";
layers = (
{
layerId = "4CE4ED08-6AC3-4BDD-8925-679D298B3381";
name = Bold;
paths = (
{
closed = 1;
nodes = (
"476 0 LINE",
"476 102 LINE",
"203 102 LINE",
"203 269 LINE",
"337 311 LINE",
"311 395 LINE",
"203 362 LINE",
"203 618 LINE",
"93 618 LINE",
"93 326 LINE",
"-16 292 LINE",
"10 208 LINE",
"93 234 LINE",
"93 0 LINE"
);
}
);
width = 496;
}
);
note = Lslash;
rightKerningGroup = L;
unicode = 0141;
},
{
glyphname = M;
lastChange = "2015-07-19 04:35:36 +0000";
layers = (
{
layerId = "4CE4ED08-6AC3-4BDD-8925-679D298B3381";
name = Bold;
paths = (
{
closed = 1;
nodes = (
"175 0 LINE",
"187 311 LINE",
"185 467 LINE",
"193 469 LINE",
"313 169 LINE",
"398 169 LINE",
"518 469 LINE",
"526 467 LINE",
"525 311 LINE",
"536 0 LINE",
"647 0 LINE",
"623 618 LINE",
"485 618 LINE",
"359 280 LINE",
"352 280 LINE",
"227 618 LINE",
"88 618 LINE",
"64 0 LINE"
);
}
);
width = 712;
}
);
note = M;
unicode = 004D;
},
{
glyphname = Mdotbelow;
lastChange = "2015-07-19 04:35:38 +0000";
layers = (
{
layerId = "4CE4ED08-6AC3-4BDD-8925-679D298B3381";
name = Bold;
paths = (
{
closed = 1;
nodes = (
"175 0 LINE",
"187 311 LINE",
"185 467 LINE",
"193 469 LINE",
"313 169 LINE",
"398 169 LINE",
"518 469 LINE",
"526 467 LINE",
"525 311 LINE",
"536 0 LINE",
"647 0 LINE",
"623 618 LINE",
"485 618 LINE",
"359 280 LINE",
"352 280 LINE",
"227 618 LINE",
"88 618 LINE",
"64 0 LINE"
);
},
{
closed = 1;
nodes = (
"399 -181 OFFCURVE",
"425 -157 OFFCURVE",
"425 -118 CURVE SMOOTH",
"425 -75 OFFCURVE",
"399 -52 OFFCURVE",
"356 -52 CURVE SMOOTH",
"313 -52 OFFCURVE",
"288 -75 OFFCURVE",
"288 -118 CURVE SMOOTH",
"288 -157 OFFCURVE",
"313 -181 OFFCURVE",
"356 -181 CURVE SMOOTH"
);
}
);
width = 712;
}
);
note = Mdotbelow;
unicode = 1E42;
},
{
glyphname = N;
lastChange = "2015-07-19 04:35:36 +0000";
layers = (
{
layerId = "4CE4ED08-6AC3-4BDD-8925-679D298B3381";
name = Bold;
paths = (
{
closed = 1;
nodes = (
"181 0 LINE",
"181 316 LINE",
"170 476 LINE",
"178 478 LINE",
"436 0 LINE",
"571 0 LINE",
"571 618 LINE",
"460 618 LINE",
"460 301 LINE",
"471 142 LINE",
"463 140 LINE",
"206 618 LINE",
"71 618 LINE",
"71 0 LINE"
);
}
);
width = 642;
}
);
note = N;
unicode = 004E;
},
{
glyphname = Nacute;
lastChange = "2015-07-19 04:35:37 +0000";
layers = (
{
layerId = "4CE4ED08-6AC3-4BDD-8925-679D298B3381";
name = Bold;
paths = (
{
closed = 1;
nodes = (
"181 0 LINE",
"181 316 LINE",
"170 476 LINE",
"178 478 LINE",
"436 0 LINE",
"571 0 LINE",
"571 618 LINE",
"460 618 LINE",
"460 301 LINE",
"471 142 LINE",
"463 140 LINE",
"206 618 LINE",
"71 618 LINE",
"71 0 LINE"
);
},
{
closed = 1;
nodes = (
"477 834 LINE",
"352 847 LINE",
"269 694 LINE",
"348 680 LINE"
);
}
);
width = 642;
}
);
note = Nacute;
unicode = 0143;
},
{
glyphname = Ncaron;
lastChange = "2015-07-19 04:35:38 +0000";
layers = (
{
layerId = "4CE4ED08-6AC3-4BDD-8925-679D298B3381";
name = Bold;
paths = (
{
closed = 1;
nodes = (
"181 0 LINE",
"181 316 LINE",
"170 476 LINE",
"178 478 LINE",
"436 0 LINE",
"571 0 LINE",
"571 618 LINE",
"460 618 LINE",
"460 301 LINE",
"471 142 LINE",
"463 140 LINE",
"206 618 LINE",
"71 618 LINE",
"71 0 LINE"
);
},
{
closed = 1;
nodes = (
"373 684 LINE",
"470 821 LINE",
"406 833 LINE",
"329 764 LINE",
"323 764 LINE",
"244 833 LINE",
"181 821 LINE",
"279 684 LINE"
);
}
);
width = 642;
}
);
note = Ncaron;
unicode = 0147;
},
{
glyphname = Ncommaaccent;
lastChange = "2015-07-19 04:35:38 +0000";
layers = (
{
layerId = "4CE4ED08-6AC3-4BDD-8925-679D298B3381";
name = Bold;
paths = (
{
closed = 1;
nodes = (
"181 0 LINE",
"181 316 LINE",
"170 476 LINE",
"178 478 LINE",
"436 0 LINE",
"571 0 LINE",
"571 618 LINE",
"460 618 LINE",
"460 301 LINE",
"471 142 LINE",
"463 140 LINE",
"206 618 LINE",
"71 618 LINE",
"71 0 LINE"
);
},
{
closed = 1;
nodes = (
"394 -222 OFFCURVE",
"415 -175 OFFCURVE",
"415 -132 CURVE SMOOTH",
"415 -80 OFFCURVE",
"391 -55 OFFCURVE",
"338 -55 CURVE SMOOTH",
"317 -55 OFFCURVE",
"293 -59 OFFCURVE",
"275 -66 CURVE",
"275 -139 LINE",
"328 -139 LINE",
"327 -174 OFFCURVE",
"316 -205 OFFCURVE",
"296 -241 CURVE",
"363 -256 LINE"
);
}
);
width = 642;
}
);
note = Ncommaaccent;
unicode = 0145;
},
{
glyphname = Ndotaccent;
lastChange = "2015-07-19 04:35:37 +0000";
layers = (
{
layerId = "4CE4ED08-6AC3-4BDD-8925-679D298B3381";
name = Bold;
paths = (
{
closed = 1;
nodes = (
"181 0 LINE",
"181 316 LINE",
"170 476 LINE",
"178 478 LINE",
"436 0 LINE",
"571 0 LINE",
"571 618 LINE",
"460 618 LINE",
"460 301 LINE",
"471 142 LINE",
"463 140 LINE",
"206 618 LINE",
"71 618 LINE",
"71 0 LINE"
);
},
{
closed = 1;
nodes = (
"371 681 OFFCURVE",
"397 705 OFFCURVE",
"397 745 CURVE SMOOTH",
"397 787 OFFCURVE",
"371 811 OFFCURVE",
"328 811 CURVE SMOOTH",
"285 811 OFFCURVE",
"260 787 OFFCURVE",
"260 745 CURVE SMOOTH",
"260 705 OFFCURVE",
"285 681 OFFCURVE",
"328 681 CURVE SMOOTH"
);
}
);
width = 642;
}
);
note = Ndotaccent;
unicode = 1E44;
},
{
glyphname = Ndotbelow;
lastChange = "2015-07-19 04:35:37 +0000";
layers = (
{
layerId = "4CE4ED08-6AC3-4BDD-8925-679D298B3381";
name = Bold;
paths = (
{
closed = 1;
nodes = (
"181 0 LINE",
"181 316 LINE",
"170 476 LINE",
"178 478 LINE",
"436 0 LINE",
"571 0 LINE",
"571 618 LINE",
"460 618 LINE",
"460 301 LINE",
"471 142 LINE",
"463 140 LINE",
"206 618 LINE",
"71 618 LINE",
"71 0 LINE"
);
},
{
closed = 1;
nodes = (
"374 -183 OFFCURVE",
"400 -159 OFFCURVE",
"400 -120 CURVE SMOOTH",
"400 -77 OFFCURVE",
"374 -53 OFFCURVE",
"331 -53 CURVE SMOOTH",
"288 -53 OFFCURVE",
"263 -77 OFFCURVE",
"263 -120 CURVE SMOOTH",
"263 -159 OFFCURVE",
"288 -183 OFFCURVE",
"331 -183 CURVE SMOOTH"
);
}
);
width = 642;
}
);
note = Ndotbelow;
unicode = 1E46;
},
{
glyphname = Eng;
lastChange = "2015-07-19 04:35:37 +0000";
layers = (
{
layerId = "4CE4ED08-6AC3-4BDD-8925-679D298B3381";
name = Bold;
paths = (
{
closed = 1;
nodes = (
"522 -202 OFFCURVE",
"571 -131 OFFCURVE",
"571 -8 CURVE SMOOTH",
"571 618 LINE",
"460 618 LINE",
"460 301 LINE",
"471 142 LINE",
"463 140 LINE",
"206 618 LINE",
"71 618 LINE",
"71 0 LINE",
"181 0 LINE",
"181 316 LINE",
"170 476 LINE",
"178 478 LINE",
"446 0 LINE",
"446 -30 LINE SMOOTH",
"446 -57 OFFCURVE",
"444 -80 OFFCURVE",
"440 -99 CURVE",
"407 -117 OFFCURVE",
"366 -128 OFFCURVE",
"319 -137 CURVE",
"357 -242 LINE"
);
}
);
width = 642;
}
);
note = Eng;
unicode = 014A;
},
{
glyphname = Nlinebelow;
lastChange = "2015-07-19 04:35:38 +0000";
layers = (
{
layerId = "4CE4ED08-6AC3-4BDD-8925-679D298B3381";
name = Bold;
paths = (
{
closed = 1;
nodes = (
"181 0 LINE",
"181 316 LINE",
"170 476 LINE",
"178 478 LINE",
"436 0 LINE",
"571 0 LINE",
"571 618 LINE",
"460 618 LINE",
"460 301 LINE",
"471 142 LINE",
"463 140 LINE",
"206 618 LINE",
"71 618 LINE",
"71 0 LINE"
);
},
{
closed = 1;
nodes = (
"502 -147 LINE",
"502 -57 LINE",
"169 -57 LINE",
"169 -147 LINE"
);
}
);
width = 642;
}
);
note = Nlinebelow;
unicode = 1E48;
},
{
glyphname = Ntilde;
lastChange = "2015-07-19 04:35:38 +0000";
layers = (
{
layerId = "4CE4ED08-6AC3-4BDD-8925-679D298B3381";
name = Bold;
paths = (
{
closed = 1;
nodes = (
"181 0 LINE",
"181 316 LINE",
"170 476 LINE",
"178 478 LINE",
"436 0 LINE",
"571 0 LINE",
"571 618 LINE",
"460 618 LINE",
"460 301 LINE",
"471 142 LINE",
"463 140 LINE",
"206 618 LINE",
"71 618 LINE",
"71 0 LINE"
);
},
{
closed = 1;
nodes = (
"238 699 OFFCURVE",
"246 719 OFFCURVE",
"272 719 CURVE SMOOTH",
"307 719 OFFCURVE",
"338 678 OFFCURVE",
"385 678 CURVE SMOOTH",
"447 678 OFFCURVE",
"471 718 OFFCURVE",
"474 790 CURVE",
"405 811 LINE",
"402 784 OFFCURVE",
"395 764 OFFCURVE",
"368 764 CURVE SMOOTH",
"339 764 OFFCURVE",
"303 805 OFFCURVE",
"258 805 CURVE SMOOTH",
"194 805 OFFCURVE",
"170 765 OFFCURVE",
"167 693 CURVE",
"236 672 LINE"
);
}
);
width = 642;
}
);
note = Ntilde;
unicode = 00D1;
},
{
glyphname = O;
lastChange = "2015-07-19 08:43:52 +0000";
layers = (
{
layerId = "4CE4ED08-6AC3-4BDD-8925-679D298B3381";
name = Bold;
paths = (
{
closed = 1;
nodes = (
"503 -8 OFFCURVE",
"590 101 OFFCURVE",
"590 321 CURVE SMOOTH",
"590 522 OFFCURVE",
"506 628 OFFCURVE",
"329 628 CURVE SMOOTH",
"134 628 OFFCURVE",
"48 518 OFFCURVE",
"48 298 CURVE SMOOTH",
"48 97 OFFCURVE",
"136 -8 OFFCURVE",
"308 -8 CURVE SMOOTH"
);
},
{
closed = 1;
nodes = (
"195 93 OFFCURVE",
"157 164 OFFCURVE",
"157 315 CURVE SMOOTH",
"157 393 OFFCURVE",
"171 456 OFFCURVE",
"194 508 CURVE",
"221 519 OFFCURVE",
"265 526 OFFCURVE",
"312 526 CURVE SMOOTH",
"443 526 OFFCURVE",
"480 454 OFFCURVE",
"480 304 CURVE SMOOTH",
"480 225 OFFCURVE",
"462 161 OFFCURVE",
"440 111 CURVE",
"413 100 OFFCURVE",
"372 93 OFFCURVE",
"325 93 CURVE SMOOTH"
);
}
);
width = 638;
}
);
leftKerningGroup = O;
note = O;
rightKerningGroup = O;
unicode = 004F;
},
{
glyphname = Oacute;
lastChange = "2015-07-19 08:43:44 +0000";
layers = (
{
layerId = "4CE4ED08-6AC3-4BDD-8925-679D298B3381";
name = Bold;
paths = (
{
closed = 1;
nodes = (
"503 -8 OFFCURVE",
"590 101 OFFCURVE",
"590 321 CURVE SMOOTH",
"590 522 OFFCURVE",
"506 628 OFFCURVE",
"329 628 CURVE SMOOTH",
"134 628 OFFCURVE",
"48 518 OFFCURVE",
"48 298 CURVE SMOOTH",
"48 97 OFFCURVE",
"136 -8 OFFCURVE",
"308 -8 CURVE SMOOTH"
);
},
{
closed = 1;
nodes = (
"195 93 OFFCURVE",
"157 164 OFFCURVE",
"157 315 CURVE SMOOTH",
"157 393 OFFCURVE",
"171 456 OFFCURVE",
"194 508 CURVE",
"221 519 OFFCURVE",
"265 526 OFFCURVE",
"312 526 CURVE SMOOTH",
"443 526 OFFCURVE",
"480 454 OFFCURVE",
"480 304 CURVE SMOOTH",
"480 225 OFFCURVE",
"462 161 OFFCURVE",
"440 111 CURVE",
"413 100 OFFCURVE",
"372 93 OFFCURVE",
"325 93 CURVE SMOOTH"
);
},
{
closed = 1;
nodes = (
"477 831 LINE",
"352 844 LINE",
"269 691 LINE",
"348 677 LINE"
);
}
);
width = 638;
}
);
leftKerningGroup = O;
note = Oacute;
rightKerningGroup = O;
unicode = 00D3;
},
{
glyphname = Obreve;
lastChange = "2015-07-19 08:43:44 +0000";
layers = (
{
layerId = "4CE4ED08-6AC3-4BDD-8925-679D298B3381";
name = Bold;
paths = (
{
closed = 1;
nodes = (
"503 -8 OFFCURVE",
"590 101 OFFCURVE",
"590 321 CURVE SMOOTH",
"590 522 OFFCURVE",
"506 628 OFFCURVE",
"329 628 CURVE SMOOTH",
"134 628 OFFCURVE",
"48 518 OFFCURVE",
"48 298 CURVE SMOOTH",
"48 97 OFFCURVE",
"136 -8 OFFCURVE",
"308 -8 CURVE SMOOTH"
);
},
{
closed = 1;
nodes = (
"195 93 OFFCURVE",
"157 164 OFFCURVE",
"157 315 CURVE SMOOTH",
"157 393 OFFCURVE",
"171 456 OFFCURVE",
"194 508 CURVE",
"221 519 OFFCURVE",
"265 526 OFFCURVE",
"312 526 CURVE SMOOTH",
"443 526 OFFCURVE",
"480 454 OFFCURVE",
"480 304 CURVE SMOOTH",
"480 225 OFFCURVE",
"462 161 OFFCURVE",
"440 111 CURVE",
"413 100 OFFCURVE",
"372 93 OFFCURVE",
"325 93 CURVE SMOOTH"
);
},
{
closed = 1;
nodes = (
"411 681 OFFCURVE",
"454 726 OFFCURVE",
"462 805 CURVE",
"366 820 LINE",
"364 785 OFFCURVE",
"354 765 OFFCURVE",
"316 765 CURVE SMOOTH",
"278 765 OFFCURVE",
"268 785 OFFCURVE",
"266 820 CURVE",
"170 805 LINE",
"178 726 OFFCURVE",
"221 681 OFFCURVE",
"316 681 CURVE SMOOTH"
);
}
);
width = 638;
}
);
leftKerningGroup = O;
note = Obreve;
rightKerningGroup = O;
unicode = 014E;
},
{
glyphname = Ocaron;
lastChange = "2015-07-19 08:43:44 +0000";
layers = (
{
layerId = "4CE4ED08-6AC3-4BDD-8925-679D298B3381";
name = Bold;
paths = (
{
closed = 1;
nodes = (
"503 -8 OFFCURVE",
"590 101 OFFCURVE",
"590 321 CURVE SMOOTH",
"590 522 OFFCURVE",
"506 628 OFFCURVE",
"329 628 CURVE SMOOTH",
"134 628 OFFCURVE",
"48 518 OFFCURVE",
"48 298 CURVE SMOOTH",
"48 97 OFFCURVE",
"136 -8 OFFCURVE",
"308 -8 CURVE SMOOTH"
);
},
{
closed = 1;
nodes = (
"195 93 OFFCURVE",
"157 164 OFFCURVE",
"157 315 CURVE SMOOTH",
"157 393 OFFCURVE",
"171 456 OFFCURVE",
"194 508 CURVE",
"221 519 OFFCURVE",
"265 526 OFFCURVE",
"312 526 CURVE SMOOTH",
"443 526 OFFCURVE",
"480 454 OFFCURVE",
"480 304 CURVE SMOOTH",
"480 225 OFFCURVE",
"462 161 OFFCURVE",
"440 111 CURVE",
"413 100 OFFCURVE",
"372 93 OFFCURVE",
"325 93 CURVE SMOOTH"
);
},
{
closed = 1;
nodes = (
"366 684 LINE",
"463 821 LINE",
"399 833 LINE",
"322 764 LINE",
"316 764 LINE",
"237 833 LINE",
"174 821 LINE",
"272 684 LINE"
);
}
);
width = 638;
}
);
leftKerningGroup = O;
note = Ocaron;
rightKerningGroup = O;
unicode = 01D1;
},
{
glyphname = Ocircumflex;
lastChange = "2015-07-19 08:43:44 +0000";
layers = (
{
layerId = "4CE4ED08-6AC3-4BDD-8925-679D298B3381";
name = Bold;
paths = (
{
closed = 1;
nodes = (
"503 -8 OFFCURVE",
"590 101 OFFCURVE",
"590 321 CURVE SMOOTH",
"590 522 OFFCURVE",
"506 628 OFFCURVE",
"329 628 CURVE SMOOTH",
"134 628 OFFCURVE",
"48 518 OFFCURVE",
"48 298 CURVE SMOOTH",
"48 97 OFFCURVE",
"136 -8 OFFCURVE",
"308 -8 CURVE SMOOTH"
);
},
{
closed = 1;
nodes = (
"195 93 OFFCURVE",
"157 164 OFFCURVE",
"157 315 CURVE SMOOTH",
"157 393 OFFCURVE",
"171 456 OFFCURVE",
"194 508 CURVE",
"221 519 OFFCURVE",
"265 526 OFFCURVE",
"312 526 CURVE SMOOTH",
"443 526 OFFCURVE",
"480 454 OFFCURVE",
"480 304 CURVE SMOOTH",
"480 225 OFFCURVE",
"462 161 OFFCURVE",
"440 111 CURVE",
"413 100 OFFCURVE",
"372 93 OFFCURVE",
"325 93 CURVE SMOOTH"
);
},
{
closed = 1;
nodes = (
"319 746 LINE",
"325 746 LINE",
"402 677 LINE",
"466 689 LINE",
"369 826 LINE",
"275 826 LINE",
"177 689 LINE",
"240 677 LINE"
);
}
);
width = 638;
}
);
leftKerningGroup = O;
note = Ocircumflex;
rightKerningGroup = O;
unicode = 00D4;
},
{
glyphname = Ocircumflexacute;
lastChange = "2015-07-19 08:43:44 +0000";
layers = (
{
layerId = "4CE4ED08-6AC3-4BDD-8925-679D298B3381";
name = Bold;
paths = (
{
closed = 1;
nodes = (
"503 -8 OFFCURVE",
"590 101 OFFCURVE",
"590 321 CURVE SMOOTH",
"590 522 OFFCURVE",
"506 628 OFFCURVE",
"329 628 CURVE SMOOTH",
"134 628 OFFCURVE",
"48 518 OFFCURVE",
"48 298 CURVE SMOOTH",
"48 97 OFFCURVE",
"136 -8 OFFCURVE",
"308 -8 CURVE SMOOTH"
);
},
{
closed = 1;
nodes = (
"195 93 OFFCURVE",
"157 164 OFFCURVE",
"157 315 CURVE SMOOTH",
"157 393 OFFCURVE",
"171 456 OFFCURVE",
"194 508 CURVE",
"221 519 OFFCURVE",
"265 526 OFFCURVE",
"312 526 CURVE SMOOTH",
"443 526 OFFCURVE",
"480 454 OFFCURVE",
"480 304 CURVE SMOOTH",
"480 225 OFFCURVE",
"462 161 OFFCURVE",
"440 111 CURVE",
"413 100 OFFCURVE",
"372 93 OFFCURVE",
"325 93 CURVE SMOOTH"
);
},
{
closed = 1;
nodes = (
"325 747 LINE",
"331 747 LINE",
"407 677 LINE",
"472 690 LINE",
"375 825 LINE",
"281 825 LINE",
"183 690 LINE",
"246 677 LINE"
);
},
{
closed = 1;
nodes = (
"608 877 LINE",
"509 893 LINE",
"448 781 LINE",
"516 766 LINE"
);
}
);
width = 640;
}
);
leftKerningGroup = O;
note = Ocircumflexacute;
rightKerningGroup = O;
unicode = 1ED0;
},
{
glyphname = Ocircumflexdotbelow;
lastChange = "2015-07-19 08:43:44 +0000";
layers = (
{
layerId = "4CE4ED08-6AC3-4BDD-8925-679D298B3381";
name = Bold;
paths = (
{
closed = 1;
nodes = (
"503 -8 OFFCURVE",
"590 101 OFFCURVE",
"590 321 CURVE SMOOTH",
"590 522 OFFCURVE",
"506 628 OFFCURVE",
"329 628 CURVE SMOOTH",
"134 628 OFFCURVE",
"48 518 OFFCURVE",
"48 298 CURVE SMOOTH",
"48 97 OFFCURVE",
"136 -8 OFFCURVE",
"308 -8 CURVE SMOOTH"
);
},
{
closed = 1;
nodes = (
"368 -185 OFFCURVE",
"394 -161 OFFCURVE",
"394 -121 CURVE SMOOTH",
"394 -79 OFFCURVE",
"368 -55 OFFCURVE",
"325 -55 CURVE SMOOTH",
"282 -55 OFFCURVE",
"257 -79 OFFCURVE",
"257 -121 CURVE SMOOTH",
"257 -161 OFFCURVE",
"282 -185 OFFCURVE",
"325 -185 CURVE SMOOTH"
);
},
{
closed = 1;
nodes = (
"195 93 OFFCURVE",
"157 164 OFFCURVE",
"157 315 CURVE SMOOTH",
"157 393 OFFCURVE",
"171 456 OFFCURVE",
"194 508 CURVE",
"221 519 OFFCURVE",
"265 526 OFFCURVE",
"312 526 CURVE SMOOTH",
"443 526 OFFCURVE",
"480 454 OFFCURVE",
"480 304 CURVE SMOOTH",
"480 225 OFFCURVE",
"462 161 OFFCURVE",
"440 111 CURVE",
"413 100 OFFCURVE",
"372 93 OFFCURVE",
"325 93 CURVE SMOOTH"
);
},
{
closed = 1;
nodes = (
"323 747 LINE",
"329 747 LINE",
"406 677 LINE",
"470 690 LINE",
"373 827 LINE",
"279 827 LINE",
"181 690 LINE",
"244 677 LINE"
);
}
);
width = 638;
}
);
leftKerningGroup = O;
note = Ocircumflexdotbelow;
rightKerningGroup = O;
unicode = 1ED8;
},
{
glyphname = Ocircumflexgrave;
lastChange = "2015-07-19 08:43:44 +0000";
layers = (
{
layerId = "4CE4ED08-6AC3-4BDD-8925-679D298B3381";
name = Bold;
paths = (
{
closed = 1;
nodes = (
"505 -8 OFFCURVE",
"592 101 OFFCURVE",
"592 321 CURVE SMOOTH",
"592 522 OFFCURVE",
"508 628 OFFCURVE",
"331 628 CURVE SMOOTH",
"136 628 OFFCURVE",
"50 518 OFFCURVE",
"50 298 CURVE SMOOTH",
"50 97 OFFCURVE",
"138 -8 OFFCURVE",
"310 -8 CURVE SMOOTH"
);
},
{
closed = 1;
nodes = (
"197 93 OFFCURVE",
"159 164 OFFCURVE",
"159 315 CURVE SMOOTH",
"159 393 OFFCURVE",
"173 456 OFFCURVE",
"196 508 CURVE",
"223 519 OFFCURVE",
"267 526 OFFCURVE",
"314 526 CURVE SMOOTH",
"445 526 OFFCURVE",
"482 454 OFFCURVE",
"482 304 CURVE SMOOTH",
"482 225 OFFCURVE",
"464 161 OFFCURVE",
"442 111 CURVE",
"415 100 OFFCURVE",
"374 93 OFFCURVE",
"327 93 CURVE SMOOTH"
);
},
{
closed = 1;
nodes = (
"315 746 LINE",
"321 746 LINE",
"400 677 LINE",
"463 689 LINE",
"365 825 LINE",
"271 825 LINE",
"174 689 LINE",
"239 677 LINE"
);
},
{
closed = 1;
nodes = (
"198 780 LINE",
"137 892 LINE",
"38 876 LINE",
"130 765 LINE"
);
}
);
width = 640;
}
);
leftKerningGroup = O;
note = Ocircumflexgrave;
rightKerningGroup = O;
unicode = 1ED2;
},
{
glyphname = Ocircumflexhookabove;
lastChange = "2015-07-19 08:43:44 +0000";
layers = (
{
layerId = "4CE4ED08-6AC3-4BDD-8925-679D298B3381";
name = Bold;
paths = (
{
closed = 1;
nodes = (
"503 -8 OFFCURVE",
"590 101 OFFCURVE",
"590 321 CURVE SMOOTH",
"590 522 OFFCURVE",
"506 628 OFFCURVE",
"329 628 CURVE SMOOTH",
"134 628 OFFCURVE",
"48 518 OFFCURVE",
"48 298 CURVE SMOOTH",
"48 97 OFFCURVE",
"136 -8 OFFCURVE",
"308 -8 CURVE SMOOTH"
);
},
{
closed = 1;
nodes = (
"195 93 OFFCURVE",
"157 164 OFFCURVE",
"157 315 CURVE SMOOTH",
"157 393 OFFCURVE",
"171 456 OFFCURVE",
"194 508 CURVE",
"221 519 OFFCURVE",
"265 526 OFFCURVE",
"312 526 CURVE SMOOTH",
"443 526 OFFCURVE",
"480 454 OFFCURVE",
"480 304 CURVE SMOOTH",
"480 225 OFFCURVE",
"462 161 OFFCURVE",
"440 111 CURVE",
"413 100 OFFCURVE",
"372 93 OFFCURVE",
"325 93 CURVE SMOOTH"
);
},
{
closed = 1;
nodes = (
"318 747 LINE",
"324 747 LINE",
"401 677 LINE",
"465 690 LINE",
"368 825 LINE",
"274 825 LINE",
"176 690 LINE",
"240 677 LINE"
);
},
{
closed = 1;
nodes = (
"499 784 LINE",
"499 820 LINE",
"539 821 OFFCURVE",
"559 843 OFFCURVE",
"559 879 CURVE SMOOTH",
"559 920 OFFCURVE",
"535 942 OFFCURVE",
"484 942 CURVE SMOOTH",
"458 942 OFFCURVE",
"437 937 OFFCURVE",
"414 928 CURVE",
"428 880 LINE",
"441 885 OFFCURVE",
"456 888 OFFCURVE",
"468 888 CURVE SMOOTH",
"484 888 OFFCURVE",
"492 884 OFFCURVE",
"492 874 CURVE SMOOTH",
"492 861 OFFCURVE",
"479 858 OFFCURVE",
"436 858 CURVE",
"436 822 LINE",
"446 784 LINE"
);
}
);
width = 638;
}
);
leftKerningGroup = O;
note = Ocircumflexhookabove;
rightKerningGroup = O;
unicode = 1ED4;
},
{
glyphname = Ocircumflextilde;
lastChange = "2015-07-19 08:43:44 +0000";
layers = (
{
layerId = "4CE4ED08-6AC3-4BDD-8925-679D298B3381";
name = Bold;
paths = (
{
closed = 1;
nodes = (
"503 -8 OFFCURVE",
"590 101 OFFCURVE",
"590 321 CURVE SMOOTH",
"590 522 OFFCURVE",
"506 628 OFFCURVE",
"329 628 CURVE SMOOTH",
"134 628 OFFCURVE",
"48 518 OFFCURVE",
"48 298 CURVE SMOOTH",
"48 97 OFFCURVE",
"136 -8 OFFCURVE",
"308 -8 CURVE SMOOTH"
);
},
{
closed = 1;
nodes = (
"195 93 OFFCURVE",
"157 164 OFFCURVE",
"157 315 CURVE SMOOTH",
"157 393 OFFCURVE",
"171 456 OFFCURVE",
"194 508 CURVE",
"221 519 OFFCURVE",
"265 526 OFFCURVE",
"312 526 CURVE SMOOTH",
"443 526 OFFCURVE",
"480 454 OFFCURVE",
"480 304 CURVE SMOOTH",
"480 225 OFFCURVE",
"462 161 OFFCURVE",
"440 111 CURVE",
"413 100 OFFCURVE",
"372 93 OFFCURVE",
"325 93 CURVE SMOOTH"
);
},
{
closed = 1;
nodes = (
"317 747 LINE",
"323 747 LINE",
"400 677 LINE",
"464 690 LINE",
"367 825 LINE",
"273 825 LINE",
"175 690 LINE",
"239 677 LINE"
);
},
{
closed = 1;
nodes = (
"251 886 OFFCURVE",
"258 901 OFFCURVE",
"280 901 CURVE SMOOTH",
"310 901 OFFCURVE",
"336 870 OFFCURVE",
"375 870 CURVE SMOOTH",
"423 870 OFFCURVE",
"445 900 OFFCURVE",
"447 956 CURVE",
"394 972 LINE",
"392 951 OFFCURVE",
"385 936 OFFCURVE",
"363 936 CURVE SMOOTH",
"338 936 OFFCURVE",
"307 967 OFFCURVE",
"269 967 CURVE SMOOTH",
"220 967 OFFCURVE",
"198 937 OFFCURVE",
"196 881 CURVE",
"249 865 LINE"
);
}
);
width = 638;
}
);
leftKerningGroup = O;
note = Ocircumflextilde;
rightKerningGroup = O;
unicode = 1ED6;
},
{
glyphname = Odieresis;
lastChange = "2015-07-19 08:43:44 +0000";
layers = (
{
layerId = "4CE4ED08-6AC3-4BDD-8925-679D298B3381";
name = Bold;
paths = (
{
closed = 1;
nodes = (
"503 -8 OFFCURVE",
"590 101 OFFCURVE",
"590 321 CURVE SMOOTH",
"590 522 OFFCURVE",
"506 628 OFFCURVE",
"329 628 CURVE SMOOTH",
"134 628 OFFCURVE",
"48 518 OFFCURVE",
"48 298 CURVE SMOOTH",
"48 97 OFFCURVE",
"136 -8 OFFCURVE",
"308 -8 CURVE SMOOTH"
);
},
{
closed = 1;
nodes = (
"195 93 OFFCURVE",
"157 164 OFFCURVE",
"157 315 CURVE SMOOTH",
"157 393 OFFCURVE",
"171 456 OFFCURVE",
"194 508 CURVE",
"221 519 OFFCURVE",
"265 526 OFFCURVE",
"312 526 CURVE SMOOTH",
"443 526 OFFCURVE",
"480 454 OFFCURVE",
"480 304 CURVE SMOOTH",
"480 225 OFFCURVE",
"462 161 OFFCURVE",
"440 111 CURVE",
"413 100 OFFCURVE",
"372 93 OFFCURVE",
"325 93 CURVE SMOOTH"
);
},
{
closed = 1;
nodes = (
"275 681 OFFCURVE",
"296 701 OFFCURVE",
"296 734 CURVE SMOOTH",
"296 769 OFFCURVE",
"275 788 OFFCURVE",
"239 788 CURVE SMOOTH",
"204 788 OFFCURVE",
"183 769 OFFCURVE",
"183 734 CURVE SMOOTH",
"183 701 OFFCURVE",
"204 681 OFFCURVE",
"239 681 CURVE SMOOTH"
);
},
{
closed = 1;
nodes = (
"441 681 OFFCURVE",
"461 701 OFFCURVE",
"461 734 CURVE SMOOTH",
"461 769 OFFCURVE",
"441 788 OFFCURVE",
"405 788 CURVE SMOOTH",
"369 788 OFFCURVE",
"348 769 OFFCURVE",
"348 734 CURVE SMOOTH",
"348 701 OFFCURVE",
"369 681 OFFCURVE",
"405 681 CURVE SMOOTH"
);
}
);
width = 638;
}
);
leftKerningGroup = O;
note = Odieresis;
rightKerningGroup = O;
unicode = 00D6;
},
{
glyphname = Odotbelow;
lastChange = "2015-07-19 08:43:44 +0000";
layers = (
{
layerId = "4CE4ED08-6AC3-4BDD-8925-679D298B3381";
name = Bold;
paths = (
{
closed = 1;
nodes = (
"503 -8 OFFCURVE",
"590 101 OFFCURVE",
"590 321 CURVE SMOOTH",
"590 522 OFFCURVE",
"506 628 OFFCURVE",
"329 628 CURVE SMOOTH",
"134 628 OFFCURVE",
"48 518 OFFCURVE",
"48 298 CURVE SMOOTH",
"48 97 OFFCURVE",
"136 -8 OFFCURVE",
"308 -8 CURVE SMOOTH"
);
},
{
closed = 1;
nodes = (
"363 -183 OFFCURVE",
"389 -159 OFFCURVE",
"389 -120 CURVE SMOOTH",
"389 -77 OFFCURVE",
"363 -53 OFFCURVE",
"320 -53 CURVE SMOOTH",
"277 -53 OFFCURVE",
"252 -77 OFFCURVE",
"252 -120 CURVE SMOOTH",
"252 -159 OFFCURVE",
"277 -183 OFFCURVE",
"320 -183 CURVE SMOOTH"
);
},
{
closed = 1;
nodes = (
"195 93 OFFCURVE",
"157 164 OFFCURVE",
"157 315 CURVE SMOOTH",
"157 393 OFFCURVE",
"171 456 OFFCURVE",
"194 508 CURVE",
"221 519 OFFCURVE",
"265 526 OFFCURVE",
"312 526 CURVE SMOOTH",
"443 526 OFFCURVE",
"480 454 OFFCURVE",
"480 304 CURVE SMOOTH",
"480 225 OFFCURVE",
"462 161 OFFCURVE",
"440 111 CURVE",
"413 100 OFFCURVE",
"372 93 OFFCURVE",
"325 93 CURVE SMOOTH"
);
}
);
width = 638;
}
);
leftKerningGroup = O;
note = Odotbelow;
rightKerningGroup = O;
unicode = 1ECC;
},
{
glyphname = Ograve;
lastChange = "2015-07-19 08:43:44 +0000";
layers = (
{
layerId = "4CE4ED08-6AC3-4BDD-8925-679D298B3381";
name = Bold;
paths = (
{
closed = 1;
nodes = (
"503 -8 OFFCURVE",
"590 101 OFFCURVE",
"590 321 CURVE SMOOTH",
"590 522 OFFCURVE",
"506 628 OFFCURVE",
"329 628 CURVE SMOOTH",
"134 628 OFFCURVE",
"48 518 OFFCURVE",
"48 298 CURVE SMOOTH",
"48 97 OFFCURVE",
"136 -8 OFFCURVE",
"308 -8 CURVE SMOOTH"
);
},
{
closed = 1;
nodes = (
"195 93 OFFCURVE",
"157 164 OFFCURVE",
"157 315 CURVE SMOOTH",
"157 393 OFFCURVE",
"171 456 OFFCURVE",
"194 508 CURVE",
"221 519 OFFCURVE",
"265 526 OFFCURVE",
"312 526 CURVE SMOOTH",
"443 526 OFFCURVE",
"480 454 OFFCURVE",
"480 304 CURVE SMOOTH",
"480 225 OFFCURVE",
"462 161 OFFCURVE",
"440 111 CURVE",
"413 100 OFFCURVE",
"372 93 OFFCURVE",
"325 93 CURVE SMOOTH"
);
},
{
closed = 1;
nodes = (
"383 692 LINE",
"299 841 LINE",
"168 827 LINE",
"296 678 LINE"
);
}
);
width = 638;
}
);
leftKerningGroup = O;
note = Ograve;
rightKerningGroup = O;
unicode = 00D2;
},
{
glyphname = Ohookabove;
lastChange = "2015-07-19 08:43:44 +0000";
layers = (
{
layerId = "4CE4ED08-6AC3-4BDD-8925-679D298B3381";
name = Bold;
paths = (
{
closed = 1;
nodes = (
"503 -8 OFFCURVE",
"590 101 OFFCURVE",
"590 321 CURVE SMOOTH",
"590 522 OFFCURVE",
"506 628 OFFCURVE",
"329 628 CURVE SMOOTH",
"134 628 OFFCURVE",
"48 518 OFFCURVE",
"48 298 CURVE SMOOTH",
"48 97 OFFCURVE",
"136 -8 OFFCURVE",
"308 -8 CURVE SMOOTH"
);
},
{
closed = 1;
nodes = (
"195 93 OFFCURVE",
"157 164 OFFCURVE",
"157 315 CURVE SMOOTH",
"157 393 OFFCURVE",
"171 456 OFFCURVE",
"194 508 CURVE",
"221 519 OFFCURVE",
"265 526 OFFCURVE",
"312 526 CURVE SMOOTH",
"443 526 OFFCURVE",
"480 454 OFFCURVE",
"480 304 CURVE SMOOTH",
"480 225 OFFCURVE",
"462 161 OFFCURVE",
"440 111 CURVE",
"413 100 OFFCURVE",
"372 93 OFFCURVE",
"325 93 CURVE SMOOTH"
);
},
{
closed = 1;
nodes = (
"359 680 LINE",
"359 725 LINE",
"416 728 OFFCURVE",
"453 752 OFFCURVE",
"453 807 CURVE SMOOTH",
"453 859 OFFCURVE",
"417 894 OFFCURVE",
"346 894 CURVE SMOOTH",
"312 894 OFFCURVE",
"280 888 OFFCURVE",
"245 874 CURVE",
"267 815 LINE",
"286 821 OFFCURVE",
"309 825 OFFCURVE",
"327 825 CURVE SMOOTH",
"357 825 OFFCURVE",
"368 820 OFFCURVE",
"368 801 CURVE SMOOTH",
"368 777 OFFCURVE",
"339 776 OFFCURVE",
"278 776 CURVE",
"278 733 LINE",
"294 680 LINE"
);
}
);
width = 638;
}
);
leftKerningGroup = O;
note = Ohookabove;
rightKerningGroup = O;
unicode = 1ECE;
},
{
glyphname = Ohorn;
lastChange = "2015-07-19 08:43:44 +0000";
layers = (
{
layerId = "4CE4ED08-6AC3-4BDD-8925-679D298B3381";
name = Bold;
paths = (
{
closed = 1;
nodes = (
"503 -9 OFFCURVE",
"590 101 OFFCURVE",
"590 321 CURVE SMOOTH",
"590 394 OFFCURVE",
"579 445 OFFCURVE",
"558 490 CURVE",
"630 538 OFFCURVE",
"659 602 OFFCURVE",
"659 716 CURVE",
"555 716 LINE",
"555 652 OFFCURVE",
"544 606 OFFCURVE",
"521 563 CURVE",
"509 563 LINE",
"467 607 OFFCURVE",
"409 628 OFFCURVE",
"329 628 CURVE SMOOTH",
"134 628 OFFCURVE",
"48 518 OFFCURVE",
"48 298 CURVE SMOOTH",
"48 97 OFFCURVE",
"136 -9 OFFCURVE",
"308 -9 CURVE SMOOTH"
);
},
{
closed = 1;
nodes = (
"195 92 OFFCURVE",
"157 164 OFFCURVE",
"157 315 CURVE SMOOTH",
"157 393 OFFCURVE",
"171 456 OFFCURVE",
"194 508 CURVE",
"221 519 OFFCURVE",
"265 526 OFFCURVE",
"312 526 CURVE SMOOTH",
"443 526 OFFCURVE",
"480 454 OFFCURVE",
"480 304 CURVE SMOOTH",
"480 225 OFFCURVE",
"462 161 OFFCURVE",
"440 110 CURVE",
"413 99 OFFCURVE",
"372 92 OFFCURVE",
"325 92 CURVE SMOOTH"
);
}
);
width = 661;
}
);
leftKerningGroup = O;
note = Ohorn;
rightKerningGroup = O;
unicode = 01A0;
},
{
glyphname = Ohornacute;
lastChange = "2015-07-19 08:43:44 +0000";
layers = (
{
layerId = "4CE4ED08-6AC3-4BDD-8925-679D298B3381";
name = Bold;
paths = (
{
closed = 1;
nodes = (
"503 -9 OFFCURVE",
"590 101 OFFCURVE",
"590 321 CURVE SMOOTH",
"590 394 OFFCURVE",
"579 445 OFFCURVE",
"558 490 CURVE",
"630 538 OFFCURVE",
"659 602 OFFCURVE",
"659 716 CURVE",
"555 716 LINE",
"555 652 OFFCURVE",
"544 606 OFFCURVE",
"521 563 CURVE",
"509 563 LINE",
"467 607 OFFCURVE",
"409 628 OFFCURVE",
"329 628 CURVE SMOOTH",
"134 628 OFFCURVE",
"48 518 OFFCURVE",
"48 298 CURVE SMOOTH",
"48 97 OFFCURVE",
"136 -9 OFFCURVE",
"308 -9 CURVE SMOOTH"
);
},
{
closed = 1;
nodes = (
"195 92 OFFCURVE",
"157 164 OFFCURVE",
"157 315 CURVE SMOOTH",
"157 393 OFFCURVE",
"171 456 OFFCURVE",
"194 508 CURVE",
"221 519 OFFCURVE",
"265 526 OFFCURVE",
"312 526 CURVE SMOOTH",
"443 526 OFFCURVE",
"480 454 OFFCURVE",
"480 304 CURVE SMOOTH",
"480 225 OFFCURVE",
"462 161 OFFCURVE",
"440 110 CURVE",
"413 99 OFFCURVE",
"372 92 OFFCURVE",
"325 92 CURVE SMOOTH"
);
},
{
closed = 1;
nodes = (
"475 832 LINE",
"350 844 LINE",
"267 692 LINE",
"346 678 LINE"
);
}
);
width = 661;
}
);
leftKerningGroup = O;
note = Ohornacute;
rightKerningGroup = O;
unicode = 1EDA;
},
{
glyphname = Ohorndotbelow;
lastChange = "2015-07-19 08:43:44 +0000";
layers = (
{
layerId = "4CE4ED08-6AC3-4BDD-8925-679D298B3381";
name = Bold;
paths = (
{
closed = 1;
nodes = (
"503 -9 OFFCURVE",
"590 101 OFFCURVE",
"590 321 CURVE SMOOTH",
"590 394 OFFCURVE",
"579 445 OFFCURVE",
"558 490 CURVE",
"630 538 OFFCURVE",
"659 602 OFFCURVE",
"659 716 CURVE",
"555 716 LINE",
"555 652 OFFCURVE",
"544 606 OFFCURVE",
"521 563 CURVE",
"509 563 LINE",
"467 607 OFFCURVE",
"409 628 OFFCURVE",
"329 628 CURVE SMOOTH",
"134 628 OFFCURVE",
"48 518 OFFCURVE",
"48 298 CURVE SMOOTH",
"48 97 OFFCURVE",
"136 -9 OFFCURVE",
"308 -9 CURVE SMOOTH"
);
},
{
closed = 1;
nodes = (
"371 -183 OFFCURVE",
"397 -159 OFFCURVE",
"397 -120 CURVE SMOOTH",
"397 -77 OFFCURVE",
"371 -53 OFFCURVE",
"328 -53 CURVE SMOOTH",
"285 -53 OFFCURVE",
"260 -77 OFFCURVE",
"260 -120 CURVE SMOOTH",
"260 -159 OFFCURVE",
"285 -183 OFFCURVE",
"328 -183 CURVE SMOOTH"
);
},
{
closed = 1;
nodes = (
"195 92 OFFCURVE",
"157 164 OFFCURVE",
"157 315 CURVE SMOOTH",
"157 393 OFFCURVE",
"171 456 OFFCURVE",
"194 508 CURVE",
"221 519 OFFCURVE",
"265 526 OFFCURVE",
"312 526 CURVE SMOOTH",
"443 526 OFFCURVE",
"480 454 OFFCURVE",
"480 304 CURVE SMOOTH",
"480 225 OFFCURVE",
"462 161 OFFCURVE",
"440 110 CURVE",
"413 99 OFFCURVE",
"372 92 OFFCURVE",
"325 92 CURVE SMOOTH"
);
}
);
width = 661;
}
);
leftKerningGroup = O;
note = Ohorndotbelow;
rightKerningGroup = O;
unicode = 1EE2;
},
{
glyphname = Ohorngrave;
lastChange = "2015-07-19 08:43:44 +0000";
layers = (
{
layerId = "4CE4ED08-6AC3-4BDD-8925-679D298B3381";
name = Bold;
paths = (
{
closed = 1;
nodes = (
"503 -9 OFFCURVE",
"590 101 OFFCURVE",
"590 321 CURVE SMOOTH",
"590 394 OFFCURVE",
"579 445 OFFCURVE",
"558 490 CURVE",
"630 538 OFFCURVE",
"659 602 OFFCURVE",
"659 716 CURVE",
"555 716 LINE",
"555 652 OFFCURVE",
"544 606 OFFCURVE",
"521 563 CURVE",
"509 563 LINE",
"467 607 OFFCURVE",
"409 628 OFFCURVE",
"329 628 CURVE SMOOTH",
"134 628 OFFCURVE",
"48 518 OFFCURVE",
"48 298 CURVE SMOOTH",
"48 97 OFFCURVE",
"136 -9 OFFCURVE",
"308 -9 CURVE SMOOTH"
);
},
{
closed = 1;
nodes = (
"195 92 OFFCURVE",
"157 164 OFFCURVE",
"157 315 CURVE SMOOTH",
"157 393 OFFCURVE",
"171 456 OFFCURVE",
"194 508 CURVE",
"221 519 OFFCURVE",
"265 526 OFFCURVE",
"312 526 CURVE SMOOTH",
"443 526 OFFCURVE",
"480 454 OFFCURVE",
"480 304 CURVE SMOOTH",
"480 225 OFFCURVE",
"462 161 OFFCURVE",
"440 110 CURVE",
"413 99 OFFCURVE",
"372 92 OFFCURVE",
"325 92 CURVE SMOOTH"
);
},
{
closed = 1;
nodes = (
"385 692 LINE",
"301 841 LINE",
"170 827 LINE",
"298 678 LINE"
);
}
);
width = 661;
}
);
leftKerningGroup = O;
note = Ohorngrave;
rightKerningGroup = O;
unicode = 1EDC;
},
{
glyphname = Ohornhookabove;
lastChange = "2015-07-19 08:43:44 +0000";
layers = (
{
layerId = "4CE4ED08-6AC3-4BDD-8925-679D298B3381";
name = Bold;
paths = (
{
closed = 1;
nodes = (
"503 -9 OFFCURVE",
"590 101 OFFCURVE",
"590 321 CURVE SMOOTH",
"590 394 OFFCURVE",
"579 445 OFFCURVE",
"558 490 CURVE",
"630 538 OFFCURVE",
"659 602 OFFCURVE",
"659 716 CURVE",
"555 716 LINE",
"555 652 OFFCURVE",
"544 606 OFFCURVE",
"521 563 CURVE",
"509 563 LINE",
"467 607 OFFCURVE",
"409 628 OFFCURVE",
"329 628 CURVE SMOOTH",
"134 628 OFFCURVE",
"48 518 OFFCURVE",
"48 298 CURVE SMOOTH",
"48 97 OFFCURVE",
"136 -9 OFFCURVE",
"308 -9 CURVE SMOOTH"
);
},
{
closed = 1;
nodes = (
"195 92 OFFCURVE",
"157 164 OFFCURVE",
"157 315 CURVE SMOOTH",
"157 393 OFFCURVE",
"171 456 OFFCURVE",
"194 508 CURVE",
"221 519 OFFCURVE",
"265 526 OFFCURVE",
"312 526 CURVE SMOOTH",
"443 526 OFFCURVE",
"480 454 OFFCURVE",
"480 304 CURVE SMOOTH",
"480 225 OFFCURVE",
"462 161 OFFCURVE",
"440 110 CURVE",
"413 99 OFFCURVE",
"372 92 OFFCURVE",
"325 92 CURVE SMOOTH"
);
},
{
closed = 1;
nodes = (
"357 684 LINE",
"357 729 LINE",
"414 732 OFFCURVE",
"451 756 OFFCURVE",
"451 811 CURVE SMOOTH",
"451 862 OFFCURVE",
"415 898 OFFCURVE",
"344 898 CURVE SMOOTH",
"310 898 OFFCURVE",
"278 892 OFFCURVE",
"243 877 CURVE",
"265 819 LINE",
"284 825 OFFCURVE",
"307 829 OFFCURVE",
"325 829 CURVE SMOOTH",
"355 829 OFFCURVE",
"366 824 OFFCURVE",
"366 805 CURVE SMOOTH",
"366 781 OFFCURVE",
"337 780 OFFCURVE",
"276 780 CURVE",
"276 737 LINE",
"292 684 LINE"
);
}
);
width = 661;
}
);
leftKerningGroup = O;
note = Ohornhookabove;
rightKerningGroup = O;
unicode = 1EDE;
},
{
glyphname = Ohorntilde;
lastChange = "2015-07-19 08:43:44 +0000";
layers = (
{
layerId = "4CE4ED08-6AC3-4BDD-8925-679D298B3381";
name = Bold;
paths = (
{
closed = 1;
nodes = (
"503 -9 OFFCURVE",
"590 101 OFFCURVE",
"590 321 CURVE SMOOTH",
"590 394 OFFCURVE",
"579 445 OFFCURVE",
"558 490 CURVE",
"630 538 OFFCURVE",
"659 602 OFFCURVE",
"659 716 CURVE",
"555 716 LINE",
"555 652 OFFCURVE",
"544 606 OFFCURVE",
"521 563 CURVE",
"509 563 LINE",
"467 607 OFFCURVE",
"409 628 OFFCURVE",
"329 628 CURVE SMOOTH",
"134 628 OFFCURVE",
"48 518 OFFCURVE",
"48 298 CURVE SMOOTH",
"48 97 OFFCURVE",
"136 -9 OFFCURVE",
"308 -9 CURVE SMOOTH"
);
},
{
closed = 1;
nodes = (
"195 92 OFFCURVE",
"157 164 OFFCURVE",
"157 315 CURVE SMOOTH",
"157 393 OFFCURVE",
"171 456 OFFCURVE",
"194 508 CURVE",
"221 519 OFFCURVE",
"265 526 OFFCURVE",
"312 526 CURVE SMOOTH",
"443 526 OFFCURVE",
"480 454 OFFCURVE",
"480 304 CURVE SMOOTH",
"480 225 OFFCURVE",
"462 161 OFFCURVE",
"440 110 CURVE",
"413 99 OFFCURVE",
"372 92 OFFCURVE",
"325 92 CURVE SMOOTH"
);
},
{
closed = 1;
nodes = (
"244 699 OFFCURVE",
"252 719 OFFCURVE",
"278 719 CURVE SMOOTH",
"313 719 OFFCURVE",
"344 678 OFFCURVE",
"391 678 CURVE SMOOTH",
"453 678 OFFCURVE",
"477 718 OFFCURVE",
"480 790 CURVE",
"411 811 LINE",
"408 784 OFFCURVE",
"401 764 OFFCURVE",
"374 764 CURVE SMOOTH",
"345 764 OFFCURVE",
"309 805 OFFCURVE",
"264 805 CURVE SMOOTH",
"200 805 OFFCURVE",
"176 765 OFFCURVE",
"173 693 CURVE",
"242 672 LINE"
);
}
);
width = 661;
}
);
leftKerningGroup = O;
note = Ohorntilde;
rightKerningGroup = O;
unicode = 1EE0;
},
{
glyphname = Ohungarumlaut;
lastChange = "2015-07-19 08:43:44 +0000";
layers = (
{
layerId = "4CE4ED08-6AC3-4BDD-8925-679D298B3381";
name = Bold;
paths = (
{
closed = 1;
nodes = (
"503 -8 OFFCURVE",
"590 101 OFFCURVE",
"590 321 CURVE SMOOTH",
"590 522 OFFCURVE",
"506 628 OFFCURVE",
"329 628 CURVE SMOOTH",
"134 628 OFFCURVE",
"48 518 OFFCURVE",
"48 298 CURVE SMOOTH",
"48 97 OFFCURVE",
"136 -8 OFFCURVE",
"308 -8 CURVE SMOOTH"
);
},
{
closed = 1;
nodes = (
"195 93 OFFCURVE",
"157 164 OFFCURVE",
"157 315 CURVE SMOOTH",
"157 393 OFFCURVE",
"171 456 OFFCURVE",
"194 508 CURVE",
"221 519 OFFCURVE",
"265 526 OFFCURVE",
"312 526 CURVE SMOOTH",
"443 526 OFFCURVE",
"480 454 OFFCURVE",
"480 304 CURVE SMOOTH",
"480 225 OFFCURVE",
"462 161 OFFCURVE",
"440 111 CURVE",
"413 100 OFFCURVE",
"372 93 OFFCURVE",
"325 93 CURVE SMOOTH"
);
},
{
closed = 1;
nodes = (
"282 711 OFFCURVE",
"304 758 OFFCURVE",
"304 801 CURVE SMOOTH",
"304 853 OFFCURVE",
"280 878 OFFCURVE",
"227 878 CURVE SMOOTH",
"206 878 OFFCURVE",
"183 874 OFFCURVE",
"165 867 CURVE",
"165 794 LINE",
"218 794 LINE",
"217 759 OFFCURVE",
"206 728 OFFCURVE",
"186 692 CURVE",
"251 677 LINE"
);
},
{
closed = 1;
nodes = (
"460 711 OFFCURVE",
"482 758 OFFCURVE",
"482 801 CURVE SMOOTH",
"482 853 OFFCURVE",
"459 878 OFFCURVE",
"406 878 CURVE SMOOTH",
"385 878 OFFCURVE",
"361 874 OFFCURVE",
"343 867 CURVE",
"343 794 LINE",
"396 794 LINE",
"395 759 OFFCURVE",
"384 728 OFFCURVE",
"364 692 CURVE",
"429 677 LINE"
);
}
);
width = 638;
}
);
leftKerningGroup = O;
note = Ohungarumlaut;
rightKerningGroup = O;
unicode = 0150;
},
{
glyphname = Omacron;
lastChange = "2015-07-19 08:43:44 +0000";
layers = (
{
layerId = "4CE4ED08-6AC3-4BDD-8925-679D298B3381";
name = Bold;
paths = (
{
closed = 1;
nodes = (
"503 -8 OFFCURVE",
"590 101 OFFCURVE",
"590 321 CURVE SMOOTH",
"590 522 OFFCURVE",
"506 628 OFFCURVE",
"329 628 CURVE SMOOTH",
"134 628 OFFCURVE",
"48 518 OFFCURVE",
"48 298 CURVE SMOOTH",
"48 97 OFFCURVE",
"136 -8 OFFCURVE",
"308 -8 CURVE SMOOTH"
);
},
{
closed = 1;
nodes = (
"195 93 OFFCURVE",
"157 164 OFFCURVE",
"157 315 CURVE SMOOTH",
"157 393 OFFCURVE",
"171 456 OFFCURVE",
"194 508 CURVE",
"221 519 OFFCURVE",
"265 526 OFFCURVE",
"312 526 CURVE SMOOTH",
"443 526 OFFCURVE",
"480 454 OFFCURVE",
"480 304 CURVE SMOOTH",
"480 225 OFFCURVE",
"462 161 OFFCURVE",
"440 111 CURVE",
"413 100 OFFCURVE",
"372 93 OFFCURVE",
"325 93 CURVE SMOOTH"
);
},
{
closed = 1;
nodes = (
"463 684 LINE",
"463 770 LINE",
"172 770 LINE",
"172 684 LINE"
);
}
);
width = 638;
}
);
leftKerningGroup = O;
note = Omacron;
rightKerningGroup = O;
unicode = 014C;
},
{
glyphname = Oslash;
lastChange = "2015-07-19 08:43:44 +0000";
layers = (
{
layerId = "4CE4ED08-6AC3-4BDD-8925-679D298B3381";
name = Bold;
paths = (
{
closed = 1;
nodes = (
"227 2 LINE",
"251 -6 OFFCURVE",
"278 -9 OFFCURVE",
"308 -9 CURVE SMOOTH",
"503 -9 OFFCURVE",
"590 101 OFFCURVE",
"590 321 CURVE SMOOTH",
"590 445 OFFCURVE",
"558 532 OFFCURVE",
"492 581 CURVE",
"531 666 LINE",
"436 689 LINE",
"404 619 LINE",
"382 625 OFFCURVE",
"356 628 OFFCURVE",
"329 628 CURVE SMOOTH",
"134 628 OFFCURVE",
"48 518 OFFCURVE",
"48 298 CURVE SMOOTH",
"48 178 OFFCURVE",
"79 92 OFFCURVE",
"140 42 CURVE",
"95 -57 LINE",
"190 -81 LINE"
);
},
{
closed = 1;
nodes = (
"166 188 OFFCURVE",
"157 242 OFFCURVE",
"157 315 CURVE SMOOTH",
"157 393 OFFCURVE",
"171 456 OFFCURVE",
"194 508 CURVE",
"221 519 OFFCURVE",
"265 526 OFFCURVE",
"312 526 CURVE SMOOTH",
"330 526 OFFCURVE",
"345 524 OFFCURVE",
"359 520 CURVE",
"190 152 LINE"
);
},
{
closed = 1;
nodes = (
"304 92 OFFCURVE",
"286 95 OFFCURVE",
"271 99 CURVE",
"442 473 LINE",
"469 437 OFFCURVE",
"480 381 OFFCURVE",
"480 304 CURVE SMOOTH",
"480 225 OFFCURVE",
"462 161 OFFCURVE",
"440 110 CURVE",
"413 99 OFFCURVE",
"372 92 OFFCURVE",
"325 92 CURVE SMOOTH"
);
}
);
width = 638;
}
);
leftKerningGroup = O;
note = Oslash;
rightKerningGroup = O;
unicode = 00D8;
},
{
glyphname = Oslashacute;
lastChange = "2015-07-19 08:43:44 +0000";
layers = (
{
layerId = "4CE4ED08-6AC3-4BDD-8925-679D298B3381";
name = Bold;
paths = (
{
closed = 1;
nodes = (
"227 2 LINE",
"251 -6 OFFCURVE",
"278 -9 OFFCURVE",
"308 -9 CURVE SMOOTH",
"503 -9 OFFCURVE",
"590 101 OFFCURVE",
"590 321 CURVE SMOOTH",
"590 445 OFFCURVE",
"558 532 OFFCURVE",
"492 581 CURVE",
"531 666 LINE",
"436 689 LINE",
"404 619 LINE",
"382 625 OFFCURVE",
"356 628 OFFCURVE",
"329 628 CURVE SMOOTH",
"134 628 OFFCURVE",
"48 518 OFFCURVE",
"48 298 CURVE SMOOTH",
"48 178 OFFCURVE",
"79 92 OFFCURVE",
"140 42 CURVE",
"95 -57 LINE",
"190 -81 LINE"
);
},
{
closed = 1;
nodes = (
"166 188 OFFCURVE",
"157 242 OFFCURVE",
"157 315 CURVE SMOOTH",
"157 393 OFFCURVE",
"171 456 OFFCURVE",
"194 508 CURVE",
"221 519 OFFCURVE",
"265 526 OFFCURVE",
"312 526 CURVE SMOOTH",
"330 526 OFFCURVE",
"345 524 OFFCURVE",
"359 520 CURVE",
"190 152 LINE"
);
},
{
closed = 1;
nodes = (
"304 92 OFFCURVE",
"286 95 OFFCURVE",
"271 99 CURVE",
"442 473 LINE",
"469 437 OFFCURVE",
"480 381 OFFCURVE",
"480 304 CURVE SMOOTH",
"480 225 OFFCURVE",
"462 161 OFFCURVE",
"440 110 CURVE",
"413 99 OFFCURVE",
"372 92 OFFCURVE",
"325 92 CURVE SMOOTH"
);
},
{
closed = 1;
nodes = (
"469 835 LINE",
"344 848 LINE",
"261 696 LINE",
"340 682 LINE"
);
}
);
width = 638;
}
);
leftKerningGroup = O;
note = Oslashacute;
rightKerningGroup = O;
unicode = 01FE;
},
{
glyphname = Otilde;
lastChange = "2015-07-19 08:43:44 +0000";
layers = (
{
layerId = "4CE4ED08-6AC3-4BDD-8925-679D298B3381";
name = Bold;
paths = (
{
closed = 1;
nodes = (
"503 -8 OFFCURVE",
"590 101 OFFCURVE",
"590 321 CURVE SMOOTH",
"590 522 OFFCURVE",
"506 628 OFFCURVE",
"329 628 CURVE SMOOTH",
"134 628 OFFCURVE",
"48 518 OFFCURVE",
"48 298 CURVE SMOOTH",
"48 97 OFFCURVE",
"136 -8 OFFCURVE",
"308 -8 CURVE SMOOTH"
);
},
{
closed = 1;
nodes = (
"195 93 OFFCURVE",
"157 164 OFFCURVE",
"157 315 CURVE SMOOTH",
"157 393 OFFCURVE",
"171 456 OFFCURVE",
"194 508 CURVE",
"221 519 OFFCURVE",
"265 526 OFFCURVE",
"312 526 CURVE SMOOTH",
"443 526 OFFCURVE",
"480 454 OFFCURVE",
"480 304 CURVE SMOOTH",
"480 225 OFFCURVE",
"462 161 OFFCURVE",
"440 111 CURVE",
"413 100 OFFCURVE",
"372 93 OFFCURVE",
"325 93 CURVE SMOOTH"
);
},
{
closed = 1;
nodes = (
"239 697 OFFCURVE",
"247 716 OFFCURVE",
"273 716 CURVE SMOOTH",
"308 716 OFFCURVE",
"339 675 OFFCURVE",
"386 675 CURVE SMOOTH",
"448 675 OFFCURVE",
"472 716 OFFCURVE",
"475 788 CURVE",
"406 808 LINE",
"403 782 OFFCURVE",
"396 762 OFFCURVE",
"369 762 CURVE SMOOTH",
"340 762 OFFCURVE",
"304 803 OFFCURVE",
"259 803 CURVE SMOOTH",
"195 803 OFFCURVE",
"171 763 OFFCURVE",
"168 691 CURVE",
"237 670 LINE"
);
}
);
width = 638;
}
);
leftKerningGroup = O;
note = Otilde;
rightKerningGroup = O;
unicode = 00D5;
},
{
glyphname = OE;
lastChange = "2015-07-19 06:45:00 +0000";
layers = (
{
layerId = "4CE4ED08-6AC3-4BDD-8925-679D298B3381";
name = Bold;
paths = (
{
closed = 1;
nodes = (
"741 -10 OFFCURVE",
"808 -3 OFFCURVE",
"859 11 CURVE",
"840 108 LINE",
"787 96 OFFCURVE",
"728 90 OFFCURVE",
"667 90 CURVE SMOOTH",
"620 90 OFFCURVE",
"580 95 OFFCURVE",
"539 106 CURVE",
"539 259 LINE",
"813 259 LINE",
"813 355 LINE",
"539 355 LINE",
"539 517 LINE",
"850 517 LINE",
"850 618 LINE",
"441 618 LINE",
"408 624 OFFCURVE",
"370 628 OFFCURVE",
"329 628 CURVE SMOOTH",
"134 628 OFFCURVE",
"48 518 OFFCURVE",
"48 298 CURVE SMOOTH",
"48 97 OFFCURVE",
"136 -9 OFFCURVE",
"304 -9 CURVE SMOOTH",
"370 -9 OFFCURVE",
"426 5 OFFCURVE",
"467 33 CURVE",
"475 33 LINE",
"517 4 OFFCURVE",
"583 -10 OFFCURVE",
"661 -10 CURVE SMOOTH"
);
},
{
closed = 1;
nodes = (
"195 92 OFFCURVE",
"157 164 OFFCURVE",
"157 315 CURVE SMOOTH",
"157 393 OFFCURVE",
"171 456 OFFCURVE",
"194 508 CURVE",
"221 519 OFFCURVE",
"265 526 OFFCURVE",
"312 526 CURVE SMOOTH",
"364 526 OFFCURVE",
"393 524 OFFCURVE",
"433 516 CURVE",
"433 107 LINE",
"408 98 OFFCURVE",
"368 92 OFFCURVE",
"325 92 CURVE SMOOTH"
);
}
);
width = 908;
}
);
note = OE;
unicode = 0152;
},
{
glyphname = P;
lastChange = "2015-07-19 04:35:37 +0000";
layers = (
{
layerId = "4CE4ED08-6AC3-4BDD-8925-679D298B3381";
name = Bold;
paths = (
{
closed = 1;
nodes = (
"181 0 LINE",
"181 187 LINE",
"250 187 LINE SMOOTH",
"434 187 OFFCURVE",
"516 264 OFFCURVE",
"516 414 CURVE SMOOTH",
"516 561 OFFCURVE",
"425 626 OFFCURVE",
"262 626 CURVE SMOOTH",
"195 626 OFFCURVE",
"126 615 OFFCURVE",
"71 598 CURVE",
"71 0 LINE"
);
},
{
closed = 1;
nodes = (
"181 518 LINE",
"206 524 OFFCURVE",
"234 526 OFFCURVE",
"265 526 CURVE SMOOTH",
"355 526 OFFCURVE",
"407 496 OFFCURVE",
"407 409 CURVE SMOOTH",
"407 364 OFFCURVE",
"398 327 OFFCURVE",
"381 299 CURVE",
"343 289 OFFCURVE",
"301 286 OFFCURVE",
"236 286 CURVE SMOOTH",
"181 286 LINE"
);
}
);
width = 545;
}
);
note = P;
unicode = 0050;
},
{
glyphname = Thorn;
lastChange = "2015-07-19 04:35:37 +0000";
layers = (
{
layerId = "4CE4ED08-6AC3-4BDD-8925-679D298B3381";
name = Bold;
paths = (
{
closed = 1;
nodes = (
"181 0 LINE",
"181 136 LINE",
"260 136 LINE SMOOTH",
"391 136 OFFCURVE",
"470 196 OFFCURVE",
"470 321 CURVE SMOOTH",
"470 442 OFFCURVE",
"392 504 OFFCURVE",
"260 504 CURVE SMOOTH",
"181 504 LINE",
"181 618 LINE",
"71 618 LINE",
"71 0 LINE"
);
},
{
closed = 1;
nodes = (
"181 407 LINE",
"259 407 LINE SMOOTH",
"328 407 OFFCURVE",
"360 385 OFFCURVE",
"360 321 CURVE SMOOTH",
"360 259 OFFCURVE",
"332 232 OFFCURVE",
"259 232 CURVE SMOOTH",
"181 232 LINE"
);
}
);
width = 506;
}
);
note = Thorn;
unicode = 00DE;
},
{
glyphname = Q;
lastChange = "2015-07-19 04:35:37 +0000";
layers = (
{
layerId = "4CE4ED08-6AC3-4BDD-8925-679D298B3381";
name = Bold;
paths = (
{
closed = 1;
nodes = (
"453 -140 OFFCURVE",
"516 -137 OFFCURVE",
"561 -124 CURVE",
"546 -42 LINE",
"501 -52 OFFCURVE",
"440 -55 OFFCURVE",
"396 -55 CURVE SMOOTH",
"370 -55 OFFCURVE",
"344 -53 OFFCURVE",
"325 -50 CURVE",
"325 4 LINE",
"330 4 OFFCURVE",
"336 4 OFFCURVE",
"345 5 CURVE SMOOTH",
"513 17 OFFCURVE",
"590 121 OFFCURVE",
"590 327 CURVE SMOOTH",
"590 528 OFFCURVE",
"506 628 OFFCURVE",
"329 628 CURVE SMOOTH",
"134 628 OFFCURVE",
"48 518 OFFCURVE",
"48 300 CURVE SMOOTH",
"48 125 OFFCURVE",
"115 29 OFFCURVE",
"245 7 CURVE",
"223 -62 LINE",
"223 -116 LINE",
"251 -129 OFFCURVE",
"345 -140 OFFCURVE",
"397 -140 CURVE SMOOTH"
);
},
{
closed = 1;
nodes = (
"197 104 OFFCURVE",
"157 169 OFFCURVE",
"157 318 CURVE SMOOTH",
"157 391 OFFCURVE",
"171 456 OFFCURVE",
"194 508 CURVE",
"221 519 OFFCURVE",
"265 526 OFFCURVE",
"312 526 CURVE SMOOTH",
"443 526 OFFCURVE",
"480 460 OFFCURVE",
"480 309 CURVE SMOOTH",
"480 236 OFFCURVE",
"462 171 OFFCURVE",
"440 122 CURVE",
"413 111 OFFCURVE",
"372 104 OFFCURVE",
"325 104 CURVE SMOOTH"
);
}
);
width = 640;
}
);
note = Q;
unicode = 0051;
},
{
glyphname = R;
lastChange = "2015-07-19 04:35:37 +0000";
layers = (
{
layerId = "4CE4ED08-6AC3-4BDD-8925-679D298B3381";
name = Bold;
paths = (
{
closed = 1;
nodes = (
"531 -7 OFFCURVE",
"554 -4 OFFCURVE",
"573 2 CURVE",
"573 64 LINE",
"527 73 LINE",
"462 195 LINE SMOOTH",
"443 228 OFFCURVE",
"422 247 OFFCURVE",
"389 260 CURVE",
"389 269 LINE",
"462 304 OFFCURVE",
"500 362 OFFCURVE",
"500 443 CURVE SMOOTH",
"500 572 OFFCURVE",
"414 628 OFFCURVE",
"259 628 CURVE SMOOTH",
"190 628 OFFCURVE",
"124 616 OFFCURVE",
"71 600 CURVE",
"71 0 LINE",
"181 0 LINE",
"181 237 LINE",
"254 237 LINE",
"322 236 OFFCURVE",
"336 208 OFFCURVE",
"357 163 CURVE SMOOTH",
"413 44 LINE SMOOTH",
"429 9 OFFCURVE",
"453 -7 OFFCURVE",
"500 -7 CURVE SMOOTH"
);
},
{
closed = 1;
nodes = (
"181 523 LINE",
"203 528 OFFCURVE",
"230 530 OFFCURVE",
"258 530 CURVE SMOOTH",
"348 530 OFFCURVE",
"391 507 OFFCURVE",
"391 434 CURVE SMOOTH",
"391 383 OFFCURVE",
"373 352 OFFCURVE",
"337 331 CURVE",
"181 331 LINE"
);
}
);
width = 599;
}
);
note = R;
unicode = 0052;
},
{
glyphname = Racute;
lastChange = "2015-07-19 04:35:37 +0000";
layers = (
{
layerId = "4CE4ED08-6AC3-4BDD-8925-679D298B3381";
name = Bold;
paths = (
{
closed = 1;
nodes = (
"531 -7 OFFCURVE",
"554 -4 OFFCURVE",
"573 2 CURVE",
"573 64 LINE",
"527 73 LINE",
"462 195 LINE SMOOTH",
"443 228 OFFCURVE",
"422 247 OFFCURVE",
"389 260 CURVE",
"389 269 LINE",
"462 304 OFFCURVE",
"500 362 OFFCURVE",
"500 443 CURVE SMOOTH",
"500 572 OFFCURVE",
"414 628 OFFCURVE",
"259 628 CURVE SMOOTH",
"190 628 OFFCURVE",
"124 616 OFFCURVE",
"71 600 CURVE",
"71 0 LINE",
"181 0 LINE",
"181 237 LINE",
"254 237 LINE",
"322 236 OFFCURVE",
"336 208 OFFCURVE",
"357 163 CURVE SMOOTH",
"413 44 LINE SMOOTH",
"429 9 OFFCURVE",
"453 -7 OFFCURVE",
"500 -7 CURVE SMOOTH"
);
},
{
closed = 1;
nodes = (
"181 523 LINE",
"203 528 OFFCURVE",
"230 530 OFFCURVE",
"258 530 CURVE SMOOTH",
"348 530 OFFCURVE",
"391 507 OFFCURVE",
"391 434 CURVE SMOOTH",
"391 383 OFFCURVE",
"373 352 OFFCURVE",
"337 331 CURVE",
"181 331 LINE"
);
},
{
closed = 1;
nodes = (
"422 832 LINE",
"297 844 LINE",
"214 692 LINE",
"293 678 LINE"
);
}
);
width = 599;
}
);
note = Racute;
unicode = 0154;
},
{
glyphname = Rcaron;
lastChange = "2015-07-19 04:35:37 +0000";
layers = (
{
layerId = "4CE4ED08-6AC3-4BDD-8925-679D298B3381";
name = Bold;
paths = (
{
closed = 1;
nodes = (
"531 -7 OFFCURVE",
"554 -4 OFFCURVE",
"573 2 CURVE",
"573 64 LINE",
"527 73 LINE",
"462 195 LINE SMOOTH",
"443 228 OFFCURVE",
"422 247 OFFCURVE",
"389 260 CURVE",
"389 269 LINE",
"462 304 OFFCURVE",
"500 362 OFFCURVE",
"500 443 CURVE SMOOTH",
"500 572 OFFCURVE",
"414 628 OFFCURVE",
"259 628 CURVE SMOOTH",
"190 628 OFFCURVE",
"124 616 OFFCURVE",
"71 600 CURVE",
"71 0 LINE",
"181 0 LINE",
"181 237 LINE",
"250 237 LINE SMOOTH",
"322 237 OFFCURVE",
"335 209 OFFCURVE",
"357 163 CURVE SMOOTH",
"413 44 LINE SMOOTH",
"429 9 OFFCURVE",
"453 -7 OFFCURVE",
"500 -7 CURVE SMOOTH"
);
},
{
closed = 1;
nodes = (
"181 523 LINE",
"203 528 OFFCURVE",
"230 530 OFFCURVE",
"258 530 CURVE SMOOTH",
"348 530 OFFCURVE",
"391 507 OFFCURVE",
"391 434 CURVE SMOOTH",
"391 383 OFFCURVE",
"373 352 OFFCURVE",
"337 331 CURVE",
"181 331 LINE"
);
},
{
closed = 1;
nodes = (
"324 684 LINE",
"421 821 LINE",
"357 833 LINE",
"280 764 LINE",
"274 764 LINE",
"195 833 LINE",
"132 821 LINE",
"230 684 LINE"
);
}
);
width = 599;
}
);
note = Rcaron;
unicode = 0158;
},
{
glyphname = Rcommaaccent;
lastChange = "2015-07-19 04:35:38 +0000";
layers = (
{
layerId = "4CE4ED08-6AC3-4BDD-8925-679D298B3381";
name = Bold;
paths = (
{
closed = 1;
nodes = (
"531 -7 OFFCURVE",
"554 -4 OFFCURVE",
"573 2 CURVE",
"573 64 LINE",
"527 73 LINE",
"462 195 LINE SMOOTH",
"443 228 OFFCURVE",
"422 247 OFFCURVE",
"389 260 CURVE",
"389 269 LINE",
"462 304 OFFCURVE",
"500 362 OFFCURVE",
"500 443 CURVE SMOOTH",
"500 572 OFFCURVE",
"414 628 OFFCURVE",
"259 628 CURVE SMOOTH",
"190 628 OFFCURVE",
"124 616 OFFCURVE",
"71 600 CURVE",
"71 0 LINE",
"181 0 LINE",
"181 237 LINE",
"260 237 LINE SMOOTH",
"323 234 OFFCURVE",
"336 206 OFFCURVE",
"357 163 CURVE SMOOTH",
"413 44 LINE SMOOTH",
"429 9 OFFCURVE",
"453 -7 OFFCURVE",
"500 -7 CURVE SMOOTH"
);
},
{
closed = 1;
nodes = (
"350 -222 OFFCURVE",
"371 -175 OFFCURVE",
"371 -132 CURVE SMOOTH",
"371 -81 OFFCURVE",
"347 -55 OFFCURVE",
"294 -55 CURVE SMOOTH",
"273 -55 OFFCURVE",
"249 -59 OFFCURVE",
"231 -66 CURVE",
"231 -139 LINE",
"284 -139 LINE",
"283 -174 OFFCURVE",
"272 -206 OFFCURVE",
"252 -241 CURVE",
"319 -256 LINE"
);
},
{
closed = 1;
nodes = (
"181 523 LINE",
"203 528 OFFCURVE",
"230 530 OFFCURVE",
"258 530 CURVE SMOOTH",
"348 530 OFFCURVE",
"391 507 OFFCURVE",
"391 434 CURVE SMOOTH",
"391 383 OFFCURVE",
"373 352 OFFCURVE",
"337 331 CURVE",
"181 331 LINE"
);
}
);
width = 599;
}
);
note = Rcommaaccent;
unicode = 0156;
},
{
glyphname = Rdotbelow;
lastChange = "2015-07-19 04:35:37 +0000";
layers = (
{
layerId = "4CE4ED08-6AC3-4BDD-8925-679D298B3381";
name = Bold;
paths = (
{
closed = 1;
nodes = (
"531 -7 OFFCURVE",
"554 -4 OFFCURVE",
"573 2 CURVE",
"573 64 LINE",
"527 73 LINE",
"462 195 LINE SMOOTH",
"443 228 OFFCURVE",
"422 247 OFFCURVE",
"389 260 CURVE",
"389 269 LINE",
"462 304 OFFCURVE",
"500 362 OFFCURVE",
"500 443 CURVE SMOOTH",
"500 572 OFFCURVE",
"414 628 OFFCURVE",
"259 628 CURVE SMOOTH",
"190 628 OFFCURVE",
"124 616 OFFCURVE",
"71 600 CURVE",
"71 0 LINE",
"181 0 LINE",
"181 237 LINE",
"254 237 LINE SMOOTH",
"322 236 OFFCURVE",
"336 208 OFFCURVE",
"357 163 CURVE SMOOTH",
"413 44 LINE SMOOTH",
"429 9 OFFCURVE",
"453 -7 OFFCURVE",
"500 -7 CURVE SMOOTH"
);
},
{
closed = 1;
nodes = (
"349 -183 OFFCURVE",
"375 -159 OFFCURVE",
"375 -119 CURVE SMOOTH",
"375 -77 OFFCURVE",
"349 -53 OFFCURVE",
"306 -53 CURVE SMOOTH",
"263 -53 OFFCURVE",
"238 -77 OFFCURVE",
"238 -119 CURVE SMOOTH",
"238 -159 OFFCURVE",
"263 -183 OFFCURVE",
"306 -183 CURVE SMOOTH"
);
},
{
closed = 1;
nodes = (
"181 523 LINE",
"203 528 OFFCURVE",
"230 530 OFFCURVE",
"258 530 CURVE SMOOTH",
"348 530 OFFCURVE",
"391 507 OFFCURVE",
"391 434 CURVE SMOOTH",
"391 383 OFFCURVE",
"373 352 OFFCURVE",
"337 331 CURVE",
"181 331 LINE"
);
}
);
width = 599;
}
);
note = Rdotbelow;
unicode = 1E5A;
},
{
glyphname = Rdotbelowmacron;
lastChange = "2015-07-19 04:35:37 +0000";
layers = (
{
layerId = "4CE4ED08-6AC3-4BDD-8925-679D298B3381";
name = Bold;
paths = (
{
closed = 1;
nodes = (
"531 -7 OFFCURVE",
"554 -4 OFFCURVE",
"573 2 CURVE",
"573 64 LINE",
"527 73 LINE",
"462 195 LINE SMOOTH",
"443 228 OFFCURVE",
"422 247 OFFCURVE",
"389 260 CURVE",
"389 269 LINE",
"462 304 OFFCURVE",
"500 362 OFFCURVE",
"500 443 CURVE SMOOTH",
"500 572 OFFCURVE",
"414 628 OFFCURVE",
"259 628 CURVE SMOOTH",
"190 628 OFFCURVE",
"124 616 OFFCURVE",
"71 600 CURVE",
"71 0 LINE",
"181 0 LINE",
"181 237 LINE",
"254 237 LINE SMOOTH",
"317 237 OFFCURVE",
"332 214 OFFCURVE",
"357 163 CURVE SMOOTH",
"413 44 LINE SMOOTH",
"429 9 OFFCURVE",
"453 -7 OFFCURVE",
"500 -7 CURVE SMOOTH"
);
},
{
closed = 1;
nodes = (
"337 -181 OFFCURVE",
"363 -157 OFFCURVE",
"363 -118 CURVE SMOOTH",
"363 -75 OFFCURVE",
"337 -52 OFFCURVE",
"294 -52 CURVE SMOOTH",
"251 -52 OFFCURVE",
"226 -75 OFFCURVE",
"226 -118 CURVE SMOOTH",
"226 -157 OFFCURVE",
"251 -181 OFFCURVE",
"294 -181 CURVE SMOOTH"
);
},
{
closed = 1;
nodes = (
"181 523 LINE",
"203 528 OFFCURVE",
"230 530 OFFCURVE",
"258 530 CURVE SMOOTH",
"348 530 OFFCURVE",
"391 507 OFFCURVE",
"391 434 CURVE SMOOTH",
"391 383 OFFCURVE",
"373 352 OFFCURVE",
"337 331 CURVE",
"181 331 LINE"
);
},
{
closed = 1;
nodes = (
"448 684 LINE",
"448 780 LINE",
"117 780 LINE",
"117 684 LINE"
);
}
);
width = 599;
}
);
note = Rdotbelowmacron;
unicode = 1E5C;
},
{
glyphname = Rlinebelow;
lastChange = "2015-07-19 06:45:22 +0000";
layers = (
{
layerId = "4CE4ED08-6AC3-4BDD-8925-679D298B3381";
name = Bold;
paths = (
{
closed = 1;
nodes = (
"532 -7 OFFCURVE",
"555 -4 OFFCURVE",
"574 2 CURVE",
"574 64 LINE",
"528 73 LINE",
"463 195 LINE SMOOTH",
"444 228 OFFCURVE",
"423 247 OFFCURVE",
"390 260 CURVE",
"390 269 LINE",
"463 304 OFFCURVE",
"501 362 OFFCURVE",
"501 443 CURVE SMOOTH",
"501 572 OFFCURVE",
"415 628 OFFCURVE",
"260 628 CURVE SMOOTH",
"191 628 OFFCURVE",
"125 616 OFFCURVE",
"72 600 CURVE",
"72 0 LINE",
"182 0 LINE",
"182 237 LINE",
"251 237 LINE SMOOTH",
"323 237 OFFCURVE",
"336 209 OFFCURVE",
"358 163 CURVE SMOOTH",
"414 44 LINE SMOOTH",
"430 9 OFFCURVE",
"454 -7 OFFCURVE",
"501 -7 CURVE SMOOTH"
);
},
{
closed = 1;
nodes = (
"404 -147 LINE",
"404 -57 LINE",
"71 -57 LINE",
"71 -147 LINE"
);
},
{
closed = 1;
nodes = (
"182 523 LINE",
"204 528 OFFCURVE",
"231 530 OFFCURVE",
"259 530 CURVE SMOOTH",
"349 530 OFFCURVE",
"392 507 OFFCURVE",
"392 434 CURVE SMOOTH",
"392 383 OFFCURVE",
"374 352 OFFCURVE",
"338 331 CURVE",
"182 331 LINE"
);
}
);
width = 600;
}
);
note = Rlinebelow;
unicode = 1E5E;
},
{
glyphname = S;
lastChange = "2015-07-19 04:35:36 +0000";
layers = (
{
layerId = "4CE4ED08-6AC3-4BDD-8925-679D298B3381";
name = Bold;
paths = (
{
closed = 1;
nodes = (
"436 -8 OFFCURVE",
"494 75 OFFCURVE",
"494 177 CURVE SMOOTH",
"494 291 OFFCURVE",
"427 332 OFFCURVE",
"301 359 CURVE SMOOTH",
"208 380 OFFCURVE",
"176 399 OFFCURVE",
"176 450 CURVE SMOOTH",
"176 507 OFFCURVE",
"207 531 OFFCURVE",
"281 531 CURVE SMOOTH",
"310 531 OFFCURVE",
"333 529 OFFCURVE",
"360 525 CURVE",
"371 444 LINE",
"456 444 LINE",
"465 469 OFFCURVE",
"473 518 OFFCURVE",
"473 548 CURVE SMOOTH",
"473 584 LINE",
"430 608 OFFCURVE",
"377 628 OFFCURVE",
"286 628 CURVE SMOOTH",
"127 628 OFFCURVE",
"66 544 OFFCURVE",
"66 444 CURVE SMOOTH",
"66 320 OFFCURVE",
"156 283 OFFCURVE",
"273 255 CURVE SMOOTH",
"357 235 OFFCURVE",
"384 214 OFFCURVE",
"384 163 CURVE SMOOTH",
"384 141 OFFCURVE",
"381 119 OFFCURVE",
"374 101 CURVE",
"346 95 OFFCURVE",
"317 92 OFFCURVE",
"273 92 CURVE SMOOTH",
"203 92 OFFCURVE",
"141 106 OFFCURVE",
"83 137 CURVE",
"46 44 LINE",
"109 10 OFFCURVE",
"182 -8 OFFCURVE",
"266 -8 CURVE SMOOTH"
);
}
);
width = 543;
}
);
note = S;
unicode = 0053;
},
{
glyphname = Sacute;
lastChange = "2015-07-19 04:35:38 +0000";
layers = (
{
layerId = "4CE4ED08-6AC3-4BDD-8925-679D298B3381";
name = Bold;
paths = (
{
closed = 1;
nodes = (
"436 -8 OFFCURVE",
"494 75 OFFCURVE",
"494 177 CURVE SMOOTH",
"494 291 OFFCURVE",
"427 332 OFFCURVE",
"301 359 CURVE SMOOTH",
"208 380 OFFCURVE",
"176 399 OFFCURVE",
"176 450 CURVE SMOOTH",
"176 507 OFFCURVE",
"207 531 OFFCURVE",
"281 531 CURVE SMOOTH",
"310 531 OFFCURVE",
"333 529 OFFCURVE",
"360 525 CURVE",
"371 444 LINE",
"456 444 LINE",
"465 469 OFFCURVE",
"473 518 OFFCURVE",
"473 548 CURVE SMOOTH",
"473 584 LINE",
"430 608 OFFCURVE",
"377 628 OFFCURVE",
"286 628 CURVE SMOOTH",
"127 628 OFFCURVE",
"66 544 OFFCURVE",
"66 444 CURVE SMOOTH",
"66 320 OFFCURVE",
"156 283 OFFCURVE",
"273 255 CURVE SMOOTH",
"357 235 OFFCURVE",
"384 214 OFFCURVE",
"384 163 CURVE SMOOTH",
"384 141 OFFCURVE",
"381 119 OFFCURVE",
"374 101 CURVE",
"346 95 OFFCURVE",
"317 92 OFFCURVE",
"273 92 CURVE SMOOTH",
"203 92 OFFCURVE",
"141 106 OFFCURVE",
"83 137 CURVE",
"46 44 LINE",
"109 10 OFFCURVE",
"182 -8 OFFCURVE",
"266 -8 CURVE SMOOTH"
);
},
{
closed = 1;
nodes = (
"432 832 LINE",
"307 844 LINE",
"224 692 LINE",
"303 678 LINE"
);
}
);
width = 543;
}
);
note = Sacute;
unicode = 015A;
},
{
glyphname = Scaron;
lastChange = "2015-07-19 04:35:37 +0000";
layers = (
{
layerId = "4CE4ED08-6AC3-4BDD-8925-679D298B3381";
name = Bold;
paths = (
{
closed = 1;
nodes = (
"436 -8 OFFCURVE",
"494 75 OFFCURVE",
"494 177 CURVE SMOOTH",
"494 291 OFFCURVE",
"427 332 OFFCURVE",
"301 359 CURVE SMOOTH",
"208 380 OFFCURVE",
"176 399 OFFCURVE",
"176 450 CURVE SMOOTH",
"176 507 OFFCURVE",
"207 531 OFFCURVE",
"281 531 CURVE SMOOTH",
"310 531 OFFCURVE",
"333 529 OFFCURVE",
"360 525 CURVE",
"371 444 LINE",
"456 444 LINE",
"465 469 OFFCURVE",
"473 518 OFFCURVE",
"473 548 CURVE SMOOTH",
"473 584 LINE",
"430 608 OFFCURVE",
"377 628 OFFCURVE",
"286 628 CURVE SMOOTH",
"127 628 OFFCURVE",
"66 544 OFFCURVE",
"66 444 CURVE SMOOTH",
"66 320 OFFCURVE",
"156 283 OFFCURVE",
"273 255 CURVE SMOOTH",
"357 235 OFFCURVE",
"384 214 OFFCURVE",
"384 163 CURVE SMOOTH",
"384 141 OFFCURVE",
"381 119 OFFCURVE",
"374 101 CURVE",
"346 95 OFFCURVE",
"317 92 OFFCURVE",
"273 92 CURVE SMOOTH",
"203 92 OFFCURVE",
"141 106 OFFCURVE",
"83 137 CURVE",
"46 44 LINE",
"109 10 OFFCURVE",
"182 -8 OFFCURVE",
"266 -8 CURVE SMOOTH"
);
},
{
closed = 1;
nodes = (
"326 684 LINE",
"423 821 LINE",
"359 833 LINE",
"282 764 LINE",
"276 764 LINE",
"197 833 LINE",
"134 821 LINE",
"232 684 LINE"
);
}
);
width = 543;
}
);
note = Scaron;
unicode = 0160;
},
{
glyphname = Scedilla;
lastChange = "2015-07-19 04:35:36 +0000";
layers = (
{
layerId = "4CE4ED08-6AC3-4BDD-8925-679D298B3381";
name = Bold;
paths = (
{
closed = 1;
nodes = (
"366 -233 OFFCURVE",
"403 -196 OFFCURVE",
"403 -133 CURVE SMOOTH",
"403 -81 OFFCURVE",
"378 -49 OFFCURVE",
"323 -49 CURVE SMOOTH",
"307 -49 OFFCURVE",
"295 -51 OFFCURVE",
"284 -56 CURVE",
"320 -5 LINE",
"449 11 OFFCURVE",
"494 87 OFFCURVE",
"494 177 CURVE SMOOTH",
"494 291 OFFCURVE",
"427 332 OFFCURVE",
"301 359 CURVE SMOOTH",
"208 380 OFFCURVE",
"176 399 OFFCURVE",
"176 450 CURVE SMOOTH",
"176 507 OFFCURVE",
"207 531 OFFCURVE",
"281 531 CURVE SMOOTH",
"310 531 OFFCURVE",
"333 529 OFFCURVE",
"360 525 CURVE",
"371 444 LINE",
"456 444 LINE",
"465 469 OFFCURVE",
"473 518 OFFCURVE",
"473 548 CURVE SMOOTH",
"473 584 LINE",
"430 608 OFFCURVE",
"377 628 OFFCURVE",
"286 628 CURVE SMOOTH",
"127 628 OFFCURVE",
"66 544 OFFCURVE",
"66 444 CURVE SMOOTH",
"66 320 OFFCURVE",
"156 283 OFFCURVE",
"273 255 CURVE SMOOTH",
"357 235 OFFCURVE",
"384 214 OFFCURVE",
"384 163 CURVE SMOOTH",
"384 141 OFFCURVE",
"381 119 OFFCURVE",
"374 101 CURVE",
"346 95 OFFCURVE",
"317 92 OFFCURVE",
"273 92 CURVE SMOOTH",
"203 92 OFFCURVE",
"141 106 OFFCURVE",
"83 137 CURVE",
"46 44 LINE",
"101 14 OFFCURVE",
"165 -3 OFFCURVE",
"236 -7 CURVE",
"181 -71 LINE",
"227 -118 LINE",
"237 -113 OFFCURVE",
"252 -110 OFFCURVE",
"267 -110 CURVE SMOOTH",
"294 -110 OFFCURVE",
"311 -117 OFFCURVE",
"311 -136 CURVE SMOOTH",
"311 -145 OFFCURVE",
"310 -151 OFFCURVE",
"307 -158 CURVE",
"294 -161 OFFCURVE",
"282 -161 OFFCURVE",
"266 -161 CURVE SMOOTH",
"245 -161 OFFCURVE",
"219 -157 OFFCURVE",
"199 -149 CURVE",
"178 -213 LINE",
"210 -228 OFFCURVE",
"245 -233 OFFCURVE",
"280 -233 CURVE SMOOTH"
);
}
);
width = 543;
}
);
note = Scedilla;
unicode = 015E;
},
{
glyphname = Scircumflex;
lastChange = "2015-07-19 04:35:37 +0000";
layers = (
{
layerId = "4CE4ED08-6AC3-4BDD-8925-679D298B3381";
name = Bold;
paths = (
{
closed = 1;
nodes = (
"436 -8 OFFCURVE",
"494 75 OFFCURVE",
"494 177 CURVE SMOOTH",
"494 291 OFFCURVE",
"427 332 OFFCURVE",
"301 359 CURVE SMOOTH",
"208 380 OFFCURVE",
"176 399 OFFCURVE",
"176 450 CURVE SMOOTH",
"176 507 OFFCURVE",
"207 531 OFFCURVE",
"281 531 CURVE SMOOTH",
"310 531 OFFCURVE",
"333 529 OFFCURVE",
"360 525 CURVE",
"371 444 LINE",
"456 444 LINE",
"465 469 OFFCURVE",
"473 518 OFFCURVE",
"473 548 CURVE SMOOTH",
"473 584 LINE",
"430 608 OFFCURVE",
"377 628 OFFCURVE",
"286 628 CURVE SMOOTH",
"127 628 OFFCURVE",
"66 544 OFFCURVE",
"66 444 CURVE SMOOTH",
"66 320 OFFCURVE",
"156 283 OFFCURVE",
"273 255 CURVE SMOOTH",
"357 235 OFFCURVE",
"384 214 OFFCURVE",
"384 163 CURVE SMOOTH",
"384 141 OFFCURVE",
"381 119 OFFCURVE",
"374 101 CURVE",
"346 95 OFFCURVE",
"317 92 OFFCURVE",
"273 92 CURVE SMOOTH",
"203 92 OFFCURVE",
"141 106 OFFCURVE",
"83 137 CURVE",
"46 44 LINE",
"109 10 OFFCURVE",
"182 -8 OFFCURVE",
"266 -8 CURVE SMOOTH"
);
},
{
closed = 1;
nodes = (
"276 746 LINE",
"282 746 LINE",
"359 677 LINE",
"423 689 LINE",
"326 826 LINE",
"232 826 LINE",
"134 689 LINE",
"197 677 LINE"
);
}
);
width = 543;
}
);
note = Scircumflex;
unicode = 015C;
},
{
glyphname = Scommaaccent;
lastChange = "2015-07-19 04:35:38 +0000";
layers = (
{
layerId = "4CE4ED08-6AC3-4BDD-8925-679D298B3381";
name = Bold;
paths = (
{
closed = 1;
nodes = (
"436 -8 OFFCURVE",
"494 75 OFFCURVE",
"494 177 CURVE SMOOTH",
"494 291 OFFCURVE",
"427 332 OFFCURVE",
"301 359 CURVE SMOOTH",
"208 380 OFFCURVE",
"176 399 OFFCURVE",
"176 450 CURVE SMOOTH",
"176 507 OFFCURVE",
"207 531 OFFCURVE",
"281 531 CURVE SMOOTH",
"310 531 OFFCURVE",
"333 529 OFFCURVE",
"360 525 CURVE",
"371 444 LINE",
"456 444 LINE",
"465 469 OFFCURVE",
"473 518 OFFCURVE",
"473 548 CURVE SMOOTH",
"473 584 LINE",
"430 608 OFFCURVE",
"377 628 OFFCURVE",
"286 628 CURVE SMOOTH",
"127 628 OFFCURVE",
"66 544 OFFCURVE",
"66 444 CURVE SMOOTH",
"66 320 OFFCURVE",
"156 283 OFFCURVE",
"273 255 CURVE SMOOTH",
"357 235 OFFCURVE",
"384 214 OFFCURVE",
"384 163 CURVE SMOOTH",
"384 141 OFFCURVE",
"381 119 OFFCURVE",
"374 101 CURVE",
"346 95 OFFCURVE",
"317 92 OFFCURVE",
"273 92 CURVE SMOOTH",
"203 92 OFFCURVE",
"141 106 OFFCURVE",
"83 137 CURVE",
"46 44 LINE",
"109 10 OFFCURVE",
"182 -8 OFFCURVE",
"266 -8 CURVE SMOOTH"
);
},
{
closed = 1;
nodes = (
"341 -224 OFFCURVE",
"362 -177 OFFCURVE",
"362 -134 CURVE SMOOTH",
"362 -82 OFFCURVE",
"338 -57 OFFCURVE",
"285 -57 CURVE SMOOTH",
"264 -57 OFFCURVE",
"240 -61 OFFCURVE",
"222 -67 CURVE",
"222 -141 LINE",
"275 -141 LINE",
"274 -176 OFFCURVE",
"263 -207 OFFCURVE",
"243 -243 CURVE",
"310 -258 LINE"
);
}
);
width = 543;
}
);
note = Scommaaccent;
unicode = 0218;
},
{
glyphname = Sdotaccent;
lastChange = "2015-07-19 04:35:38 +0000";
layers = (
{
layerId = "4CE4ED08-6AC3-4BDD-8925-679D298B3381";
name = Bold;
paths = (
{
closed = 1;
nodes = (
"436 -8 OFFCURVE",
"494 75 OFFCURVE",
"494 177 CURVE SMOOTH",
"494 291 OFFCURVE",
"427 332 OFFCURVE",
"301 359 CURVE SMOOTH",
"208 380 OFFCURVE",
"176 399 OFFCURVE",
"176 450 CURVE SMOOTH",
"176 507 OFFCURVE",
"207 531 OFFCURVE",
"281 531 CURVE SMOOTH",
"310 531 OFFCURVE",
"333 529 OFFCURVE",
"360 525 CURVE",
"371 444 LINE",
"456 444 LINE",
"465 469 OFFCURVE",
"473 518 OFFCURVE",
"473 548 CURVE SMOOTH",
"473 584 LINE",
"430 608 OFFCURVE",
"377 628 OFFCURVE",
"286 628 CURVE SMOOTH",
"127 628 OFFCURVE",
"66 544 OFFCURVE",
"66 444 CURVE SMOOTH",
"66 320 OFFCURVE",
"156 283 OFFCURVE",
"273 255 CURVE SMOOTH",
"357 235 OFFCURVE",
"384 214 OFFCURVE",
"384 163 CURVE SMOOTH",
"384 141 OFFCURVE",
"381 119 OFFCURVE",
"374 101 CURVE",
"346 95 OFFCURVE",
"317 92 OFFCURVE",
"273 92 CURVE SMOOTH",
"203 92 OFFCURVE",
"141 106 OFFCURVE",
"83 137 CURVE",
"46 44 LINE",
"109 10 OFFCURVE",
"182 -8 OFFCURVE",
"266 -8 CURVE SMOOTH"
);
},
{
closed = 1;
nodes = (
"320 681 OFFCURVE",
"346 705 OFFCURVE",
"346 745 CURVE SMOOTH",
"346 787 OFFCURVE",
"320 811 OFFCURVE",
"277 811 CURVE SMOOTH",
"234 811 OFFCURVE",
"209 787 OFFCURVE",
"209 745 CURVE SMOOTH",
"209 705 OFFCURVE",
"234 681 OFFCURVE",
"277 681 CURVE SMOOTH"
);
}
);
width = 543;
}
);
note = Sdotaccent;
unicode = 1E60;
},
{
glyphname = Sdotbelow;
lastChange = "2015-07-19 04:35:37 +0000";
layers = (
{
layerId = "4CE4ED08-6AC3-4BDD-8925-679D298B3381";
name = Bold;
paths = (
{
closed = 1;
nodes = (
"436 -8 OFFCURVE",
"494 75 OFFCURVE",
"494 177 CURVE SMOOTH",
"494 291 OFFCURVE",
"427 332 OFFCURVE",
"301 359 CURVE SMOOTH",
"208 380 OFFCURVE",
"176 399 OFFCURVE",
"176 450 CURVE SMOOTH",
"176 507 OFFCURVE",
"207 531 OFFCURVE",
"281 531 CURVE SMOOTH",
"310 531 OFFCURVE",
"333 529 OFFCURVE",
"360 525 CURVE",
"371 444 LINE",
"456 444 LINE",
"465 469 OFFCURVE",
"473 518 OFFCURVE",
"473 548 CURVE SMOOTH",
"473 584 LINE",
"430 608 OFFCURVE",
"377 628 OFFCURVE",
"286 628 CURVE SMOOTH",
"127 628 OFFCURVE",
"66 544 OFFCURVE",
"66 444 CURVE SMOOTH",
"66 320 OFFCURVE",
"156 283 OFFCURVE",
"273 255 CURVE SMOOTH",
"357 235 OFFCURVE",
"384 214 OFFCURVE",
"384 163 CURVE SMOOTH",
"384 141 OFFCURVE",
"381 119 OFFCURVE",
"374 101 CURVE",
"346 95 OFFCURVE",
"317 92 OFFCURVE",
"273 92 CURVE SMOOTH",
"203 92 OFFCURVE",
"141 106 OFFCURVE",
"83 137 CURVE",
"46 44 LINE",
"109 10 OFFCURVE",
"182 -8 OFFCURVE",
"266 -8 CURVE SMOOTH"
);
},
{
closed = 1;
nodes = (
"330 -184 OFFCURVE",
"356 -160 OFFCURVE",
"356 -120 CURVE SMOOTH",
"356 -78 OFFCURVE",
"330 -54 OFFCURVE",
"287 -54 CURVE SMOOTH",
"244 -54 OFFCURVE",
"219 -78 OFFCURVE",
"219 -120 CURVE SMOOTH",
"219 -160 OFFCURVE",
"244 -184 OFFCURVE",
"287 -184 CURVE SMOOTH"
);
}
);
width = 543;
}
);
note = Sdotbelow;
unicode = 1E62;
},
{
glyphname = uni1E9E;
lastChange = "2015-07-19 04:35:37 +0000";
layers = (
{
layerId = "4CE4ED08-6AC3-4BDD-8925-679D298B3381";
name = Bold;
paths = (
{
closed = 1;
nodes = (
"512 -10 OFFCURVE",
"576 57 OFFCURVE",
"576 175 CURVE SMOOTH",
"576 274 OFFCURVE",
"514 331 OFFCURVE",
"393 343 CURVE",
"393 350 LINE",
"522 477 LINE",
"522 544 LINE",
"462 587 OFFCURVE",
"387 618 OFFCURVE",
"295 618 CURVE SMOOTH",
"150 618 OFFCURVE",
"71 537 OFFCURVE",
"71 394 CURVE SMOOTH",
"71 0 LINE",
"179 0 LINE",
"179 394 LINE SMOOTH",
"179 483 OFFCURVE",
"212 518 OFFCURVE",
"299 518 CURVE SMOOTH",
"345 518 OFFCURVE",
"370 513 OFFCURVE",
"404 500 CURVE",
"404 492 LINE",
"271 355 LINE",
"271 271 LINE",
"338 271 LINE SMOOTH",
"428 271 OFFCURVE",
"467 244 OFFCURVE",
"467 179 CURVE SMOOTH",
"467 147 OFFCURVE",
"464 124 OFFCURVE",
"455 101 CURVE",
"428 93 OFFCURVE",
"408 89 OFFCURVE",
"361 89 CURVE SMOOTH",
"320 89 OFFCURVE",
"286 93 OFFCURVE",
"236 108 CURVE",
"211 18 LINE",
"267 -3 OFFCURVE",
"312 -10 OFFCURVE",
"364 -10 CURVE SMOOTH"
);
}
);
width = 610;
}
);
note = uni1E9E;
unicode = 1E9E;
},
{
glyphname = uni018F;
lastChange = "2015-07-19 04:35:38 +0000";
layers = (
{
layerId = "4CE4ED08-6AC3-4BDD-8925-679D298B3381";
name = Bold;
paths = (
{
closed = 1;
nodes = (
"489 -10 OFFCURVE",
"583 105 OFFCURVE",
"583 314 CURVE SMOOTH",
"583 506 OFFCURVE",
"498 628 OFFCURVE",
"297 628 CURVE SMOOTH",
"183 628 OFFCURVE",
"114 592 OFFCURVE",
"52 553 CURVE",
"92 468 LINE",
"148 504 OFFCURVE",
"199 528 OFFCURVE",
"289 528 CURVE SMOOTH",
"406 528 OFFCURVE",
"472 479 OFFCURVE",
"472 356 CURVE",
"151 361 LINE",
"48 269 LINE",
"47 257 OFFCURVE",
"47 246 OFFCURVE",
"47 234 CURVE SMOOTH",
"47 86 OFFCURVE",
"128 -10 OFFCURVE",
"297 -10 CURVE SMOOTH"
);
},
{
closed = 1;
nodes = (
"198 88 OFFCURVE",
"156 140 OFFCURVE",
"156 210 CURVE SMOOTH",
"156 230 OFFCURVE",
"157 239 OFFCURVE",
"160 256 CURVE",
"473 261 LINE",
"473 152 OFFCURVE",
"425 88 OFFCURVE",
"303 88 CURVE SMOOTH"
);
}
);
width = 644;
}
);
note = uni018F;
unicode = 018F;
},
{
glyphname = T;
lastChange = "2015-07-19 08:37:54 +0000";
layers = (
{
layerId = "4CE4ED08-6AC3-4BDD-8925-679D298B3381";
name = Bold;
paths = (
{
closed = 1;
nodes = (
"340 0 LINE",
"340 516 LINE",
"538 516 LINE",
"538 618 LINE",
"32 618 LINE",
"32 516 LINE",
"230 516 LINE",
"230 0 LINE"
);
}
);
width = 570;
}
);
leftKerningGroup = T;
note = T;
rightKerningGroup = T;
unicode = 0054;
},
{
glyphname = Tbar;
lastChange = "2015-07-19 07:32:38 +0000";
layers = (
{
layerId = "4CE4ED08-6AC3-4BDD-8925-679D298B3381";
name = Bold;
paths = (
{
closed = 1;
nodes = (
"340 0 LINE",
"340 252 LINE",
"455 252 LINE",
"455 341 LINE",
"340 341 LINE",
"340 516 LINE",
"538 516 LINE",
"538 618 LINE",
"32 618 LINE",
"32 516 LINE",
"230 516 LINE",
"230 341 LINE",
"115 341 LINE",
"115 252 LINE",
"230 252 LINE",
"230 0 LINE"
);
}
);
width = 570;
}
);
leftKerningGroup = T;
note = Tbar;
rightKerningGroup = T;
unicode = 0166;
},
{
glyphname = Tcaron;
lastChange = "2015-07-19 07:32:38 +0000";
layers = (
{
layerId = "4CE4ED08-6AC3-4BDD-8925-679D298B3381";
name = Bold;
paths = (
{
closed = 1;
nodes = (
"340 0 LINE",
"340 516 LINE",
"538 516 LINE",
"538 618 LINE",
"32 618 LINE",
"32 516 LINE",
"230 516 LINE",
"230 0 LINE"
);
},
{
closed = 1;
nodes = (
"332 684 LINE",
"429 821 LINE",
"365 833 LINE",
"288 764 LINE",
"282 764 LINE",
"203 833 LINE",
"140 821 LINE",
"238 684 LINE"
);
}
);
width = 570;
}
);
leftKerningGroup = T;
note = Tcaron;
rightKerningGroup = T;
unicode = 0164;
},
{
glyphname = Tcedilla;
lastChange = "2015-07-19 07:32:38 +0000";
layers = (
{
layerId = "4CE4ED08-6AC3-4BDD-8925-679D298B3381";
name = Bold;
paths = (
{
closed = 1;
nodes = (
"355 -231 OFFCURVE",
"392 -194 OFFCURVE",
"392 -131 CURVE SMOOTH",
"392 -80 OFFCURVE",
"366 -47 OFFCURVE",
"312 -47 CURVE SMOOTH",
"296 -47 OFFCURVE",
"284 -49 OFFCURVE",
"272 -54 CURVE",
"311 0 LINE",
"340 0 LINE",
"340 516 LINE",
"538 516 LINE",
"538 618 LINE",
"32 618 LINE",
"32 516 LINE",
"230 516 LINE",
"230 0 LINE",
"170 -69 LINE",
"215 -116 LINE",
"225 -111 OFFCURVE",
"241 -108 OFFCURVE",
"256 -108 CURVE SMOOTH",
"283 -108 OFFCURVE",
"300 -115 OFFCURVE",
"300 -135 CURVE SMOOTH",
"300 -144 OFFCURVE",
"299 -150 OFFCURVE",
"296 -157 CURVE",
"282 -159 OFFCURVE",
"271 -160 OFFCURVE",
"255 -160 CURVE SMOOTH",
"234 -160 OFFCURVE",
"208 -155 OFFCURVE",
"188 -148 CURVE",
"167 -211 LINE",
"199 -226 OFFCURVE",
"234 -231 OFFCURVE",
"269 -231 CURVE SMOOTH"
);
}
);
width = 570;
}
);
leftKerningGroup = T;
note = Tcedilla;
rightKerningGroup = T;
unicode = 0162;
},
{
glyphname = Tcommaaccent;
lastChange = "2015-07-19 07:32:38 +0000";
layers = (
{
layerId = "4CE4ED08-6AC3-4BDD-8925-679D298B3381";
name = Bold;
paths = (
{
closed = 1;
nodes = (
"340 0 LINE",
"340 516 LINE",
"538 516 LINE",
"538 618 LINE",
"32 618 LINE",
"32 516 LINE",
"230 516 LINE",
"230 0 LINE"
);
},
{
closed = 1;
nodes = (
"333 -219 OFFCURVE",
"354 -172 OFFCURVE",
"354 -129 CURVE SMOOTH",
"354 -77 OFFCURVE",
"330 -52 OFFCURVE",
"277 -52 CURVE SMOOTH",
"256 -52 OFFCURVE",
"232 -56 OFFCURVE",
"214 -63 CURVE",
"214 -136 LINE",
"267 -136 LINE",
"266 -171 OFFCURVE",
"255 -203 OFFCURVE",
"235 -238 CURVE",
"302 -253 LINE"
);
}
);
width = 570;
}
);
leftKerningGroup = T;
note = Tcommaaccent;
rightKerningGroup = T;
},
{
glyphname = Tdotbelow;
lastChange = "2015-07-19 07:32:38 +0000";
layers = (
{
layerId = "4CE4ED08-6AC3-4BDD-8925-679D298B3381";
name = Bold;
paths = (
{
closed = 1;
nodes = (
"340 0 LINE",
"340 516 LINE",
"538 516 LINE",
"538 618 LINE",
"32 618 LINE",
"32 516 LINE",
"230 516 LINE",
"230 0 LINE"
);
},
{
closed = 1;
nodes = (
"328 -183 OFFCURVE",
"354 -159 OFFCURVE",
"354 -120 CURVE SMOOTH",
"354 -77 OFFCURVE",
"328 -53 OFFCURVE",
"285 -53 CURVE SMOOTH",
"242 -53 OFFCURVE",
"217 -77 OFFCURVE",
"217 -120 CURVE SMOOTH",
"217 -159 OFFCURVE",
"242 -183 OFFCURVE",
"285 -183 CURVE SMOOTH"
);
}
);
width = 570;
}
);
leftKerningGroup = T;
note = Tdotbelow;
rightKerningGroup = T;
unicode = 1E6C;
},
{
glyphname = Tlinebelow;
lastChange = "2015-07-19 07:32:38 +0000";
layers = (
{
layerId = "4CE4ED08-6AC3-4BDD-8925-679D298B3381";
name = Bold;
paths = (
{
closed = 1;
nodes = (
"340 0 LINE",
"340 516 LINE",
"538 516 LINE",
"538 618 LINE",
"32 618 LINE",
"32 516 LINE",
"230 516 LINE",
"230 0 LINE"
);
},
{
closed = 1;
nodes = (
"451 -147 LINE",
"451 -57 LINE",
"118 -57 LINE",
"118 -147 LINE"
);
}
);
width = 570;
}
);
leftKerningGroup = T;
note = Tlinebelow;
rightKerningGroup = T;
unicode = 1E6E;
},
{
glyphname = U;
lastChange = "2015-07-19 04:35:36 +0000";
layers = (
{
layerId = "4CE4ED08-6AC3-4BDD-8925-679D298B3381";
name = Bold;
paths = (
{
closed = 1;
nodes = (
"447 -9 OFFCURVE",
"557 27 OFFCURVE",
"557 131 CURVE SMOOTH",
"557 618 LINE",
"447 618 LINE",
"447 112 LINE",
"416 100 OFFCURVE",
"372 92 OFFCURVE",
"310 92 CURVE SMOOTH",
"216 92 OFFCURVE",
"179 120 OFFCURVE",
"179 214 CURVE SMOOTH",
"179 618 LINE",
"69 618 LINE",
"69 192 LINE SMOOTH",
"69 63 OFFCURVE",
"143 -9 OFFCURVE",
"303 -9 CURVE SMOOTH"
);
}
);
width = 626;
}
);
note = U;
unicode = 0055;
},
{
glyphname = Uacute;
lastChange = "2015-07-19 04:35:37 +0000";
layers = (
{
layerId = "4CE4ED08-6AC3-4BDD-8925-679D298B3381";
name = Bold;
paths = (
{
closed = 1;
nodes = (
"447 -9 OFFCURVE",
"557 27 OFFCURVE",
"557 131 CURVE SMOOTH",
"557 618 LINE",
"447 618 LINE",
"447 112 LINE",
"416 100 OFFCURVE",
"372 92 OFFCURVE",
"310 92 CURVE SMOOTH",
"216 92 OFFCURVE",
"179 120 OFFCURVE",
"179 214 CURVE SMOOTH",
"179 618 LINE",
"69 618 LINE",
"69 192 LINE SMOOTH",
"69 63 OFFCURVE",
"143 -9 OFFCURVE",
"303 -9 CURVE SMOOTH"
);
},
{
closed = 1;
nodes = (
"459 831 LINE",
"334 844 LINE",
"251 691 LINE",
"330 677 LINE"
);
}
);
width = 626;
}
);
note = Uacute;
unicode = 00DA;
},
{
glyphname = Ubreve;
lastChange = "2015-07-19 04:35:37 +0000";
layers = (
{
layerId = "4CE4ED08-6AC3-4BDD-8925-679D298B3381";
name = Bold;
paths = (
{
closed = 1;
nodes = (
"447 -9 OFFCURVE",
"557 27 OFFCURVE",
"557 131 CURVE SMOOTH",
"557 618 LINE",
"447 618 LINE",
"447 112 LINE",
"416 100 OFFCURVE",
"372 92 OFFCURVE",
"310 92 CURVE SMOOTH",
"216 92 OFFCURVE",
"179 120 OFFCURVE",
"179 214 CURVE SMOOTH",
"179 618 LINE",
"69 618 LINE",
"69 192 LINE SMOOTH",
"69 63 OFFCURVE",
"143 -9 OFFCURVE",
"303 -9 CURVE SMOOTH"
);
},
{
closed = 1;
nodes = (
"407 681 OFFCURVE",
"450 726 OFFCURVE",
"458 805 CURVE",
"362 820 LINE",
"360 785 OFFCURVE",
"350 765 OFFCURVE",
"312 765 CURVE SMOOTH",
"274 765 OFFCURVE",
"264 785 OFFCURVE",
"262 820 CURVE",
"166 805 LINE",
"174 726 OFFCURVE",
"217 681 OFFCURVE",
"312 681 CURVE SMOOTH"
);
}
);
width = 626;
}
);
note = Ubreve;
unicode = 016C;
},
{
glyphname = Ucaron;
lastChange = "2015-07-19 04:35:37 +0000";
layers = (
{
layerId = "4CE4ED08-6AC3-4BDD-8925-679D298B3381";
name = Bold;
paths = (
{
closed = 1;
nodes = (
"447 -9 OFFCURVE",
"557 27 OFFCURVE",
"557 131 CURVE SMOOTH",
"557 618 LINE",
"447 618 LINE",
"447 112 LINE",
"416 100 OFFCURVE",
"372 92 OFFCURVE",
"310 92 CURVE SMOOTH",
"216 92 OFFCURVE",
"179 120 OFFCURVE",
"179 214 CURVE SMOOTH",
"179 618 LINE",
"69 618 LINE",
"69 192 LINE SMOOTH",
"69 63 OFFCURVE",
"143 -9 OFFCURVE",
"303 -9 CURVE SMOOTH"
);
},
{
closed = 1;
nodes = (
"360 684 LINE",
"457 821 LINE",
"393 833 LINE",
"316 764 LINE",
"310 764 LINE",
"231 833 LINE",
"168 821 LINE",
"266 684 LINE"
);
}
);
width = 626;
}
);
note = Ucaron;
unicode = 01D3;
},
{
glyphname = Ucircumflex;
lastChange = "2015-07-19 04:35:37 +0000";
layers = (
{
layerId = "4CE4ED08-6AC3-4BDD-8925-679D298B3381";
name = Bold;
paths = (
{
closed = 1;
nodes = (
"447 -9 OFFCURVE",
"557 27 OFFCURVE",
"557 131 CURVE SMOOTH",
"557 618 LINE",
"447 618 LINE",
"447 112 LINE",
"416 100 OFFCURVE",
"372 92 OFFCURVE",
"310 92 CURVE SMOOTH",
"216 92 OFFCURVE",
"179 120 OFFCURVE",
"179 214 CURVE SMOOTH",
"179 618 LINE",
"69 618 LINE",
"69 192 LINE SMOOTH",
"69 63 OFFCURVE",
"143 -9 OFFCURVE",
"303 -9 CURVE SMOOTH"
);
},
{
closed = 1;
nodes = (
"310 746 LINE",
"316 746 LINE",
"393 677 LINE",
"457 689 LINE",
"360 826 LINE",
"266 826 LINE",
"168 689 LINE",
"231 677 LINE"
);
}
);
width = 626;
}
);
note = Ucircumflex;
unicode = 00DB;
},
{
glyphname = Udieresis;
lastChange = "2015-07-19 04:35:37 +0000";
layers = (
{
layerId = "4CE4ED08-6AC3-4BDD-8925-679D298B3381";
name = Bold;
paths = (
{
closed = 1;
nodes = (
"447 -9 OFFCURVE",
"557 27 OFFCURVE",
"557 131 CURVE SMOOTH",
"557 618 LINE",
"447 618 LINE",
"447 112 LINE",
"416 100 OFFCURVE",
"372 92 OFFCURVE",
"310 92 CURVE SMOOTH",
"216 92 OFFCURVE",
"179 120 OFFCURVE",
"179 214 CURVE SMOOTH",
"179 618 LINE",
"69 618 LINE",
"69 192 LINE SMOOTH",
"69 63 OFFCURVE",
"143 -9 OFFCURVE",
"303 -9 CURVE SMOOTH"
);
},
{
closed = 1;
nodes = (
"267 681 OFFCURVE",
"288 701 OFFCURVE",
"288 734 CURVE SMOOTH",
"288 769 OFFCURVE",
"267 788 OFFCURVE",
"231 788 CURVE SMOOTH",
"196 788 OFFCURVE",
"175 769 OFFCURVE",
"175 734 CURVE SMOOTH",
"175 701 OFFCURVE",
"196 681 OFFCURVE",
"231 681 CURVE SMOOTH"
);
},
{
closed = 1;
nodes = (
"433 681 OFFCURVE",
"453 701 OFFCURVE",
"453 734 CURVE SMOOTH",
"453 769 OFFCURVE",
"433 788 OFFCURVE",
"397 788 CURVE SMOOTH",
"361 788 OFFCURVE",
"340 769 OFFCURVE",
"340 734 CURVE SMOOTH",
"340 701 OFFCURVE",
"361 681 OFFCURVE",
"397 681 CURVE SMOOTH"
);
}
);
width = 626;
}
);
note = Udieresis;
unicode = 00DC;
},
{
glyphname = Udieresisacute;
lastChange = "2015-07-19 04:35:37 +0000";
layers = (
{
layerId = "4CE4ED08-6AC3-4BDD-8925-679D298B3381";
name = Bold;
paths = (
{
closed = 1;
nodes = (
"447 -9 OFFCURVE",
"557 27 OFFCURVE",
"557 131 CURVE SMOOTH",
"557 618 LINE",
"447 618 LINE",
"447 112 LINE",
"416 100 OFFCURVE",
"372 92 OFFCURVE",
"310 92 CURVE SMOOTH",
"216 92 OFFCURVE",
"179 120 OFFCURVE",
"179 214 CURVE SMOOTH",
"179 618 LINE",
"69 618 LINE",
"69 192 LINE SMOOTH",
"69 63 OFFCURVE",
"143 -9 OFFCURVE",
"303 -9 CURVE SMOOTH"
);
},
{
closed = 1;
nodes = (
"267 681 OFFCURVE",
"288 700 OFFCURVE",
"288 733 CURVE SMOOTH",
"288 768 OFFCURVE",
"267 788 OFFCURVE",
"231 788 CURVE SMOOTH",
"196 788 OFFCURVE",
"175 768 OFFCURVE",
"175 733 CURVE SMOOTH",
"175 700 OFFCURVE",
"196 681 OFFCURVE",
"231 681 CURVE SMOOTH"
);
},
{
closed = 1;
nodes = (
"433 681 OFFCURVE",
"453 700 OFFCURVE",
"453 733 CURVE SMOOTH",
"453 768 OFFCURVE",
"433 788 OFFCURVE",
"397 788 CURVE SMOOTH",
"361 788 OFFCURVE",
"340 768 OFFCURVE",
"340 733 CURVE SMOOTH",
"340 700 OFFCURVE",
"361 681 OFFCURVE",
"397 681 CURVE SMOOTH"
);
},
{
closed = 1;
nodes = (
"472 1001 LINE",
"347 1014 LINE",
"264 862 LINE",
"343 848 LINE"
);
}
);
width = 626;
}
);
note = Udieresisacute;
unicode = 01D7;
},
{
glyphname = Udieresiscaron;
lastChange = "2015-07-19 04:35:37 +0000";
layers = (
{
layerId = "4CE4ED08-6AC3-4BDD-8925-679D298B3381";
name = Bold;
paths = (
{
closed = 1;
nodes = (
"447 -9 OFFCURVE",
"557 27 OFFCURVE",
"557 131 CURVE SMOOTH",
"557 618 LINE",
"447 618 LINE",
"447 112 LINE",
"416 100 OFFCURVE",
"372 92 OFFCURVE",
"310 92 CURVE SMOOTH",
"216 92 OFFCURVE",
"179 120 OFFCURVE",
"179 214 CURVE SMOOTH",
"179 618 LINE",
"69 618 LINE",
"69 192 LINE SMOOTH",
"69 63 OFFCURVE",
"143 -9 OFFCURVE",
"303 -9 CURVE SMOOTH"
);
},
{
closed = 1;
nodes = (
"266 681 OFFCURVE",
"287 701 OFFCURVE",
"287 734 CURVE SMOOTH",
"287 769 OFFCURVE",
"266 788 OFFCURVE",
"230 788 CURVE SMOOTH",
"195 788 OFFCURVE",
"174 769 OFFCURVE",
"174 734 CURVE SMOOTH",
"174 701 OFFCURVE",
"195 681 OFFCURVE",
"230 681 CURVE SMOOTH"
);
},
{
closed = 1;
nodes = (
"432 681 OFFCURVE",
"452 701 OFFCURVE",
"452 734 CURVE SMOOTH",
"452 769 OFFCURVE",
"432 788 OFFCURVE",
"396 788 CURVE SMOOTH",
"360 788 OFFCURVE",
"339 769 OFFCURVE",
"339 734 CURVE SMOOTH",
"339 701 OFFCURVE",
"360 681 OFFCURVE",
"396 681 CURVE SMOOTH"
);
},
{
closed = 1;
nodes = (
"356 839 LINE",
"453 975 LINE",
"390 987 LINE",
"314 918 LINE",
"308 918 LINE",
"228 987 LINE",
"167 975 LINE",
"265 839 LINE"
);
}
);
width = 626;
}
);
note = Udieresiscaron;
unicode = 01D9;
},
{
glyphname = Udieresisgrave;
lastChange = "2015-07-19 04:35:37 +0000";
layers = (
{
layerId = "4CE4ED08-6AC3-4BDD-8925-679D298B3381";
name = Bold;
paths = (
{
closed = 1;
nodes = (
"447 -9 OFFCURVE",
"557 27 OFFCURVE",
"557 131 CURVE SMOOTH",
"557 618 LINE",
"447 618 LINE",
"447 112 LINE",
"416 100 OFFCURVE",
"372 92 OFFCURVE",
"310 92 CURVE SMOOTH",
"216 92 OFFCURVE",
"179 120 OFFCURVE",
"179 214 CURVE SMOOTH",
"179 618 LINE",
"69 618 LINE",
"69 192 LINE SMOOTH",
"69 63 OFFCURVE",
"143 -9 OFFCURVE",
"303 -9 CURVE SMOOTH"
);
},
{
closed = 1;
nodes = (
"267 681 OFFCURVE",
"288 701 OFFCURVE",
"288 734 CURVE SMOOTH",
"288 769 OFFCURVE",
"267 788 OFFCURVE",
"231 788 CURVE SMOOTH",
"196 788 OFFCURVE",
"175 769 OFFCURVE",
"175 734 CURVE SMOOTH",
"175 701 OFFCURVE",
"196 681 OFFCURVE",
"231 681 CURVE SMOOTH"
);
},
{
closed = 1;
nodes = (
"433 681 OFFCURVE",
"453 701 OFFCURVE",
"453 734 CURVE SMOOTH",
"453 769 OFFCURVE",
"433 788 OFFCURVE",
"397 788 CURVE SMOOTH",
"361 788 OFFCURVE",
"340 769 OFFCURVE",
"340 734 CURVE SMOOTH",
"340 701 OFFCURVE",
"361 681 OFFCURVE",
"397 681 CURVE SMOOTH"
);
},
{
closed = 1;
nodes = (
"361 857 LINE",
"286 991 LINE",
"170 976 LINE",
"289 844 LINE"
);
}
);
width = 626;
}
);
note = Udieresisgrave;
unicode = 01DB;
},
{
glyphname = Udieresismacron;
lastChange = "2015-07-19 04:35:37 +0000";
layers = (
{
layerId = "4CE4ED08-6AC3-4BDD-8925-679D298B3381";
name = Bold;
paths = (
{
closed = 1;
nodes = (
"447 -9 OFFCURVE",
"557 27 OFFCURVE",
"557 131 CURVE SMOOTH",
"557 618 LINE",
"447 618 LINE",
"447 112 LINE",
"416 100 OFFCURVE",
"372 92 OFFCURVE",
"310 92 CURVE SMOOTH",
"216 92 OFFCURVE",
"179 120 OFFCURVE",
"179 214 CURVE SMOOTH",
"179 618 LINE",
"69 618 LINE",
"69 192 LINE SMOOTH",
"69 63 OFFCURVE",
"143 -9 OFFCURVE",
"303 -9 CURVE SMOOTH"
);
},
{
closed = 1;
nodes = (
"268 681 OFFCURVE",
"289 701 OFFCURVE",
"289 734 CURVE SMOOTH",
"289 769 OFFCURVE",
"268 788 OFFCURVE",
"232 788 CURVE SMOOTH",
"197 788 OFFCURVE",
"176 769 OFFCURVE",
"176 734 CURVE SMOOTH",
"176 701 OFFCURVE",
"197 681 OFFCURVE",
"232 681 CURVE SMOOTH"
);
},
{
closed = 1;
nodes = (
"434 681 OFFCURVE",
"454 701 OFFCURVE",
"454 734 CURVE SMOOTH",
"454 769 OFFCURVE",
"434 788 OFFCURVE",
"398 788 CURVE SMOOTH",
"362 788 OFFCURVE",
"341 769 OFFCURVE",
"341 734 CURVE SMOOTH",
"341 701 OFFCURVE",
"362 681 OFFCURVE",
"398 681 CURVE SMOOTH"
);
},
{
closed = 1;
nodes = (
"481 839 LINE",
"481 935 LINE",
"150 935 LINE",
"150 839 LINE"
);
}
);
width = 626;
}
);
note = Udieresismacron;
unicode = 01D5;
},
{
glyphname = Udotbelow;
lastChange = "2015-07-19 04:35:37 +0000";
layers = (
{
layerId = "4CE4ED08-6AC3-4BDD-8925-679D298B3381";
name = Bold;
paths = (
{
closed = 1;
nodes = (
"447 -9 OFFCURVE",
"557 27 OFFCURVE",
"557 131 CURVE SMOOTH",
"557 618 LINE",
"447 618 LINE",
"447 112 LINE",
"416 100 OFFCURVE",
"372 92 OFFCURVE",
"310 92 CURVE SMOOTH",
"216 92 OFFCURVE",
"179 120 OFFCURVE",
"179 214 CURVE SMOOTH",
"179 618 LINE",
"69 618 LINE",
"69 192 LINE SMOOTH",
"69 63 OFFCURVE",
"143 -9 OFFCURVE",
"303 -9 CURVE SMOOTH"
);
},
{
closed = 1;
nodes = (
"365 -184 OFFCURVE",
"391 -160 OFFCURVE",
"391 -120 CURVE SMOOTH",
"391 -78 OFFCURVE",
"365 -54 OFFCURVE",
"322 -54 CURVE SMOOTH",
"279 -54 OFFCURVE",
"254 -78 OFFCURVE",
"254 -120 CURVE SMOOTH",
"254 -160 OFFCURVE",
"279 -184 OFFCURVE",
"322 -184 CURVE SMOOTH"
);
}
);
width = 626;
}
);
note = Udotbelow;
unicode = 1EE4;
},
{
glyphname = Ugrave;
lastChange = "2015-07-19 04:35:37 +0000";
layers = (
{
layerId = "4CE4ED08-6AC3-4BDD-8925-679D298B3381";
name = Bold;
paths = (
{
closed = 1;
nodes = (
"447 -9 OFFCURVE",
"557 27 OFFCURVE",
"557 131 CURVE SMOOTH",
"557 618 LINE",
"447 618 LINE",
"447 112 LINE",
"416 100 OFFCURVE",
"372 92 OFFCURVE",
"310 92 CURVE SMOOTH",
"216 92 OFFCURVE",
"179 120 OFFCURVE",
"179 214 CURVE SMOOTH",
"179 618 LINE",
"69 618 LINE",
"69 192 LINE SMOOTH",
"69 63 OFFCURVE",
"143 -9 OFFCURVE",
"303 -9 CURVE SMOOTH"
);
},
{
closed = 1;
nodes = (
"375 692 LINE",
"291 841 LINE",
"160 827 LINE",
"288 678 LINE"
);
}
);
width = 626;
}
);
note = Ugrave;
unicode = 00D9;
},
{
glyphname = Uhookabove;
lastChange = "2015-07-19 04:35:37 +0000";
layers = (
{
layerId = "4CE4ED08-6AC3-4BDD-8925-679D298B3381";
name = Bold;
paths = (
{
closed = 1;
nodes = (
"447 -9 OFFCURVE",
"557 27 OFFCURVE",
"557 131 CURVE SMOOTH",
"557 618 LINE",
"447 618 LINE",
"447 112 LINE",
"416 100 OFFCURVE",
"372 92 OFFCURVE",
"310 92 CURVE SMOOTH",
"216 92 OFFCURVE",
"179 120 OFFCURVE",
"179 214 CURVE SMOOTH",
"179 618 LINE",
"69 618 LINE",
"69 192 LINE SMOOTH",
"69 63 OFFCURVE",
"143 -9 OFFCURVE",
"303 -9 CURVE SMOOTH"
);
},
{
closed = 1;
nodes = (
"348 680 LINE",
"348 725 LINE",
"405 728 OFFCURVE",
"442 752 OFFCURVE",
"442 807 CURVE SMOOTH",
"442 859 OFFCURVE",
"406 894 OFFCURVE",
"335 894 CURVE SMOOTH",
"301 894 OFFCURVE",
"269 888 OFFCURVE",
"234 874 CURVE",
"256 815 LINE",
"275 821 OFFCURVE",
"298 825 OFFCURVE",
"316 825 CURVE SMOOTH",
"346 825 OFFCURVE",
"357 820 OFFCURVE",
"357 801 CURVE SMOOTH",
"357 777 OFFCURVE",
"328 776 OFFCURVE",
"267 776 CURVE",
"267 733 LINE",
"283 680 LINE"
);
}
);
width = 626;
}
);
note = Uhookabove;
unicode = 1EE6;
},
{
glyphname = Uhorn;
lastChange = "2015-07-19 04:35:37 +0000";
layers = (
{
layerId = "4CE4ED08-6AC3-4BDD-8925-679D298B3381";
name = Bold;
paths = (
{
closed = 1;
nodes = (
"438 -10 OFFCURVE",
"548 25 OFFCURVE",
"548 129 CURVE SMOOTH",
"548 424 LINE",
"676 460 OFFCURVE",
"750 549 OFFCURVE",
"750 698 CURVE",
"644 698 LINE",
"644 611 OFFCURVE",
"614 554 OFFCURVE",
"555 522 CURVE",
"546 522 LINE",
"546 618 LINE",
"438 618 LINE",
"438 111 LINE",
"407 99 OFFCURVE",
"363 91 OFFCURVE",
"301 91 CURVE SMOOTH",
"207 91 OFFCURVE",
"170 119 OFFCURVE",
"170 212 CURVE SMOOTH",
"170 618 LINE",
"60 618 LINE",
"60 190 LINE SMOOTH",
"60 61 OFFCURVE",
"134 -10 OFFCURVE",
"294 -10 CURVE SMOOTH"
);
}
);
width = 731;
}
);
note = Uhorn;
unicode = 01AF;
},
{
glyphname = Uhornacute;
lastChange = "2015-07-19 04:35:37 +0000";
layers = (
{
layerId = "4CE4ED08-6AC3-4BDD-8925-679D298B3381";
name = Bold;
paths = (
{
closed = 1;
nodes = (
"438 -10 OFFCURVE",
"548 25 OFFCURVE",
"548 129 CURVE SMOOTH",
"548 424 LINE",
"676 460 OFFCURVE",
"750 549 OFFCURVE",
"750 698 CURVE",
"644 698 LINE",
"644 611 OFFCURVE",
"614 554 OFFCURVE",
"555 522 CURVE",
"546 522 LINE",
"546 618 LINE",
"438 618 LINE",
"438 111 LINE",
"407 99 OFFCURVE",
"363 91 OFFCURVE",
"301 91 CURVE SMOOTH",
"207 91 OFFCURVE",
"170 119 OFFCURVE",
"170 212 CURVE SMOOTH",
"170 618 LINE",
"60 618 LINE",
"60 190 LINE SMOOTH",
"60 61 OFFCURVE",
"134 -10 OFFCURVE",
"294 -10 CURVE SMOOTH"
);
},
{
closed = 1;
nodes = (
"460 831 LINE",
"335 844 LINE",
"252 691 LINE",
"331 677 LINE"
);
}
);
width = 731;
}
);
note = Uhornacute;
unicode = 1EE8;
},
{
glyphname = Uhorndotbelow;
lastChange = "2015-07-19 04:35:37 +0000";
layers = (
{
layerId = "4CE4ED08-6AC3-4BDD-8925-679D298B3381";
name = Bold;
paths = (
{
closed = 1;
nodes = (
"438 -10 OFFCURVE",
"548 25 OFFCURVE",
"548 129 CURVE SMOOTH",
"548 424 LINE",
"676 460 OFFCURVE",
"750 549 OFFCURVE",
"750 698 CURVE",
"644 698 LINE",
"644 611 OFFCURVE",
"614 554 OFFCURVE",
"555 522 CURVE",
"546 522 LINE",
"546 618 LINE",
"438 618 LINE",
"438 111 LINE",
"407 99 OFFCURVE",
"363 91 OFFCURVE",
"301 91 CURVE SMOOTH",
"207 91 OFFCURVE",
"170 119 OFFCURVE",
"170 212 CURVE SMOOTH",
"170 618 LINE",
"60 618 LINE",
"60 190 LINE SMOOTH",
"60 61 OFFCURVE",
"134 -10 OFFCURVE",
"294 -10 CURVE SMOOTH"
);
},
{
closed = 1;
nodes = (
"355 -183 OFFCURVE",
"381 -159 OFFCURVE",
"381 -120 CURVE SMOOTH",
"381 -77 OFFCURVE",
"355 -53 OFFCURVE",
"312 -53 CURVE SMOOTH",
"269 -53 OFFCURVE",
"244 -77 OFFCURVE",
"244 -120 CURVE SMOOTH",
"244 -159 OFFCURVE",
"269 -183 OFFCURVE",
"312 -183 CURVE SMOOTH"
);
}
);
width = 731;
}
);
note = Uhorndotbelow;
unicode = 1EF0;
},
{
glyphname = Uhorngrave;
lastChange = "2015-07-19 04:35:37 +0000";
layers = (
{
layerId = "4CE4ED08-6AC3-4BDD-8925-679D298B3381";
name = Bold;
paths = (
{
closed = 1;
nodes = (
"438 -10 OFFCURVE",
"548 25 OFFCURVE",
"548 129 CURVE SMOOTH",
"548 424 LINE",
"676 460 OFFCURVE",
"750 549 OFFCURVE",
"750 698 CURVE",
"644 698 LINE",
"644 611 OFFCURVE",
"614 554 OFFCURVE",
"555 522 CURVE",
"546 522 LINE",
"546 618 LINE",
"438 618 LINE",
"438 111 LINE",
"407 99 OFFCURVE",
"363 91 OFFCURVE",
"301 91 CURVE SMOOTH",
"207 91 OFFCURVE",
"170 119 OFFCURVE",
"170 212 CURVE SMOOTH",
"170 618 LINE",
"60 618 LINE",
"60 190 LINE SMOOTH",
"60 61 OFFCURVE",
"134 -10 OFFCURVE",
"294 -10 CURVE SMOOTH"
);
},
{
closed = 1;
nodes = (
"372 692 LINE",
"288 841 LINE",
"157 827 LINE",
"285 678 LINE"
);
}
);
width = 731;
}
);
note = Uhorngrave;
unicode = 1EEA;
},
{
glyphname = Uhornhookabove;
lastChange = "2015-07-19 04:35:37 +0000";
layers = (
{
layerId = "4CE4ED08-6AC3-4BDD-8925-679D298B3381";
name = Bold;
paths = (
{
closed = 1;
nodes = (
"438 -10 OFFCURVE",
"548 25 OFFCURVE",
"548 129 CURVE SMOOTH",
"548 424 LINE",
"676 460 OFFCURVE",
"750 549 OFFCURVE",
"750 698 CURVE",
"644 698 LINE",
"644 611 OFFCURVE",
"614 554 OFFCURVE",
"555 522 CURVE",
"546 522 LINE",
"546 618 LINE",
"438 618 LINE",
"438 111 LINE",
"407 99 OFFCURVE",
"363 91 OFFCURVE",
"301 91 CURVE SMOOTH",
"207 91 OFFCURVE",
"170 119 OFFCURVE",
"170 212 CURVE SMOOTH",
"170 618 LINE",
"60 618 LINE",
"60 190 LINE SMOOTH",
"60 61 OFFCURVE",
"134 -10 OFFCURVE",
"294 -10 CURVE SMOOTH"
);
},
{
closed = 1;
nodes = (
"339 688 LINE",
"339 732 LINE",
"396 735 OFFCURVE",
"433 760 OFFCURVE",
"433 814 CURVE SMOOTH",
"433 866 OFFCURVE",
"397 901 OFFCURVE",
"326 901 CURVE SMOOTH",
"292 901 OFFCURVE",
"260 896 OFFCURVE",
"225 881 CURVE",
"247 822 LINE",
"266 829 OFFCURVE",
"289 833 OFFCURVE",
"307 833 CURVE SMOOTH",
"337 833 OFFCURVE",
"348 827 OFFCURVE",
"348 809 CURVE SMOOTH",
"348 784 OFFCURVE",
"319 783 OFFCURVE",
"258 783 CURVE",
"258 740 LINE",
"274 688 LINE"
);
}
);
width = 731;
}
);
note = Uhornhookabove;
unicode = 1EEC;
},
{
glyphname = Uhorntilde;
lastChange = "2015-07-19 04:35:37 +0000";
layers = (
{
layerId = "4CE4ED08-6AC3-4BDD-8925-679D298B3381";
name = Bold;
paths = (
{
closed = 1;
nodes = (
"438 -10 OFFCURVE",
"548 25 OFFCURVE",
"548 129 CURVE SMOOTH",
"548 424 LINE",
"676 460 OFFCURVE",
"750 549 OFFCURVE",
"750 698 CURVE",
"644 698 LINE",
"644 611 OFFCURVE",
"614 554 OFFCURVE",
"555 522 CURVE",
"546 522 LINE",
"546 618 LINE",
"438 618 LINE",
"438 111 LINE",
"407 99 OFFCURVE",
"363 91 OFFCURVE",
"301 91 CURVE SMOOTH",
"207 91 OFFCURVE",
"170 119 OFFCURVE",
"170 212 CURVE SMOOTH",
"170 618 LINE",
"60 618 LINE",
"60 190 LINE SMOOTH",
"60 61 OFFCURVE",
"134 -10 OFFCURVE",
"294 -10 CURVE SMOOTH"
);
},
{
closed = 1;
nodes = (
"227 699 OFFCURVE",
"235 719 OFFCURVE",
"261 719 CURVE SMOOTH",
"296 719 OFFCURVE",
"327 678 OFFCURVE",
"374 678 CURVE SMOOTH",
"436 678 OFFCURVE",
"460 718 OFFCURVE",
"463 790 CURVE",
"394 811 LINE",
"391 784 OFFCURVE",
"384 764 OFFCURVE",
"357 764 CURVE SMOOTH",
"328 764 OFFCURVE",
"292 805 OFFCURVE",
"247 805 CURVE SMOOTH",
"183 805 OFFCURVE",
"159 765 OFFCURVE",
"156 693 CURVE",
"225 672 LINE"
);
}
);
width = 731;
}
);
note = Uhorntilde;
unicode = 1EEE;
},
{
glyphname = Uhungarumlaut;
lastChange = "2015-07-19 04:35:37 +0000";
layers = (
{
layerId = "4CE4ED08-6AC3-4BDD-8925-679D298B3381";
name = Bold;
paths = (
{
closed = 1;
nodes = (
"447 -9 OFFCURVE",
"557 27 OFFCURVE",
"557 131 CURVE SMOOTH",
"557 618 LINE",
"447 618 LINE",
"447 112 LINE",
"416 100 OFFCURVE",
"372 92 OFFCURVE",
"310 92 CURVE SMOOTH",
"216 92 OFFCURVE",
"179 120 OFFCURVE",
"179 214 CURVE SMOOTH",
"179 618 LINE",
"69 618 LINE",
"69 192 LINE SMOOTH",
"69 63 OFFCURVE",
"143 -9 OFFCURVE",
"303 -9 CURVE SMOOTH"
);
},
{
closed = 1;
nodes = (
"274 711 OFFCURVE",
"296 758 OFFCURVE",
"296 801 CURVE SMOOTH",
"296 853 OFFCURVE",
"272 878 OFFCURVE",
"219 878 CURVE SMOOTH",
"198 878 OFFCURVE",
"175 874 OFFCURVE",
"157 867 CURVE",
"157 794 LINE",
"210 794 LINE",
"209 759 OFFCURVE",
"198 728 OFFCURVE",
"178 692 CURVE",
"243 677 LINE"
);
},
{
closed = 1;
nodes = (
"452 711 OFFCURVE",
"474 758 OFFCURVE",
"474 801 CURVE SMOOTH",
"474 853 OFFCURVE",
"451 878 OFFCURVE",
"398 878 CURVE SMOOTH",
"377 878 OFFCURVE",
"353 874 OFFCURVE",
"335 867 CURVE",
"335 794 LINE",
"388 794 LINE",
"387 759 OFFCURVE",
"376 728 OFFCURVE",
"356 692 CURVE",
"421 677 LINE"
);
}
);
width = 626;
}
);
note = Uhungarumlaut;
unicode = 0170;
},
{
glyphname = Umacron;
lastChange = "2015-07-19 04:35:37 +0000";
layers = (
{
layerId = "4CE4ED08-6AC3-4BDD-8925-679D298B3381";
name = Bold;
paths = (
{
closed = 1;
nodes = (
"447 -9 OFFCURVE",
"557 27 OFFCURVE",
"557 131 CURVE SMOOTH",
"557 618 LINE",
"447 618 LINE",
"447 112 LINE",
"416 100 OFFCURVE",
"372 92 OFFCURVE",
"310 92 CURVE SMOOTH",
"216 92 OFFCURVE",
"179 120 OFFCURVE",
"179 214 CURVE SMOOTH",
"179 618 LINE",
"69 618 LINE",
"69 192 LINE SMOOTH",
"69 63 OFFCURVE",
"143 -9 OFFCURVE",
"303 -9 CURVE SMOOTH"
);
},
{
closed = 1;
nodes = (
"458 684 LINE",
"458 770 LINE",
"167 770 LINE",
"167 684 LINE"
);
}
);
width = 626;
}
);
note = Umacron;
unicode = 016A;
},
{
glyphname = Uogonek;
lastChange = "2015-07-19 04:35:36 +0000";
layers = (
{
layerId = "4CE4ED08-6AC3-4BDD-8925-679D298B3381";
name = Bold;
paths = (
{
closed = 1;
nodes = (
"377 -175 OFFCURVE",
"403 -169 OFFCURVE",
"422 -161 CURVE",
"404 -90 LINE",
"390 -94 OFFCURVE",
"378 -95 OFFCURVE",
"365 -95 CURVE SMOOTH",
"351 -95 OFFCURVE",
"339 -94 OFFCURVE",
"329 -91 CURVE",
"327 -85 OFFCURVE",
"326 -79 OFFCURVE",
"326 -71 CURVE SMOOTH",
"326 -45 OFFCURVE",
"336 -27 OFFCURVE",
"372 -5 CURVE",
"481 5 OFFCURVE",
"557 43 OFFCURVE",
"557 131 CURVE SMOOTH",
"557 618 LINE",
"447 618 LINE",
"447 112 LINE",
"416 100 OFFCURVE",
"372 92 OFFCURVE",
"310 92 CURVE SMOOTH",
"216 92 OFFCURVE",
"179 120 OFFCURVE",
"179 214 CURVE SMOOTH",
"179 618 LINE",
"69 618 LINE",
"69 192 LINE SMOOTH",
"69 69 OFFCURVE",
"136 -1 OFFCURVE",
"278 -8 CURVE",
"247 -28 OFFCURVE",
"230 -54 OFFCURVE",
"230 -91 CURVE SMOOTH",
"230 -145 OFFCURVE",
"270 -175 OFFCURVE",
"346 -175 CURVE SMOOTH"
);
}
);
width = 626;
}
);
note = Uogonek;
unicode = 0172;
},
{
glyphname = Uring;
lastChange = "2015-07-19 04:35:37 +0000";
layers = (
{
layerId = "4CE4ED08-6AC3-4BDD-8925-679D298B3381";
name = Bold;
paths = (
{
closed = 1;
nodes = (
"447 -9 OFFCURVE",
"557 27 OFFCURVE",
"557 131 CURVE SMOOTH",
"557 618 LINE",
"447 618 LINE",
"447 112 LINE",
"416 100 OFFCURVE",
"372 92 OFFCURVE",
"310 92 CURVE SMOOTH",
"216 92 OFFCURVE",
"179 120 OFFCURVE",
"179 214 CURVE SMOOTH",
"179 618 LINE",
"69 618 LINE",
"69 192 LINE SMOOTH",
"69 63 OFFCURVE",
"143 -9 OFFCURVE",
"303 -9 CURVE SMOOTH"
);
},
{
closed = 1;
nodes = (
"391 674 OFFCURVE",
"441 716 OFFCURVE",
"441 775 CURVE SMOOTH",
"441 836 OFFCURVE",
"399 877 OFFCURVE",
"326 877 CURVE SMOOTH",
"234 877 OFFCURVE",
"191 827 OFFCURVE",
"191 772 CURVE SMOOTH",
"191 712 OFFCURVE",
"232 674 OFFCURVE",
"306 674 CURVE SMOOTH"
);
},
{
closed = 1;
nodes = (
"284 737 OFFCURVE",
"267 753 OFFCURVE",
"267 775 CURVE SMOOTH",
"267 787 OFFCURVE",
"268 798 OFFCURVE",
"272 810 CURVE",
"285 814 OFFCURVE",
"300 815 OFFCURVE",
"320 815 CURVE SMOOTH",
"351 815 OFFCURVE",
"366 795 OFFCURVE",
"366 771 CURVE SMOOTH",
"366 760 OFFCURVE",
"364 750 OFFCURVE",
"362 742 CURVE",
"349 738 OFFCURVE",
"333 737 OFFCURVE",
"313 737 CURVE SMOOTH"
);
}
);
width = 626;
}
);
note = Uring;
unicode = 016E;
},
{
glyphname = Utilde;
lastChange = "2015-07-19 04:35:37 +0000";
layers = (
{
layerId = "4CE4ED08-6AC3-4BDD-8925-679D298B3381";
name = Bold;
paths = (
{
closed = 1;
nodes = (
"447 -9 OFFCURVE",
"557 27 OFFCURVE",
"557 131 CURVE SMOOTH",
"557 618 LINE",
"447 618 LINE",
"447 112 LINE",
"416 100 OFFCURVE",
"372 92 OFFCURVE",
"310 92 CURVE SMOOTH",
"216 92 OFFCURVE",
"179 120 OFFCURVE",
"179 214 CURVE SMOOTH",
"179 618 LINE",
"69 618 LINE",
"69 192 LINE SMOOTH",
"69 63 OFFCURVE",
"143 -9 OFFCURVE",
"303 -9 CURVE SMOOTH"
);
},
{
closed = 1;
nodes = (
"234 702 OFFCURVE",
"242 722 OFFCURVE",
"268 722 CURVE SMOOTH",
"303 722 OFFCURVE",
"334 681 OFFCURVE",
"381 681 CURVE SMOOTH",
"443 681 OFFCURVE",
"467 721 OFFCURVE",
"470 793 CURVE",
"401 814 LINE",
"398 787 OFFCURVE",
"391 767 OFFCURVE",
"364 767 CURVE SMOOTH",
"335 767 OFFCURVE",
"299 808 OFFCURVE",
"254 808 CURVE SMOOTH",
"190 808 OFFCURVE",
"166 768 OFFCURVE",
"163 696 CURVE",
"232 675 LINE"
);
}
);
width = 626;
}
);
note = Utilde;
unicode = 0168;
},
{
glyphname = V;
lastChange = "2015-07-19 08:46:25 +0000";
layers = (
{
layerId = "4CE4ED08-6AC3-4BDD-8925-679D298B3381";
name = Bold;
paths = (
{
closed = 1;
nodes = (
"377 0 LINE",
"454 172 OFFCURVE",
"532 420 OFFCURVE",
"581 619 CURVE",
"467 626 LINE",
"426 447 OFFCURVE",
"360 229 OFFCURVE",
"310 105 CURVE",
"300 105 LINE",
"251 229 OFFCURVE",
"185 447 OFFCURVE",
"144 626 CURVE",
"30 619 LINE",
"79 420 OFFCURVE",
"158 172 OFFCURVE",
"235 0 CURVE"
);
}
);
width = 611;
}
);
note = V;
unicode = 0056;
},
{
glyphname = W;
lastChange = "2015-07-19 09:06:40 +0000";
layers = (
{
layerId = "4CE4ED08-6AC3-4BDD-8925-679D298B3381";
name = Bold;
paths = (
{
closed = 1;
nodes = (
"304 0 LINE",
"344 107 OFFCURVE",
"378 213 OFFCURVE",
"416 330 CURVE",
"429 330 LINE",
"463 212 OFFCURVE",
"501 99 OFFCURVE",
"535 0 CURVE",
"660 0 LINE",
"717 188 OFFCURVE",
"770 384 OFFCURVE",
"817 608 CURVE",
"705 620 LINE",
"670 407 OFFCURVE",
"639 265 OFFCURVE",
"606 125 CURVE",
"595 125 LINE",
"551 275 OFFCURVE",
"512 407 OFFCURVE",
"469 614 CURVE",
"359 604 LINE",
"365 569 OFFCURVE",
"374 533 OFFCURVE",
"382 498 CURVE",
"333 348 OFFCURVE",
"289 214 OFFCURVE",
"258 125 CURVE",
"250 125 LINE",
"216 265 OFFCURVE",
"184 407 OFFCURVE",
"148 620 CURVE",
"32 609 LINE",
"80 385 OFFCURVE",
"132 189 OFFCURVE",
"189 0 CURVE"
);
}
);
width = 850;
}
);
leftKerningGroup = W;
note = W;
rightKerningGroup = W;
unicode = 0057;
},
{
glyphname = Wacute;
lastChange = "2015-07-19 07:30:47 +0000";
layers = (
{
layerId = "4CE4ED08-6AC3-4BDD-8925-679D298B3381";
name = Bold;
paths = (
{
closed = 1;
nodes = (
"304 0 LINE",
"344 107 OFFCURVE",
"378 213 OFFCURVE",
"416 330 CURVE",
"429 330 LINE",
"463 212 OFFCURVE",
"501 99 OFFCURVE",
"535 0 CURVE",
"660 0 LINE",
"717 188 OFFCURVE",
"770 384 OFFCURVE",
"817 608 CURVE",
"705 620 LINE",
"670 407 OFFCURVE",
"639 265 OFFCURVE",
"606 125 CURVE",
"595 125 LINE",
"551 275 OFFCURVE",
"512 407 OFFCURVE",
"469 614 CURVE",
"359 604 LINE",
"365 569 OFFCURVE",
"374 533 OFFCURVE",
"382 498 CURVE",
"333 348 OFFCURVE",
"289 214 OFFCURVE",
"258 125 CURVE",
"250 125 LINE",
"216 265 OFFCURVE",
"184 407 OFFCURVE",
"148 620 CURVE",
"32 609 LINE",
"80 385 OFFCURVE",
"132 189 OFFCURVE",
"189 0 CURVE"
);
},
{
closed = 1;
nodes = (
"571 832 LINE",
"446 844 LINE",
"363 692 LINE",
"442 678 LINE"
);
}
);
width = 850;
}
);
leftKerningGroup = W;
note = Wacute;
rightKerningGroup = W;
unicode = 1E82;
},
{
glyphname = Wcircumflex;
lastChange = "2015-07-19 07:30:47 +0000";
layers = (
{
layerId = "4CE4ED08-6AC3-4BDD-8925-679D298B3381";
name = Bold;
paths = (
{
closed = 1;
nodes = (
"304 0 LINE",
"344 107 OFFCURVE",
"378 213 OFFCURVE",
"416 330 CURVE",
"429 330 LINE",
"463 212 OFFCURVE",
"501 99 OFFCURVE",
"535 0 CURVE",
"660 0 LINE",
"717 188 OFFCURVE",
"770 384 OFFCURVE",
"817 608 CURVE",
"705 620 LINE",
"670 407 OFFCURVE",
"639 265 OFFCURVE",
"606 125 CURVE",
"595 125 LINE",
"551 275 OFFCURVE",
"512 407 OFFCURVE",
"469 614 CURVE",
"359 604 LINE",
"365 569 OFFCURVE",
"374 533 OFFCURVE",
"382 498 CURVE",
"333 348 OFFCURVE",
"289 214 OFFCURVE",
"258 125 CURVE",
"250 125 LINE",
"216 265 OFFCURVE",
"184 407 OFFCURVE",
"148 620 CURVE",
"32 609 LINE",
"80 385 OFFCURVE",
"132 189 OFFCURVE",
"189 0 CURVE"
);
},
{
closed = 1;
nodes = (
"422 746 LINE",
"428 746 LINE",
"505 677 LINE",
"569 689 LINE",
"472 826 LINE",
"378 826 LINE",
"280 689 LINE",
"343 677 LINE"
);
}
);
width = 850;
}
);
leftKerningGroup = W;
note = Wcircumflex;
rightKerningGroup = W;
unicode = 0174;
},
{
glyphname = Wdieresis;
lastChange = "2015-07-19 07:30:47 +0000";
layers = (
{
layerId = "4CE4ED08-6AC3-4BDD-8925-679D298B3381";
name = Bold;
paths = (
{
closed = 1;
nodes = (
"304 0 LINE",
"344 107 OFFCURVE",
"378 213 OFFCURVE",
"416 330 CURVE",
"429 330 LINE",
"463 212 OFFCURVE",
"501 99 OFFCURVE",
"535 0 CURVE",
"660 0 LINE",
"717 188 OFFCURVE",
"770 384 OFFCURVE",
"817 608 CURVE",
"705 620 LINE",
"670 407 OFFCURVE",
"639 265 OFFCURVE",
"606 125 CURVE",
"595 125 LINE",
"551 275 OFFCURVE",
"512 407 OFFCURVE",
"469 614 CURVE",
"359 604 LINE",
"365 569 OFFCURVE",
"374 533 OFFCURVE",
"382 498 CURVE",
"333 348 OFFCURVE",
"289 214 OFFCURVE",
"258 125 CURVE",
"250 125 LINE",
"216 265 OFFCURVE",
"184 407 OFFCURVE",
"148 620 CURVE",
"32 609 LINE",
"80 385 OFFCURVE",
"132 189 OFFCURVE",
"189 0 CURVE"
);
},
{
closed = 1;
nodes = (
"377 681 OFFCURVE",
"398 701 OFFCURVE",
"398 734 CURVE SMOOTH",
"398 769 OFFCURVE",
"377 788 OFFCURVE",
"341 788 CURVE SMOOTH",
"306 788 OFFCURVE",
"285 769 OFFCURVE",
"285 734 CURVE SMOOTH",
"285 701 OFFCURVE",
"306 681 OFFCURVE",
"341 681 CURVE SMOOTH"
);
},
{
closed = 1;
nodes = (
"543 681 OFFCURVE",
"563 701 OFFCURVE",
"563 734 CURVE SMOOTH",
"563 769 OFFCURVE",
"543 788 OFFCURVE",
"507 788 CURVE SMOOTH",
"471 788 OFFCURVE",
"450 769 OFFCURVE",
"450 734 CURVE SMOOTH",
"450 701 OFFCURVE",
"471 681 OFFCURVE",
"507 681 CURVE SMOOTH"
);
}
);
width = 850;
}
);
leftKerningGroup = W;
note = Wdieresis;
rightKerningGroup = W;
unicode = 1E84;
},
{
glyphname = Wgrave;
lastChange = "2015-07-19 07:30:47 +0000";
layers = (
{
layerId = "4CE4ED08-6AC3-4BDD-8925-679D298B3381";
name = Bold;
paths = (
{
closed = 1;
nodes = (
"304 0 LINE",
"344 107 OFFCURVE",
"378 213 OFFCURVE",
"416 330 CURVE",
"429 330 LINE",
"463 212 OFFCURVE",
"501 99 OFFCURVE",
"535 0 CURVE",
"660 0 LINE",
"717 188 OFFCURVE",
"770 384 OFFCURVE",
"817 608 CURVE",
"705 620 LINE",
"670 407 OFFCURVE",
"639 265 OFFCURVE",
"606 125 CURVE",
"595 125 LINE",
"551 275 OFFCURVE",
"512 407 OFFCURVE",
"469 614 CURVE",
"359 604 LINE",
"365 569 OFFCURVE",
"374 533 OFFCURVE",
"382 498 CURVE",
"333 348 OFFCURVE",
"289 214 OFFCURVE",
"258 125 CURVE",
"250 125 LINE",
"216 265 OFFCURVE",
"184 407 OFFCURVE",
"148 620 CURVE",
"32 609 LINE",
"80 385 OFFCURVE",
"132 189 OFFCURVE",
"189 0 CURVE"
);
},
{
closed = 1;
nodes = (
"488 718 LINE",
"404 866 LINE",
"273 852 LINE",
"401 704 LINE"
);
}
);
width = 850;
}
);
leftKerningGroup = W;
note = Wgrave;
rightKerningGroup = W;
unicode = 1E80;
},
{
glyphname = X;
lastChange = "2015-07-19 04:35:36 +0000";
layers = (
{
layerId = "4CE4ED08-6AC3-4BDD-8925-679D298B3381";
name = Bold;
paths = (
{
closed = 1;
nodes = (
"198 94 OFFCURVE",
"249 171 OFFCURVE",
"307 258 CURVE",
"324 258 LINE",
"376 176 OFFCURVE",
"427 93 OFFCURVE",
"474 -8 CURVE",
"588 15 LINE",
"540 113 OFFCURVE",
"467 226 OFFCURVE",
"406 310 CURVE",
"474 397 OFFCURVE",
"544 499 OFFCURVE",
"595 600 CURVE",
"484 621 LINE",
"434 518 OFFCURVE",
"385 441 OFFCURVE",
"324 357 CURVE",
"307 357 LINE",
"254 439 OFFCURVE",
"205 520 OFFCURVE",
"157 621 CURVE",
"40 599 LINE",
"90 501 OFFCURVE",
"165 387 OFFCURVE",
"226 304 CURVE",
"160 218 OFFCURVE",
"89 114 OFFCURVE",
"38 15 CURVE",
"150 -8 LINE"
);
}
);
width = 634;
}
);
note = X;
unicode = 0058;
},
{
glyphname = Y;
lastChange = "2015-07-19 09:40:09 +0000";
layers = (
{
layerId = "4CE4ED08-6AC3-4BDD-8925-679D298B3381";
name = Bold;
paths = (
{
closed = 1;
nodes = (
"370 0 LINE",
"370 201 LINE",
"392 201 LINE",
"483 328 OFFCURVE",
"544 445 OFFCURVE",
"606 598 CURVE",
"497 623 LINE",
"445 490 OFFCURVE",
"386 375 OFFCURVE",
"329 288 CURVE",
"301 288 LINE",
"243 375 OFFCURVE",
"185 490 OFFCURVE",
"133 623 CURVE",
"24 598 LINE",
"86 445 OFFCURVE",
"147 328 OFFCURVE",
"238 201 CURVE",
"260 201 LINE",
"260 0 LINE"
);
}
);
width = 630;
}
);
leftKerningGroup = Y;
note = Y;
rightKerningGroup = Y;
unicode = 0059;
},
{
glyphname = Yacute;
lastChange = "2015-07-19 09:30:49 +0000";
layers = (
{
layerId = "4CE4ED08-6AC3-4BDD-8925-679D298B3381";
name = Bold;
paths = (
{
closed = 1;
nodes = (
"370 0 LINE",
"370 201 LINE",
"392 201 LINE",
"483 328 OFFCURVE",
"544 445 OFFCURVE",
"606 598 CURVE",
"497 623 LINE",
"445 490 OFFCURVE",
"386 375 OFFCURVE",
"329 288 CURVE",
"301 288 LINE",
"243 375 OFFCURVE",
"185 490 OFFCURVE",
"133 623 CURVE",
"24 598 LINE",
"86 445 OFFCURVE",
"147 328 OFFCURVE",
"238 201 CURVE",
"260 201 LINE",
"260 0 LINE"
);
},
{
closed = 1;
nodes = (
"469 831 LINE",
"344 844 LINE",
"261 691 LINE",
"340 677 LINE"
);
}
);
width = 630;
}
);
leftKerningGroup = Y;
note = Yacute;
rightKerningGroup = Y;
unicode = 00DD;
},
{
glyphname = Ycircumflex;
lastChange = "2015-07-19 09:30:49 +0000";
layers = (
{
layerId = "4CE4ED08-6AC3-4BDD-8925-679D298B3381";
name = Bold;
paths = (
{
closed = 1;
nodes = (
"370 0 LINE",
"370 201 LINE",
"392 201 LINE",
"483 328 OFFCURVE",
"544 445 OFFCURVE",
"606 598 CURVE",
"497 623 LINE",
"445 490 OFFCURVE",
"386 375 OFFCURVE",
"329 288 CURVE",
"301 288 LINE",
"243 375 OFFCURVE",
"185 490 OFFCURVE",
"133 623 CURVE",
"24 598 LINE",
"86 445 OFFCURVE",
"147 328 OFFCURVE",
"238 201 CURVE",
"260 201 LINE",
"260 0 LINE"
);
},
{
closed = 1;
nodes = (
"312 746 LINE",
"318 746 LINE",
"395 677 LINE",
"459 689 LINE",
"362 826 LINE",
"268 826 LINE",
"170 689 LINE",
"233 677 LINE"
);
}
);
width = 630;
}
);
leftKerningGroup = Y;
note = Ycircumflex;
rightKerningGroup = Y;
unicode = 0176;
},
{
glyphname = Ydieresis;
lastChange = "2015-07-19 09:30:49 +0000";
layers = (
{
layerId = "4CE4ED08-6AC3-4BDD-8925-679D298B3381";
name = Bold;
paths = (
{
closed = 1;
nodes = (
"370 0 LINE",
"370 201 LINE",
"392 201 LINE",
"483 328 OFFCURVE",
"544 445 OFFCURVE",
"606 598 CURVE",
"497 623 LINE",
"445 490 OFFCURVE",
"386 375 OFFCURVE",
"329 288 CURVE",
"301 288 LINE",
"243 375 OFFCURVE",
"185 490 OFFCURVE",
"133 623 CURVE",
"24 598 LINE",
"86 445 OFFCURVE",
"147 328 OFFCURVE",
"238 201 CURVE",
"260 201 LINE",
"260 0 LINE"
);
},
{
closed = 1;
nodes = (
"267 681 OFFCURVE",
"288 701 OFFCURVE",
"288 734 CURVE SMOOTH",
"288 769 OFFCURVE",
"267 788 OFFCURVE",
"231 788 CURVE SMOOTH",
"196 788 OFFCURVE",
"175 769 OFFCURVE",
"175 734 CURVE SMOOTH",
"175 701 OFFCURVE",
"196 681 OFFCURVE",
"231 681 CURVE SMOOTH"
);
},
{
closed = 1;
nodes = (
"434 681 OFFCURVE",
"454 701 OFFCURVE",
"454 734 CURVE SMOOTH",
"454 769 OFFCURVE",
"434 788 OFFCURVE",
"398 788 CURVE SMOOTH",
"362 788 OFFCURVE",
"341 769 OFFCURVE",
"341 734 CURVE SMOOTH",
"341 701 OFFCURVE",
"362 681 OFFCURVE",
"398 681 CURVE SMOOTH"
);
}
);
width = 630;
}
);
leftKerningGroup = Y;
note = Ydieresis;
rightKerningGroup = Y;
unicode = 0178;
},
{
glyphname = Ydotaccent;
lastChange = "2015-07-19 09:30:49 +0000";
layers = (
{
layerId = "4CE4ED08-6AC3-4BDD-8925-679D298B3381";
name = Bold;
paths = (
{
closed = 1;
nodes = (
"370 0 LINE",
"370 201 LINE",
"392 201 LINE",
"483 328 OFFCURVE",
"544 445 OFFCURVE",
"606 598 CURVE",
"497 623 LINE",
"445 490 OFFCURVE",
"386 375 OFFCURVE",
"329 288 CURVE",
"301 288 LINE",
"243 375 OFFCURVE",
"185 490 OFFCURVE",
"133 623 CURVE",
"24 598 LINE",
"86 445 OFFCURVE",
"147 328 OFFCURVE",
"238 201 CURVE",
"260 201 LINE",
"260 0 LINE"
);
},
{
closed = 1;
nodes = (
"359 681 OFFCURVE",
"385 705 OFFCURVE",
"385 745 CURVE SMOOTH",
"385 787 OFFCURVE",
"359 811 OFFCURVE",
"316 811 CURVE SMOOTH",
"273 811 OFFCURVE",
"248 787 OFFCURVE",
"248 745 CURVE SMOOTH",
"248 705 OFFCURVE",
"273 681 OFFCURVE",
"316 681 CURVE SMOOTH"
);
}
);
width = 630;
}
);
leftKerningGroup = Y;
note = Ydotaccent;
rightKerningGroup = Y;
unicode = 1E8E;
},
{
glyphname = Ydotbelow;
lastChange = "2015-07-19 09:30:49 +0000";
layers = (
{
layerId = "4CE4ED08-6AC3-4BDD-8925-679D298B3381";
name = Bold;
paths = (
{
closed = 1;
nodes = (
"370 0 LINE",
"370 201 LINE",
"392 201 LINE",
"483 328 OFFCURVE",
"544 445 OFFCURVE",
"606 598 CURVE",
"497 623 LINE",
"445 490 OFFCURVE",
"386 375 OFFCURVE",
"329 288 CURVE",
"301 288 LINE",
"243 375 OFFCURVE",
"185 490 OFFCURVE",
"133 623 CURVE",
"24 598 LINE",
"86 445 OFFCURVE",
"147 328 OFFCURVE",
"238 201 CURVE",
"260 201 LINE",
"260 0 LINE"
);
},
{
closed = 1;
nodes = (
"358 -183 OFFCURVE",
"384 -159 OFFCURVE",
"384 -120 CURVE SMOOTH",
"384 -77 OFFCURVE",
"358 -53 OFFCURVE",
"315 -53 CURVE SMOOTH",
"272 -53 OFFCURVE",
"247 -77 OFFCURVE",
"247 -120 CURVE SMOOTH",
"247 -159 OFFCURVE",
"272 -183 OFFCURVE",
"315 -183 CURVE SMOOTH"
);
}
);
width = 630;
}
);
leftKerningGroup = Y;
note = Ydotbelow;
rightKerningGroup = Y;
unicode = 1EF4;
},
{
glyphname = Ygrave;
lastChange = "2015-07-19 09:33:54 +0000";
layers = (
{
layerId = "4CE4ED08-6AC3-4BDD-8925-679D298B3381";
name = Bold;
paths = (
{
closed = 1;
nodes = (
"370 0 LINE",
"370 201 LINE",
"392 201 LINE",
"483 328 OFFCURVE",
"544 445 OFFCURVE",
"606 598 CURVE",
"497 623 LINE",
"445 490 OFFCURVE",
"386 375 OFFCURVE",
"329 288 CURVE",
"301 288 LINE",
"243 375 OFFCURVE",
"185 490 OFFCURVE",
"133 623 CURVE",
"24 598 LINE",
"86 445 OFFCURVE",
"147 328 OFFCURVE",
"238 201 CURVE",
"260 201 LINE",
"260 0 LINE"
);
},
{
closed = 1;
nodes = (
"378 692 LINE",
"294 841 LINE",
"163 827 LINE",
"291 678 LINE"
);
}
);
width = 630;
}
);
leftKerningGroup = Y;
note = Ygrave;
rightKerningGroup = Y;
unicode = 1EF2;
},
{
glyphname = Yhookabove;
lastChange = "2015-07-19 09:30:49 +0000";
layers = (
{
layerId = "4CE4ED08-6AC3-4BDD-8925-679D298B3381";
name = Bold;
paths = (
{
closed = 1;
nodes = (
"370 0 LINE",
"370 201 LINE",
"392 201 LINE",
"483 328 OFFCURVE",
"544 445 OFFCURVE",
"606 598 CURVE",
"497 623 LINE",
"445 490 OFFCURVE",
"386 375 OFFCURVE",
"329 288 CURVE",
"301 288 LINE",
"243 375 OFFCURVE",
"185 490 OFFCURVE",
"133 623 CURVE",
"24 598 LINE",
"86 445 OFFCURVE",
"147 328 OFFCURVE",
"238 201 CURVE",
"260 201 LINE",
"260 0 LINE"
);
},
{
closed = 1;
nodes = (
"345 684 LINE",
"345 729 LINE",
"402 732 OFFCURVE",
"439 756 OFFCURVE",
"439 811 CURVE SMOOTH",
"439 862 OFFCURVE",
"403 898 OFFCURVE",
"332 898 CURVE SMOOTH",
"298 898 OFFCURVE",
"266 892 OFFCURVE",
"231 877 CURVE",
"253 819 LINE",
"272 825 OFFCURVE",
"295 829 OFFCURVE",
"313 829 CURVE SMOOTH",
"343 829 OFFCURVE",
"354 824 OFFCURVE",
"354 805 CURVE SMOOTH",
"354 781 OFFCURVE",
"325 780 OFFCURVE",
"264 780 CURVE",
"264 737 LINE",
"280 684 LINE"
);
}
);
width = 630;
}
);
leftKerningGroup = Y;
note = Yhookabove;
rightKerningGroup = Y;
unicode = 1EF6;
},
{
glyphname = Ytilde;
lastChange = "2015-07-19 09:30:49 +0000";
layers = (
{
layerId = "4CE4ED08-6AC3-4BDD-8925-679D298B3381";
name = Bold;
paths = (
{
closed = 1;
nodes = (
"370 0 LINE",
"370 201 LINE",
"392 201 LINE",
"483 328 OFFCURVE",
"544 445 OFFCURVE",
"606 598 CURVE",
"497 623 LINE",
"445 490 OFFCURVE",
"386 375 OFFCURVE",
"329 288 CURVE",
"301 288 LINE",
"243 375 OFFCURVE",
"185 490 OFFCURVE",
"133 623 CURVE",
"24 598 LINE",
"86 445 OFFCURVE",
"147 328 OFFCURVE",
"238 201 CURVE",
"260 201 LINE",
"260 0 LINE"
);
},
{
closed = 1;
nodes = (
"232 699 OFFCURVE",
"240 719 OFFCURVE",
"266 719 CURVE SMOOTH",
"301 719 OFFCURVE",
"332 678 OFFCURVE",
"379 678 CURVE SMOOTH",
"441 678 OFFCURVE",
"465 718 OFFCURVE",
"468 790 CURVE",
"399 811 LINE",
"396 784 OFFCURVE",
"389 764 OFFCURVE",
"362 764 CURVE SMOOTH",
"333 764 OFFCURVE",
"297 805 OFFCURVE",
"252 805 CURVE SMOOTH",
"188 805 OFFCURVE",
"164 765 OFFCURVE",
"161 693 CURVE",
"230 672 LINE"
);
}
);
width = 630;
}
);
leftKerningGroup = Y;
note = Ytilde;
rightKerningGroup = Y;
unicode = 1EF8;
},
{
glyphname = Z;
lastChange = "2015-07-19 04:35:36 +0000";
layers = (
{
layerId = "4CE4ED08-6AC3-4BDD-8925-679D298B3381";
name = Bold;
paths = (
{
closed = 1;
nodes = (
"533 0 LINE",
"533 49 LINE SMOOTH",
"533 91 OFFCURVE",
"526 135 OFFCURVE",
"516 167 CURVE",
"424 167 LINE",
"424 97 LINE",
"176 97 LINE",
"176 111 LINE",
"520 505 LINE",
"520 618 LINE",
"56 618 LINE",
"56 569 LINE SMOOTH",
"56 526 OFFCURVE",
"63 483 OFFCURVE",
"73 451 CURVE",
"165 451 LINE",
"165 519 LINE",
"394 519 LINE",
"394 507 LINE",
"46 107 LINE",
"46 0 LINE"
);
}
);
width = 578;
}
);
note = Z;
unicode = 005A;
},
{
glyphname = Zacute;
lastChange = "2015-07-19 06:46:31 +0000";
layers = (
{
layerId = "4CE4ED08-6AC3-4BDD-8925-679D298B3381";
name = Bold;
paths = (
{
closed = 1;
nodes = (
"533 0 LINE",
"533 49 LINE SMOOTH",
"533 91 OFFCURVE",
"526 135 OFFCURVE",
"516 167 CURVE",
"424 167 LINE",
"424 97 LINE",
"176 97 LINE",
"176 111 LINE",
"520 505 LINE",
"520 618 LINE",
"56 618 LINE",
"56 569 LINE SMOOTH",
"56 526 OFFCURVE",
"63 483 OFFCURVE",
"73 451 CURVE",
"165 451 LINE",
"165 519 LINE",
"394 519 LINE",
"394 507 LINE",
"46 107 LINE",
"46 0 LINE"
);
},
{
closed = 1;
nodes = (
"434 831 LINE",
"309 844 LINE",
"226 691 LINE",
"305 677 LINE"
);
}
);
width = 578;
}
);
note = Zacute;
unicode = 0179;
},
{
glyphname = Zcaron;
lastChange = "2015-07-19 06:46:31 +0000";
layers = (
{
layerId = "4CE4ED08-6AC3-4BDD-8925-679D298B3381";
name = Bold;
paths = (
{
closed = 1;
nodes = (
"533 0 LINE",
"533 49 LINE SMOOTH",
"533 91 OFFCURVE",
"526 135 OFFCURVE",
"516 167 CURVE",
"424 167 LINE",
"424 97 LINE",
"176 97 LINE",
"176 111 LINE",
"520 505 LINE",
"520 618 LINE",
"56 618 LINE",
"56 569 LINE SMOOTH",
"56 526 OFFCURVE",
"63 483 OFFCURVE",
"73 451 CURVE",
"165 451 LINE",
"165 519 LINE",
"394 519 LINE",
"394 507 LINE",
"46 107 LINE",
"46 0 LINE"
);
},
{
closed = 1;
nodes = (
"336 684 LINE",
"433 821 LINE",
"369 833 LINE",
"292 764 LINE",
"286 764 LINE",
"207 833 LINE",
"144 821 LINE",
"242 684 LINE"
);
}
);
width = 578;
}
);
note = Zcaron;
unicode = 017D;
},
{
glyphname = Zdotaccent;
lastChange = "2015-07-19 06:46:31 +0000";
layers = (
{
layerId = "4CE4ED08-6AC3-4BDD-8925-679D298B3381";
name = Bold;
paths = (
{
closed = 1;
nodes = (
"533 0 LINE",
"533 49 LINE SMOOTH",
"533 91 OFFCURVE",
"526 135 OFFCURVE",
"516 167 CURVE",
"424 167 LINE",
"424 97 LINE",
"176 97 LINE",
"176 111 LINE",
"520 505 LINE",
"520 618 LINE",
"56 618 LINE",
"56 569 LINE SMOOTH",
"56 526 OFFCURVE",
"63 483 OFFCURVE",
"73 451 CURVE",
"165 451 LINE",
"165 519 LINE",
"394 519 LINE",
"394 507 LINE",
"46 107 LINE",
"46 0 LINE"
);
},
{
closed = 1;
nodes = (
"339 681 OFFCURVE",
"365 705 OFFCURVE",
"365 745 CURVE SMOOTH",
"365 787 OFFCURVE",
"339 811 OFFCURVE",
"296 811 CURVE SMOOTH",
"253 811 OFFCURVE",
"228 787 OFFCURVE",
"228 745 CURVE SMOOTH",
"228 705 OFFCURVE",
"253 681 OFFCURVE",
"296 681 CURVE SMOOTH"
);
}
);
width = 578;
}
);
note = Zdotaccent;
unicode = 017B;
},
{
glyphname = Zdotbelow;
lastChange = "2015-07-19 06:46:31 +0000";
layers = (
{
layerId = "4CE4ED08-6AC3-4BDD-8925-679D298B3381";
name = Bold;
paths = (
{
closed = 1;
nodes = (
"533 0 LINE",
"533 49 LINE SMOOTH",
"533 91 OFFCURVE",
"526 135 OFFCURVE",
"516 167 CURVE",
"424 167 LINE",
"424 97 LINE",
"176 97 LINE",
"176 111 LINE",
"520 505 LINE",
"520 618 LINE",
"56 618 LINE",
"56 569 LINE SMOOTH",
"56 526 OFFCURVE",
"63 483 OFFCURVE",
"73 451 CURVE",
"165 451 LINE",
"165 519 LINE",
"394 519 LINE",
"394 507 LINE",
"46 107 LINE",
"46 0 LINE"
);
},
{
closed = 1;
nodes = (
"337 -183 OFFCURVE",
"363 -159 OFFCURVE",
"363 -120 CURVE SMOOTH",
"363 -77 OFFCURVE",
"337 -53 OFFCURVE",
"294 -53 CURVE SMOOTH",
"251 -53 OFFCURVE",
"226 -77 OFFCURVE",
"226 -120 CURVE SMOOTH",
"226 -159 OFFCURVE",
"251 -183 OFFCURVE",
"294 -183 CURVE SMOOTH"
);
}
);
width = 578;
}
);
note = Zdotbelow;
unicode = 1E92;
},
{
glyphname = a;
lastChange = "2015-07-19 07:36:30 +0000";
layers = (
{
layerId = "4CE4ED08-6AC3-4BDD-8925-679D298B3381";
name = Bold;
paths = (
{
closed = 1;
nodes = (
"239 -8 OFFCURVE",
"287 19 OFFCURVE",
"321 66 CURVE",
"329 66 LINE",
"335 0 LINE",
"428 0 LINE",
"428 331 LINE SMOOTH",
"428 426 OFFCURVE",
"367 478 OFFCURVE",
"259 478 CURVE SMOOTH",
"184 478 OFFCURVE",
"114 453 OFFCURVE",
"71 428 CURVE",
"71 403 LINE SMOOTH",
"71 377 OFFCURVE",
"76 350 OFFCURVE",
"84 327 CURVE",
"169 327 LINE",
"179 392 LINE",
"195 394 OFFCURVE",
"215 396 OFFCURVE",
"238 396 CURVE SMOOTH",
"297 396 OFFCURVE",
"320 381 OFFCURVE",
"320 322 CURVE SMOOTH",
"320 267 LINE",
"298 269 OFFCURVE",
"280 270 OFFCURVE",
"259 270 CURVE SMOOTH",
"127 270 OFFCURVE",
"36 227 OFFCURVE",
"36 118 CURVE SMOOTH",
"36 40 OFFCURVE",
"81 -8 OFFCURVE",
"176 -8 CURVE SMOOTH"
);
},
{
closed = 1;
nodes = (
"168 78 OFFCURVE",
"148 92 OFFCURVE",
"148 132 CURVE SMOOTH",
"148 155 OFFCURVE",
"150 171 OFFCURVE",
"160 195 CURVE",
"181 201 OFFCURVE",
"209 203 OFFCURVE",
"239 203 CURVE SMOOTH",
"273 203 OFFCURVE",
"300 200 OFFCURVE",
"322 196 CURVE",
"322 137 LINE",
"294 99 OFFCURVE",
"252 78 OFFCURVE",
"203 78 CURVE SMOOTH"
);
}
);
width = 492;
}
);
leftKerningGroup = a;
note = a;
unicode = 0061;
},
{
glyphname = aacute;
lastChange = "2015-07-19 07:34:22 +0000";
layers = (
{
layerId = "4CE4ED08-6AC3-4BDD-8925-679D298B3381";
name = Bold;
paths = (
{
closed = 1;
nodes = (
"239 -8 OFFCURVE",
"287 19 OFFCURVE",
"321 66 CURVE",
"329 66 LINE",
"335 0 LINE",
"428 0 LINE",
"428 331 LINE SMOOTH",
"428 426 OFFCURVE",
"367 478 OFFCURVE",
"259 478 CURVE SMOOTH",
"184 478 OFFCURVE",
"114 453 OFFCURVE",
"71 428 CURVE",
"71 403 LINE SMOOTH",
"71 377 OFFCURVE",
"76 350 OFFCURVE",
"84 327 CURVE",
"169 327 LINE",
"179 392 LINE",
"195 394 OFFCURVE",
"215 396 OFFCURVE",
"238 396 CURVE SMOOTH",
"297 396 OFFCURVE",
"320 381 OFFCURVE",
"320 322 CURVE SMOOTH",
"320 267 LINE",
"298 269 OFFCURVE",
"280 270 OFFCURVE",
"259 270 CURVE SMOOTH",
"127 270 OFFCURVE",
"36 227 OFFCURVE",
"36 118 CURVE SMOOTH",
"36 40 OFFCURVE",
"81 -8 OFFCURVE",
"176 -8 CURVE SMOOTH"
);
},
{
closed = 1;
nodes = (
"168 78 OFFCURVE",
"148 92 OFFCURVE",
"148 132 CURVE SMOOTH",
"148 155 OFFCURVE",
"150 171 OFFCURVE",
"160 195 CURVE",
"181 201 OFFCURVE",
"209 203 OFFCURVE",
"239 203 CURVE SMOOTH",
"273 203 OFFCURVE",
"300 200 OFFCURVE",
"322 196 CURVE",
"322 137 LINE",
"294 99 OFFCURVE",
"252 78 OFFCURVE",
"203 78 CURVE SMOOTH"
);
},
{
closed = 1;
nodes = (
"410 687 LINE",
"285 700 LINE",
"202 547 LINE",
"281 534 LINE"
);
}
);
width = 492;
}
);
leftKerningGroup = a;
note = aacute;
unicode = 00E1;
},
